<svg width="470" height="523" viewBox="0 0 470 523" fill="none" xmlns="http://www.w3.org/2000/svg">
<g clip-path="url(#clip0)">
<path d="M-3.71465 37.5992C-5.4848 36.1904 -6.79068 35.9215 -8.12428 34.2677C-9.65809 32.3655 -10.53 30.2915 -11.4749 28.059C-12.5193 25.5915 -13.3047 23.175 -13.8281 20.5526C-14.3204 18.0856 -14.9361 15.4524 -13.6746 13.1098C-11.3219 8.7408 -6.34346 11.3507 -3.2134 13.2752C0.605937 15.6236 2.2574 19.4958 2.56712 23.8096C2.73231 26.1102 2.29841 29.132 3.0531 31.2905C3.38084 32.2279 3.96538 33.6485 4.67727 34.3567C5.86531 35.5386 7.44897 36.0183 8.21976 37.6519C8.75506 38.7864 9.54653 39.9668 9.83114 41.1888C10.2151 42.8371 10.3115 44.9133 10.3811 46.6087C10.4063 47.2232 10.2219 48.6748 10.7903 49.1532C11.5203 49.7677 12.7499 50.1307 13.6933 50.2219C18.0491 50.6432 19.9982 45.8666 16.7371 42.97C14.4407 40.9303 13.5956 38.2974 11.9157 35.8834C11.2013 34.8568 16.0137 33.6968 16.8394 33.6824C19.8775 33.6294 21.8984 32.7453 24.2057 30.8325C25.4904 29.7675 26.4538 27.2702 28.3493 27.2702C30.5636 27.2702 33.1525 27.3596 35.268 26.5704C36.8266 25.989 36.4062 24.0017 36.4062 22.69C36.4062 20.6097 41.0417 21.316 42.3402 21.316C46.4036 21.316 50.5031 21.2877 54.5534 20.9597C56.6949 20.7863 58.9534 20.5845 61.0118 19.9292C61.567 19.7524 63.7445 19.132 63.9788 18.4661C64.1804 17.8929 61.9554 15.5907 63.0196 15.5907C64.4185 15.5907 65.8297 15.9784 67.2143 16.1505C69.7009 16.4598 72.2019 16.7141 74.6957 16.9648C78.5658 17.3539 82.4751 17.9667 86.3591 18.1098C89.4846 18.225 92.8538 18.5955 95.8612 19.4712C96.0063 19.5134 97.7179 19.8718 97.5621 20.2981C97.3874 20.7759 95.9768 21.0912 95.6182 21.2269C94.1525 21.7814 92.6422 22.3356 91.2956 23.148C90.3005 23.7483 88.5574 24.9728 89.5307 26.2524C90.6897 27.7759 94.3598 27.3266 95.9251 27.3847C99.3311 27.5111 102.91 27.2981 106.284 27.8681C108.131 28.1802 109.785 28.9688 111.668 29.2167C113.203 29.4188 114.47 29.8691 115.901 30.3618C118.308 31.1907 121.146 30.4998 123.6 30.2982C129.124 29.8444 133.56 32.978 138.857 34.0005C142.617 34.7263 146.565 34.3204 150.201 35.3364C152.021 35.8452 153.491 35.6161 155.291 35.2346C156.925 34.888 158.954 34.8307 160.342 33.8096C162.254 32.4041 165.1 34.0148 167.107 34.5984C168.312 34.9488 169.299 35.2055 170.56 34.7766C172.329 34.1753 173.748 31.8737 175.203 30.7435C178.737 27.9967 183.957 29.4698 188.17 29.8508" stroke="white" stroke-width="1.5" stroke-linecap="round" stroke-linejoin="round"/>
<path d="M31.3466 10.5526C33.3909 10.0507 34.7919 9.53577 36.821 9.99253C39.1685 10.521 41.4242 10.943 43.8293 11.1121C44.2157 11.1393 49.8213 11.0927 47.781 12.7025C47.1513 13.1993 46.3739 13.406 45.5941 13.5294C42.6449 13.9962 39.4298 14.1699 36.4629 13.7839C34.03 13.4674 27.8619 11.4044 31.3474 10.5523" stroke="white" stroke-width="1.5" stroke-linecap="round" stroke-linejoin="round"/>
<path d="M57.0966 11.7736C55.9873 11.6854 50.2803 12.1331 52.5734 14.0015C54.8666 15.87 56.7072 15.8434 58.3499 13.3513C58.9344 12.4646 57.877 11.8357 57.0966 11.7736Z" stroke="white" stroke-width="1.5" stroke-linecap="round" stroke-linejoin="round"/>
<path d="M188.17 29.8508C193.126 30.203 197.312 32.6116 201.688 33.2243C203.601 33.4921 205.535 33.6101 207.443 33.9113C208.72 34.113 209.248 34.7075 210.308 35.2345C211.19 35.6732 212.45 35.6266 213.403 35.7434C215.441 35.9932 217.488 36.2768 219.541 36.3795C224.113 36.6082 228.727 36.145 233.289 36.5576C235.38 36.7468 237.408 37.0669 239.517 37.1047C241.723 37.1442 243.93 37.0221 246.116 37.3846C251.352 38.2527 256.605 39.825 261.898 40.3235C265.41 40.6544 268.572 39.1436 272.077 39.5856C273.692 39.7893 275.32 39.9037 276.937 40.0945C279.519 40.3993 281.447 41.5246 283.843 42.3465C285.467 42.9034 287.197 43.1402 288.844 43.6314C290.049 43.9913 291.157 44.6118 292.348 45.0182C295.318 46.0328 298.289 45.5726 301.236 46.2905C302.81 46.6739 304.378 46.7751 305.968 47.0793C307.228 47.3203 308.541 47.1558 309.817 47.2065C311.495 47.2733 312.662 48.3581 314.204 48.8732C316.504 49.6416 319.399 50.1631 321.851 50.349C323.109 50.4443 324.27 50.0319 325.509 50.0437C327.229 50.06 328.713 50.9503 330.33 51.405C332.13 51.9109 334 51.5102 335.778 52.0157C338.078 52.6695 336.735 54.8742 335.126 55.4381C332.219 56.4571 330.658 55.9504 327.939 54.802C325.218 53.6529 322.628 52.4528 319.728 51.774C317.914 51.3493 315.156 50.784 313.411 51.7485C311.782 52.6485 311.026 54.295 311.85 56.0106C313.786 60.037 323.178 59.9382 322.261 65.4127C321.933 67.3695 318.963 67.1941 317.554 67.2956C314.255 67.5335 311.465 67.7489 308.41 69.0514C306.71 69.7763 304.33 70.2599 303.09 71.7104C302.091 72.8797 301.122 73.2502 299.573 73.3008C298.139 73.3475 296.534 73.576 295.174 74.0387C292.566 74.9264 294.122 78.1762 295.161 79.7003C297.276 82.8005 299.645 85.6648 302.63 87.9573C303.903 88.9352 305.373 89.8463 305.942 91.4179C306.497 92.952 306.428 94.5974 306.428 96.2016C306.428 99.8477 305.915 107.664 300.238 106.253C296.729 105.38 293.761 101.484 291.619 98.8479C290.426 97.3796 289.064 95.9119 288.025 94.3314C287.02 92.8027 286.728 91.0706 286.158 89.3695C285.246 86.647 283.819 84.9498 283.997 81.9522C284.136 79.5911 284.533 77.2469 284.559 74.8784C284.571 73.8018 284.411 72.586 284.61 71.5196C284.817 70.4139 283.664 69.9766 282.833 69.2931C282.306 68.8604 281.12 67.7673 280.313 68.059C279.626 68.3076 279.384 71.4194 278.804 71.1888C277.629 70.7213 276.147 70.3951 275.07 69.8147C273.871 69.1687 272.748 68.3288 271.489 67.8046C269.567 67.0039 267.357 66.4685 266.028 68.3771C264.612 70.4131 265.342 72.7371 264.532 74.8529C264.13 75.9023 263.446 75.5311 262.46 75.998C261.573 76.4184 260.815 77.1035 259.762 77.1812C253.616 77.634 247.54 78.5481 241.448 79.5985C238.925 80.0337 235.176 80.3224 233.238 82.1303C232.721 82.612 232.585 83.4566 232.292 84.0769C231.85 85.0098 231.267 85.8306 231.102 86.8631C230.594 90.0485 231.837 92.0691 234.939 93.1736C238.897 94.5832 243.147 95.0493 247.101 96.5451C248.649 97.1307 250.156 97.8333 251.59 98.6571C253.451 99.7262 255.715 100.82 257.294 102.283C258.362 103.273 258.521 105.116 258.905 106.443C259.431 108.264 259.954 110.089 260.158 111.978C260.611 116.159 260.877 120.569 260.849 124.777C260.84 126.186 260.737 127.781 260.107 129.077C259.357 130.621 258.412 131.873 258.01 133.606C257.442 136.054 257.721 138.971 254.698 139.879C251.6 140.809 248.409 138.175 245.195 138.619C242.661 138.969 241.993 141.231 241.973 143.505C241.957 145.276 242.307 146.955 242.561 148.695C242.62 149.103 242.976 150.826 242.51 151.164C241.441 151.937 240.068 151.379 239.044 151.889C238.648 152.086 243.399 156.291 244.815 156.643" stroke="white" stroke-width="1.5" stroke-linecap="round" stroke-linejoin="round"/>
<path d="M268.89 119.603C270.494 122.11 273.84 127.19 274.065 125.738C274.291 124.286 272.873 121.691 273.154 120.75C273.422 119.849 273.277 118.931 273.717 118.056C274.097 117.299 274.258 116.251 273.931 115.415C273.376 113.995 271.829 113.44 270.687 112.588C269.64 111.806 268.101 110.866 267.308 109.84C266.874 109.279 266.256 108.171 265.726 107.72C265.118 107.201 265.05 106.011 264.279 105.573C263.78 105.289 261.521 102.858 261.517 102.932C261.465 103.806 261.808 104.884 262.12 105.693C263.05 108.097 264.032 110.382 265.378 112.588C266.035 113.665 266.61 114.985 267.188 116.135C267.531 116.819 267.996 117.386 268.368 118.043C268.637 118.519 268.6 119.15 268.89 119.603Z" stroke="white" stroke-width="1.5" stroke-linecap="round" stroke-linejoin="round"/>
<path d="M275.739 132.168C275.538 131.37 275.405 131.11 275.716 129.504C276.027 127.898 277.526 129.932 278.085 130.369C278.365 130.588 278.711 130.802 278.909 131.098C279.12 131.413 279.242 131.762 279.504 132.043C280.1 132.681 280.54 133.455 281.175 134.064C282.033 134.886 283.035 135.482 284.168 135.857C285.002 136.134 285.895 136.183 286.726 136.472C287.087 136.598 287.594 136.694 287.87 136.984C288.14 137.268 287.973 138.2 287.973 138.567C287.973 139.314 288.013 140.541 287.338 141.077C286.169 142.008 283.986 141.595 282.606 141.595C280.833 141.595 278.484 142.742 277.982 144.613C277.71 145.628 276.66 144.509 276.311 144.032C276.002 143.608 275.613 143.253 275.613 142.711C275.613 141.948 275.804 141.273 276.025 140.548C276.415 139.271 276.903 137.617 277.982 136.723C278.784 136.058 277.843 135.132 277.461 134.525C276.973 133.747 275.974 133.103 275.739 132.168Z" stroke="white" stroke-width="1.5" stroke-linecap="round" stroke-linejoin="round"/>
<path d="M281.755 154.824C281.542 152.298 282.646 149.115 281.729 147.131C280.811 145.148 283.961 147.285 284.177 147.423C284.556 147.662 284.822 148.197 285.082 148.561C285.498 149.142 286.144 149.498 286.646 149.998C287.381 150.728 288.127 151.435 288.889 152.136C290.694 153.797 291.091 155.856 291.071 158.187C291.06 159.555 290.961 161.19 290.346 162.437C289.824 163.496 289.039 164.388 288.343 165.336C287.846 166.013 287.241 166.584 286.693 167.216C285.781 168.268 284.988 169.415 284.084 170.473C282.835 171.936 281.207 172.786 279.267 172.75C277.538 172.718 277.236 171.647 276.246 170.486C275.71 169.859 274.831 169.936 274.07 170.076C272.873 170.295 271.716 170.629 270.589 171.082C269.363 171.576 267.65 172.66 266.251 172.247C265.142 171.92 264.996 171.069 264.148 170.42C263.212 169.703 264.059 169.061 264.84 168.845C266.191 168.471 267.53 168.099 268.886 167.719C271.032 167.119 272.711 166.322 274.515 165.032C275.557 164.287 276.27 163.298 277.244 162.503C278.336 161.611 279.53 160.773 280.385 159.643C280.89 158.975 281.852 157.897 281.962 157.028C282.055 156.284 281.817 155.557 281.755 154.824Z" stroke="white" stroke-width="1.5" stroke-linecap="round" stroke-linejoin="round"/>
<path d="M263.672 176.337C262.832 176.906 261.929 177.799 261.958 178.799C261.986 179.8 263.07 179.86 263.296 180.309C263.593 180.901 263.751 181.617 264.189 182.126C264.683 182.701 265.265 182.411 265.754 181.991C266.388 181.446 267.051 180.74 267.033 179.866C267.01 178.767 266.875 177.629 266.286 176.675C266.059 176.309 265.775 175.901 265.309 175.846C264.723 175.778 264.145 176.016 263.672 176.337Z" stroke="white" stroke-width="1.5" stroke-linecap="round" stroke-linejoin="round"/>
<path d="M270.955 176.388C268.778 176.303 269.108 175.13 269.308 174.754C269.491 174.41 269.849 174.177 270.205 174.041C270.809 173.81 271.561 173.69 272.201 173.819C272.81 173.941 273.591 174.466 273.29 175.182C273.157 175.498 272.825 175.675 272.537 175.827C272.029 176.094 271.504 176.233 270.957 176.388" stroke="white" stroke-width="1.5" stroke-linecap="round" stroke-linejoin="round"/>
<path d="M244.812 156.643C247.678 157.826 250.475 159.365 252.7 161.58C253.392 162.268 253.953 163.358 253.953 164.34C253.953 166.206 253.767 168.364 252.885 170.039C252.039 171.646 250.085 171.857 248.435 171.974C246.428 172.117 244.34 172.058 242.892 170.481C241.012 168.435 240.42 165.261 239.493 162.726C239.179 161.866 238.973 160.845 238.479 160.066C238.077 159.432 237.616 158.815 237.126 158.246C236.641 157.684 235.863 157.413 235.213 157.09C234.524 156.747 233.846 156.367 233.268 155.854C232.128 154.843 231.915 153.565 231.217 152.289C230.747 151.43 230.144 150.905 229.124 150.891C228.524 150.883 227.923 150.891 227.322 150.891C226.64 150.891 225.873 150.771 225.266 151.133C224.737 151.449 224.145 152.426 223.417 152.063C223.065 151.889 222.78 151.505 222.465 151.269C221.797 150.771 221.224 150.305 220.732 149.619C220.178 148.847 219.7 147.897 218.681 147.694C218.041 147.567 216.605 147.493 216.208 148.073C215.965 148.427 199.496 161.679 226.404 160.165" stroke="white" stroke-width="1.5" stroke-linecap="round" stroke-linejoin="round"/>
<path d="M299.916 364.691C299.916 362.448 301.106 359.511 300.752 357.398C300.398 355.285 297.293 353.994 295.646 353.442C294.188 352.955 292.526 353.141 291.036 353.346C288.923 353.636 287.037 354.125 285.297 355.398C281.516 358.163 279.577 366.597 274.052 366.597C272.04 366.597 270.16 365.876 268.544 364.691C267.406 363.857 266.991 363.556 265.523 363.556C262.093 363.556 260.287 364.589 257.698 366.815C256.015 368.262 254.295 369.665 252.652 371.159C250.966 372.692 249.559 374.526 247.945 376.132C245.52 378.544 242.954 380.804 240.459 383.144C238.986 384.526 237.526 386.069 235.692 386.982C234.522 387.563 233.226 387.824 232.004 388.273C229.649 389.138 227.223 389.21 224.773 389.673C222.353 390.131 219.772 390.813 217.519 391.821C215.482 392.733 213.896 393.577 212.751 395.55C211.193 398.238 210.457 401.117 210.628 404.204C210.81 407.473 210.798 410.729 210.798 414.004C210.798 417.205 211.472 420.176 212.084 423.309C212.638 426.141 211.671 428.886 211.671 431.721C211.671 433.146 211.719 434.909 211.016 436.186C210.174 437.718 208.528 438.571 207.256 439.686C206.311 440.514 206.01 442.603 207.328 443.258C208.949 444.065 211.954 443.5 213.722 443.5C215.86 443.5 218.018 443.339 220.139 443.065C222.638 442.743 224.946 441.857 227.37 441.231C230.004 440.55 232.669 440.069 235.304 439.36C241.305 437.747 247.066 435.11 253.258 434.376C257.602 433.861 262.012 433.735 266.372 434.159C271.015 434.609 271.943 439.265 275.313 441.545C277.419 442.969 279.489 441.265 281.852 441.569C284.067 441.853 284.8 445.404 284.8 447.181C284.8 449.441 284.096 451.503 284.339 453.782C284.657 456.763 287.099 457.898 289.531 459.141C291.531 460.163 293.369 461.46 295.633 461.844C297.949 462.238 300.51 462.024 302.779 461.531C305.299 460.982 307.661 460.928 310.106 460.01C312.736 459.022 315.569 457.659 318.016 456.269C320.119 455.073 322.094 453.877 323.912 452.274C326.126 450.321 327.883 447.689 329.808 445.455C332.959 441.797 335.562 437.888 338.227 433.869C341.351 429.157 343.804 424.21 345.967 419C347.43 415.476 348.709 411.608 349 407.776C349.192 405.244 348.946 402.913 347.605 400.716C346.118 398.281 343.529 396.444 341.527 394.452C337.634 390.579 334.03 386.387 333.205 380.79C332.767 377.82 332.424 374.911 331.555 372.028C331.065 370.404 330.438 368.983 330.196 367.297C329.972 365.737 329.581 364.274 328.667 362.953C327.446 361.185 326.744 359.372 325.756 357.485C324.77 355.603 321.585 351.515 319.811 355.18C319.087 356.676 319.545 359.193 319.545 360.804C319.545 363.091 319.525 365.371 318.877 367.587C318.105 370.227 317.116 372.726 315.917 375.202C315.273 376.534 314.076 378.303 312.387 378.063C310.49 377.793 308.879 375.948 307.437 374.852C305.837 373.636 304.715 372.43 303.495 370.821C302.539 369.563 301.755 368.207 300.911 366.875C300.501 366.228 299.916 365.494 299.916 364.691Z" stroke="white" stroke-width="1.5" stroke-linecap="round" stroke-linejoin="round"/>
<path d="M293.849 480.007C293.893 477.345 294.414 474.472 295.14 471.907C295.621 470.205 296.318 469.257 298.019 468.746C299.926 468.173 302.123 468.858 303.867 469.635C304.693 470.004 305.695 470.736 305.919 471.666C306.068 472.286 306.35 473.928 305.83 474.377C304.654 475.391 303.399 475.661 301.903 475.661C300.656 475.661 298.819 475.326 297.931 476.451C297.29 477.263 297.333 478.459 296.585 479.261C295.705 480.204 295.052 480.248 293.844 480.007" stroke="white" stroke-width="1.5" stroke-linecap="round" stroke-linejoin="round"/>
<path d="M353.312 489.491C353.11 490.231 352.556 491.569 353.224 491.862C353.891 492.155 364.403 492.865 367.368 491.62C371.295 489.972 373.809 487.184 375.753 483.388C376.718 481.504 377.687 479.452 379.085 477.834C380.544 476.146 382.7 474.523 384.601 473.334C386.521 472.134 390.136 469.826 389.754 467.166C389.599 466.09 387.729 466.681 387.073 466.771C385.074 467.045 383.829 468.027 382.218 469.142C378.315 471.843 374.719 474.831 370.943 477.681C368.754 479.333 366.786 480.81 364.279 481.961C362.462 482.796 360.629 483.49 358.784 484.266C357.244 484.915 355.892 485.763 354.912 487.12C354.38 487.856 353.555 488.599 353.312 489.491Z" stroke="white" stroke-width="1.5" stroke-linecap="round" stroke-linejoin="round"/>
<path d="M396.404 468.548C395.566 469.34 393.375 471.117 395.918 471.314C398.461 471.512 399.358 470.492 400.486 469.339C401.695 468.101 401.109 465.815 402.516 464.948C403.567 464.301 405.704 464.433 406.951 464.246C408.544 464.007 410.008 463.693 411.563 463.258C413.197 462.801 414.605 462.544 415.138 460.69C415.721 458.657 413.888 458.473 412.512 458.473C410.157 458.473 410.813 457.633 410.813 455.707C410.813 454.363 407.36 456.123 406.444 454.675C405.998 453.971 406.425 453.102 406.444 452.348C406.481 450.833 406.825 449.367 406.841 447.848C406.85 446.943 406.528 442.862 405.009 445.038C403.829 446.728 404.069 449.798 404.303 451.689C404.49 453.194 404.656 454.625 404.656 456.146C404.656 456.936 404.843 458.007 404.369 458.714C403.556 459.927 402.176 460.022 400.839 460.053C398.827 460.1 397.904 461.87 397.904 463.609C397.904 464.633 398.315 466.728 397.706 467.604C397.398 468.047 396.787 468.186 396.404 468.548Z" stroke="white" stroke-width="1.5" stroke-linecap="round" stroke-linejoin="round"/>
<path d="M393.228 384.996C389.252 380.839 394.984 390.734 396.667 393.305C396.994 393.805 398.523 396.343 399.504 395.551C399.915 395.218 399.884 394.276 399.887 393.859C399.897 392.584 399.702 391.284 399.3 390.072C398.648 388.103 394.468 386.622 393.228 384.994" stroke="white" stroke-width="1.5" stroke-linecap="round" stroke-linejoin="round"/>
<path d="M412.325 370.711C412.12 368.904 409.435 368.556 411.145 367.649C413.01 366.659 420.245 377.573 412.326 370.711" stroke="white" stroke-width="1.5" stroke-linecap="round" stroke-linejoin="round"/>
<path d="M448.826 377.912C448.947 377.214 449.191 376.145 450.112 375.426C451.034 374.708 453.729 374.665 453.769 373.57C453.798 372.802 453.25 372.584 452.55 372.597C451.747 372.612 450.972 372.907 450.353 373.405C449.933 373.744 449.15 375.38 448.728 375.426C447.69 375.541 447.01 375.418 446.079 376.13C445.104 376.877 445.23 377.957 446.049 378.795C446.689 379.449 447.574 379.817 448.352 379.064C448.706 378.722 448.745 378.378 448.826 377.912Z" stroke="white" stroke-width="1.5" stroke-linecap="round" stroke-linejoin="round"/>
<path d="M467.988 387.284C468.438 386.204 470.365 385.373 470.293 387.388C470.253 388.49 467.99 388.573 467.99 387.283" stroke="white" stroke-width="1.5" stroke-linecap="round" stroke-linejoin="round"/>
<path d="M294.076 312.605C293.696 309.397 289.482 307.998 287.859 310.961C286.237 313.925 287.884 313.907 288.53 314.433C289.282 315.046 290.795 314.835 291.303 315.628C291.839 316.467 291.603 317.659 291.603 318.617C291.603 319.787 291.59 320.854 291.857 321.996C292.116 323.104 293.558 324.143 294.515 324.571C295.372 324.955 297.002 324.617 297.958 324.617C299.529 324.617 301.207 324.453 302.742 324.824C304.165 325.168 305.467 325.781 306.797 326.376C308.732 327.242 313.152 329.005 313.025 331.652C312.96 333.027 311.505 334.07 311.177 335.457C310.879 336.714 311.166 338.149 312.355 338.802C313.587 339.478 315.421 338.312 316.769 338.526C317.483 338.64 319.309 339.039 319.484 339.825C319.721 340.884 320.782 341.874 321.761 342.205C323.285 342.72 324.455 342.201 325.828 341.584C327.582 340.796 328.589 338.571 330.588 338.296C332.472 338.038 333.731 339.032 335.118 340.135C339.144 343.34 343.291 347.377 348.175 349.228C350.549 350.128 352.831 351.505 355.477 351.285C355.816 351.257 358.897 350.737 358.897 350.228C358.897 350.054 357.405 349.932 357.233 349.906C353.368 349.326 349.842 347.463 346.88 344.894C344.87 343.151 342.618 341.83 340.826 339.814C337.398 335.956 335.423 331.035 332.194 327.02C329.528 323.704 325.138 321.581 321.368 319.812C319.408 318.893 317.39 318.048 315.313 317.421C312.505 316.574 309.957 316.341 306.994 316.341C304.738 316.341 302.97 317.45 301.066 318.525C299.588 319.36 298.958 319.702 297.242 319.33C296.207 319.105 295.736 318.78 294.977 318.042C294.211 317.297 293.562 316.971 293.706 315.789C293.839 314.697 294.208 313.726 294.076 312.605Z" stroke="white" stroke-width="1.5" stroke-linecap="round" stroke-linejoin="round"/>
<path d="M350.461 331.652C351.376 330.486 352.72 330.708 354.043 330.204C355.301 329.725 356.61 329.584 357.763 328.847C359.584 327.686 359.82 326.02 359.82 323.985C359.82 321.945 357.999 321.357 356.747 320.111C355.172 318.545 358.773 317.789 359.809 317.789C361.071 317.789 361.955 320.843 362.108 321.87C362.468 324.287 363.555 326.566 361.6 328.549C360.471 329.693 359.179 330.635 358.041 331.767C357.297 332.507 356.024 332.908 355.083 333.376C353.163 334.331 351.381 333.189 350.045 331.859" stroke="white" stroke-width="1.5" stroke-linecap="round" stroke-linejoin="round"/>
<path d="M368.973 334.755C370.638 334.245 373.695 334.094 374.334 336.318C375.057 338.836 377.413 339.342 379.58 340.549C382.536 342.196 386.032 344.134 387.645 347.285C387.777 347.543 388.465 348.615 388.292 348.917C387.954 349.506 385.364 347.691 385.057 347.515C382.514 346.055 380.795 343.873 377.904 343.112C376.481 342.737 375.081 341.922 373.71 341.376C371.883 340.649 370.655 338.974 369.897 337.25C369.537 336.432 369.216 335.618 368.557 334.962" stroke="white" stroke-width="1.5" stroke-linecap="round" stroke-linejoin="round"/>
<path d="M260.728 344.346C258.799 344.56 256.028 344.866 254.791 346.342C255.768 347.071 256.653 347.213 257.899 347.055C259.319 346.875 262.419 347.105 263.434 345.883C264.492 344.608 261.324 344.281 260.765 344.342L260.728 344.346Z" stroke="white" stroke-width="1.5" stroke-linecap="round" stroke-linejoin="round"/>
<path d="M274.551 320.479C275.063 320.322 281.179 318.721 280.905 320.491C280.602 322.45 275.504 320.795 274.551 320.479Z" stroke="white" stroke-width="1.5" stroke-linecap="round" stroke-linejoin="round"/>
<path d="M272.886 307.443C272.682 305.695 272.051 299.724 274.667 299.213C275.641 299.023 275.745 300.343 275.765 301.018C275.849 303.802 274.707 305.539 272.888 307.443" stroke="white" stroke-width="1.5" stroke-linecap="round" stroke-linejoin="round"/>
<path d="M253.08 303.535C255.452 303.378 254.959 303.499 259.782 304.961C264.604 306.422 251.092 307.78 248.967 309.237C248.15 309.796 246.758 311.062 247.326 312.191C247.734 313.003 249.384 313.215 250.122 313.685C251.844 314.781 252.874 317.16 253.612 318.961C254.325 320.703 254.371 322.727 252.964 324.157C251.767 325.374 250.366 323.666 249.914 322.605C249.263 321.078 249.18 318.874 247.464 318.088C246.492 317.642 245.6 317.646 245.038 318.639C243.419 321.502 246.01 326.057 242.935 328.41C241.799 329.28 241.217 327.219 241.063 326.456C240.497 323.637 240.77 320.374 241.283 317.57C242.002 313.638 241.966 307.43 245.708 304.892C246.61 304.28 247.993 304.289 249.024 304.121C250.368 303.903 251.719 303.625 253.08 303.535Z" stroke="white" stroke-width="1.5" stroke-linecap="round" stroke-linejoin="round"/>
<path d="M235.657 342.411C233.486 340.845 232.641 339.404 234.524 338.928C235.77 338.613 236.952 338.526 237.389 339.951C237.643 340.777 236.746 343.134 235.656 342.411" stroke="white" stroke-width="1.5" stroke-linecap="round" stroke-linejoin="round"/>
<path d="M242.103 347.17C241.978 345.285 243.172 342.188 244.931 341.227C245.752 340.779 247.602 340.215 248.351 341.101C250.106 343.177 246.439 343.832 245.185 344.273C244.874 344.383 243.491 344.532 243.695 345.101C243.858 345.556 244.173 345.871 244.192 346.388C244.23 347.462 242.868 347.471 242.112 347.17" stroke="white" stroke-width="1.5" stroke-linecap="round" stroke-linejoin="round"/>
<path d="M161.198 286.959C164.836 291.065 169.48 294.21 173.423 298.018C177.299 301.761 180.691 305.987 184.539 309.765C186.924 312.108 188.577 314.338 189.9 317.421C190.899 319.751 191.148 322.819 191.148 325.33C191.148 327.776 191.238 330.194 188.074 329.755C184.437 329.25 180.955 325.372 178.911 322.686C177.562 320.912 176.623 318.801 175.48 316.892C173.816 314.113 172.313 311.238 170.696 308.432C169.383 306.154 168 303.887 166.744 301.581C166.073 300.348 165.474 299.071 164.884 297.799C163.783 295.427 162.479 293.438 160.99 291.305" stroke="white" stroke-width="1.5" stroke-linecap="round" stroke-linejoin="round"/>
<path d="M200.726 335.066C197.824 334.558 191.743 331.445 191.979 333.928C192.215 336.41 201.652 338.798 205.152 339.721C208.678 340.651 212.041 341.994 215.666 342.572C218.097 342.959 221.035 343.26 223.084 341.629C223.874 341.001 223.334 340.455 222.634 339.939C219.24 337.438 214.751 337.296 210.79 336.709C207.434 336.212 204.067 335.65 200.726 335.066Z" stroke="white" stroke-width="1.5" stroke-linecap="round" stroke-linejoin="round"/>
<path d="M212.357 297.719C199.406 306.328 211.327 319.275 218.372 321.927C221.228 323.002 225.655 324.045 228.586 322.709C231.316 321.464 233.033 319.298 234.687 316.892C236.152 314.763 236.599 312.258 236.478 309.719C236.434 308.809 235.965 307.475 236.409 306.593C236.935 305.545 238.24 305.108 238.673 304.007C239.055 303.036 239.366 301.913 239.147 300.868C238.919 299.778 238.199 299.166 237.737 298.248C237.123 297.026 237.417 296.022 237.737 294.73C238.228 292.751 238.7 290.741 239.031 288.73C239.279 287.226 239.887 285.43 238.558 284.362C237.06 283.158 235.93 283.171 234.098 282.925C232.254 282.677 230.729 284.079 229.314 285.109C226.857 286.897 224.828 289.225 222.439 291.098C219.237 293.607 215.857 295.634 212.363 297.719" stroke="white" stroke-width="1.5" stroke-linecap="round" stroke-linejoin="round"/>
<path d="M240.948 267.522C237.298 266.862 235.199 271.504 233.992 274.339C236.381 272.963 238.661 271.299 240.44 269.166C240.602 268.972 241.761 267.669 240.948 267.522Z" stroke="white" stroke-width="1.5" stroke-linecap="round" stroke-linejoin="round"/>
<path d="M243.144 236.68C238.381 240.668 241.469 247.192 245.848 251.992C250.227 256.791 255.876 254.793 255.611 252.428C255.518 251.594 252.867 251.504 252.203 251.371C250.269 250.982 249.414 250.394 248.274 248.808C247.325 247.485 247.933 245.918 248.39 244.543C249.219 242.048 249.342 239.03 247.408 237.002C245.78 235.296 244.936 235.18 243.144 236.68Z" stroke="white" stroke-width="1.5" stroke-linecap="round" stroke-linejoin="round"/>
<path d="M251.762 263.935C249.701 263.994 248.798 265.949 248.758 267.717C249.808 267.419 251.258 265.853 252.155 265.211C252.817 264.737 252.623 263.911 251.762 263.935Z" stroke="white" stroke-width="1.5" stroke-linecap="round" stroke-linejoin="round"/>
<path d="M255.75 266.246C254.488 267.777 254.023 269.252 253.959 271.235C254.591 271.235 256.012 271.882 256.501 271.395C257.353 270.548 257.536 269.197 257.656 268.062C257.821 266.506 258.283 265.73 259.436 264.659C259.93 264.201 260.739 264.488 261.342 264.177C264.045 262.782 262.23 259.028 259.887 261.234C258.323 262.705 257.109 264.597 255.75 266.246Z" stroke="white" stroke-width="1.5" stroke-linecap="round" stroke-linejoin="round"/>
<path d="M258.734 277.04C257.555 277.088 257.961 274.737 255.625 278.063C253.289 281.389 260.038 281.657 261.588 282.753C263.497 284.103 265.542 283.924 267.688 283.212C269.253 282.693 270.273 281.834 270.173 280.178C270.025 277.762 269.92 275.299 268.936 273.051C268.155 271.266 267.631 269.779 265.516 270.2C263.875 270.527 263.118 271.223 262.928 272.97C262.755 274.56 262.895 276.349 261.044 276.902C260.304 277.123 259.494 277.008 258.734 277.04Z" stroke="white" stroke-width="1.5" stroke-linecap="round" stroke-linejoin="round"/>
<path d="M171.885 253.147C168.699 250.681 169.45 264.632 170.557 268.361C171.819 272.61 173.594 277.171 177.248 279.925C178.819 281.109 180.599 282.008 181.904 283.511C183.07 284.854 183.733 286.861 184.4 288.477C185.198 290.411 186.027 292.364 186.537 294.397C186.922 295.926 187.519 298.548 186.214 299.846C183.569 302.477 180.258 298.339 178.969 296.409C176.645 292.927 176.021 288.649 174.082 284.983C172.844 282.643 171.731 279.898 169.864 277.994C167.977 276.068 166.214 274.463 165.589 271.752C165.257 270.313 165.37 268.837 165.358 267.372C165.345 265.906 165.08 264.436 165.161 262.97C165.231 261.717 165.612 260.552 165.52 259.28C165.426 257.993 164.95 256.822 164.572 255.602C163.807 253.129 163.007 250.755 161.533 248.613C160.401 246.966 159.542 245.261 159.904 243.233C160.439 240.242 153.253 241.609 151.839 242.061C149.925 242.671 148.615 241.943 147.575 240.279C146.143 237.986 144.979 234.832 143.562 231.31" stroke="white" stroke-width="1.5" stroke-linecap="round" stroke-linejoin="round"/>
<path d="M171.885 253.144C173.663 254.385 179.531 259.691 180.601 261.615C181.279 262.834 181.883 264.105 182.752 265.209C183.588 266.272 185.223 266.802 186.448 267.265C188.425 268.011 187.868 271.365 188.43 272.981C189.626 276.418 194.342 270.689 195.386 269.671C198.196 266.934 203.111 266.736 204.341 262.384C205.428 258.54 204.988 255.587 203.921 251.871C202.486 246.874 199.947 243.868 196.596 239.954C194.658 237.691 189.723 234.626 190.984 230.861C192.119 227.473 196.838 226.012 200.141 226.298C202.01 226.46 203.202 229.599 204.744 228.655C206.155 227.791 207.301 226.335 208.827 225.68C210.004 225.174 211.196 224.742 212.405 224.326C216.161 223.033 220.226 222.33 223.46 219.947C228.039 216.573 231.714 212.194 234.398 207.227C235.596 205.01 235.96 202.387 236.431 199.94C236.911 197.447 237.432 194.972 237.12 192.419C236.639 188.489 235.051 183.435 231.592 181.036C229.646 179.687 228.464 178.497 226.905 176.707C225.814 175.455 221.727 174.292 221.449 172.493C221.253 171.224 219.037 168.44 219.679 167.21C220.72 165.216 232.07 159.814 226.405 160.166" stroke="white" stroke-width="1.5" stroke-linecap="round" stroke-linejoin="round"/>
<path d="M205.432 231.399C204.266 230.272 201.926 230.131 200.593 230.496C200.593 231.891 200.442 232.87 201.786 233.622C202.597 234.076 203.671 234.173 204.508 233.789C205.566 233.303 206.473 232.406 205.432 231.399Z" stroke="white" stroke-width="1.5" stroke-linecap="round" stroke-linejoin="round"/>
<path d="M240.077 211.71C239.208 213.287 238.699 214.619 238.699 216.356C239.921 216.356 242.365 216.559 243.051 215.27C243.7 214.05 243.199 212.069 242.395 211.075C241.458 209.915 240.686 210.605 240.077 211.71Z" stroke="white" stroke-width="1.5" stroke-linecap="round" stroke-linejoin="round"/>
<path d="M143.558 231.31C141.979 227.471 140.207 222.838 137.402 219.699C136.486 218.674 135.601 217.95 134.159 217.877C130.309 217.68 124.314 216.851 121.29 219.732C120.064 220.899 119.127 222.407 118.064 223.71C115.871 226.397 113.282 228.865 110.991 231.482C108.237 234.628 105.935 238.059 102.909 241.026C101.762 242.151 100.199 242.97 99.2803 244.268C97.6167 246.62 96.7812 249.073 96.5586 252.007C96.3163 255.201 96.0552 258.601 95.1809 261.685C94.7495 263.206 94.3919 264.742 93.9712 266.264C93.5631 267.741 92.647 269.054 92.392 270.577C92.1678 271.915 92.2026 274.937 90.5102 275.557C89.9542 275.761 86.7661 265.668 86.562 265.094C85.8076 262.975 84.6718 260.894 84.3107 258.659C83.899 256.111 83.9108 253.249 82.5802 250.954C81.1287 248.451 79.6768 246 77.9431 243.7C76.7053 242.058 75.9528 239.938 75.0534 238.084C73.8706 235.647 73.4415 233.133 73.0373 230.496C72.6682 228.09 72.0935 225.653 72.0628 223.209C72.0377 221.208 71.4573 219.384 69.8115 218.044C68.4249 216.915 65.983 219.629 65.2752 220.568C64.1269 222.091 63.5642 222.612 61.9486 221.036C59.8698 219.008 57.634 217.035 55.2618 215.353C53.9109 214.395 52.9054 213.072 51.5152 212.294C50.566 211.763 49.6681 210.69 48.7431 210.021C47.5385 209.15 46.2885 208.835 44.8453 208.835C39.9706 208.835 35.337 206.428 30.4805 206.428C26.6834 206.428 23.1979 206.489 19.5094 205.592C17.7791 205.171 17.4296 203.152 15.9308 202.349C14.8528 201.772 14.1697 201.057 13.2595 200.344C10.1824 197.932 6.32312 199.207 2.69168 199.207C-2.46867 199.207 -6.91565 198.69 -11.2027 195.664C-12.9953 194.398 -14.1641 192.761 -15.6718 191.218C-16.5741 190.294 -17.2263 188.677 -18.6791 188.677C-20.7538 188.677 -20.6978 191.091 -20.4264 192.755C-20.0091 195.315 -17.7931 197.721 -16.075 199.508C-15.1027 200.519 -14.5844 201.994 -14.1261 203.285C-13.4976 205.057 -11.4384 206.005 -10.1778 207.364C-8.75197 208.9 -7.65445 209.888 -5.64159 210.489C-4.10009 210.949 -1.62167 212.184 0.0203331 211.709C3.35736 210.746 4.53639 206.256 8.38721 207.063C10.4873 207.503 10.2797 209.824 10.6721 211.408C11.228 213.653 13.0496 214.567 15.0068 215.57C18.1091 217.16 21.5878 219.036 20.5847 223.209C20.218 224.734 18.5916 226.124 17.4933 227.187C14.7174 229.872 11.6168 232.264 8.85763 235.009C6.66772 237.187 5.05989 239.7 3.0949 242.062C1.29352 244.228 -1.09713 245.54 -3.37346 247.11C-8.77932 250.838 -15.1508 251.999 -21.3169 253.996C-25.0842 255.216 -29.3666 257.82 -33.0439 255.166C-34.8358 253.873 -34.83 249.427 -35.2953 247.344C-35.8661 244.788 -36.6407 241.157 -38.0674 238.887C-39.4571 236.675 -40.5517 234.682 -41.6628 232.301C-42.3249 230.883 -43.1076 229.518 -43.7461 228.089C-44.4515 226.51 -44.6499 224.762 -45.5774 223.276C-47.0822 220.864 -48.7205 218.56 -49.9961 216.022C-51.0391 213.946 -68.5059 193.625 -73.8164 192.755" stroke="white" stroke-width="1.5" stroke-linecap="round" stroke-linejoin="round"/>
<path d="M98.498 283.241C99.4047 279.558 101.104 275.867 103.058 272.61C103.537 271.812 106.205 268.482 106.997 270.319C107.859 272.321 107.955 275.335 107.365 277.421C106.667 279.891 102.641 279.839 100.571 280.354" stroke="white" stroke-width="1.5" stroke-linecap="round" stroke-linejoin="round"/>
</g>
<defs>
<clipPath id="clip0">
<rect width="470" height="523" fill="white"/>
</clipPath>
</defs>
</svg>
