<svg width="86" height="86" viewBox="0 0 86 86" fill="none" xmlns="http://www.w3.org/2000/svg">
<mask id="mask0" mask-type="alpha" maskUnits="userSpaceOnUse" x="0" y="0" width="86" height="86">
<rect width="86" height="86" fill="#C4C4C4"/>
</mask>
<g mask="url(#mask0)">
<path d="M47.7966 22.7459C44.8532 26.2233 45.286 31.4283 48.7634 34.3718C52.2407 37.3152 57.4458 36.8824 60.3892 33.405C63.3326 29.9277 62.8998 24.7226 59.4225 21.7792C55.9451 18.8358 50.7401 19.2686 47.7966 22.7459Z" stroke="#1D1D1B" stroke-width="1.5" stroke-miterlimit="10" stroke-linecap="round" stroke-linejoin="round"/>
<path d="M15.7156 20.6932C14.2159 24.9951 16.4875 29.6983 20.7894 31.1981C25.0913 32.6978 29.7945 30.4262 31.2942 26.1243C32.794 21.8224 30.5224 17.1192 26.2205 15.6194C21.9185 14.1197 17.2154 16.3913 15.7156 20.6932Z" fill="#1436E5"/>
<path d="M57.551 19.9808C55.5636 22.3287 55.8558 25.8433 58.2038 27.8307C60.5517 29.8182 64.0663 29.526 66.0537 27.178C68.0412 24.83 67.7489 21.3155 65.401 19.328C63.053 17.3406 59.5385 17.6328 57.551 19.9808Z" fill="#1436E5"/>
<path d="M23.8833 19.0274C21.2815 26.4907 25.2224 34.65 32.6856 37.2518C40.1489 39.8537 48.3082 35.9128 50.91 28.4495C53.5119 20.9863 49.571 12.8269 42.1077 10.2251C34.6445 7.62327 26.4851 11.5642 23.8833 19.0274Z" fill="white" stroke="#1D1D1B" stroke-width="1.5" stroke-miterlimit="10" stroke-linecap="round" stroke-linejoin="round"/>
<rect x="9" y="24.5139" width="64" height="52" rx="3" fill="white" stroke="black" stroke-width="1.5"/>
<rect x="44.5469" y="41.514" width="32.3704" height="18.7957" rx="3" fill="white" stroke="black" stroke-width="1.5"/>
<circle cx="54.4665" cy="50.213" r="4.69893" fill="black" stroke="black" stroke-width="1.5"/>
</g>
</svg>
