<svg width="132" height="27" viewBox="0 0 132 27" fill="none" xmlns="http://www.w3.org/2000/svg">
<path d="M9.5 21C13.6421 21 17 17.6421 17 13.5C17 9.35786 13.6421 6 9.5 6C5.35786 6 2 9.35786 2 13.5C2 17.6421 5.35786 21 9.5 21Z" fill="white"/>
<path d="M4.5507 22.1014C7.06398 22.1014 9.1014 20.064 9.1014 17.5507C9.1014 15.0374 7.06398 13 4.5507 13C2.03742 13 0 15.0374 0 17.5507C0 20.064 2.03742 22.1014 4.5507 22.1014Z" fill="#D9DBE4"/>
<path d="M31.5664 15.542C31.4391 16.6725 31.0535 17.6758 30.4097 18.5518C29.7658 19.4202 28.9272 20.0903 27.894 20.562C26.8608 21.0262 25.7453 21.2471 24.5474 21.2246C23.4692 21.2021 22.5296 20.9551 21.7285 20.4834C20.9274 20.0042 20.2948 19.3154 19.8306 18.417C19.3739 17.5111 19.1156 16.4704 19.0557 15.2949C19.0033 14.374 19.0968 13.2285 19.3364 11.8584C19.5835 10.4883 20.0177 9.27165 20.6392 8.2085C21.2681 7.14535 22.013 6.30306 22.874 5.68164C24.0869 4.81315 25.472 4.39388 27.0293 4.42383C28.7214 4.45378 30.0615 4.97786 31.0498 5.99609C32.0456 7.00684 32.5921 8.41439 32.6895 10.2188L29.4102 10.2075C29.4102 9.17432 29.2043 8.41813 28.7925 7.93896C28.3807 7.4598 27.7406 7.20524 26.8721 7.17529C25.749 7.13786 24.8244 7.53841 24.0981 8.37695C23.3794 9.21549 22.8965 10.4396 22.6494 12.0493C22.4098 13.6141 22.305 14.7858 22.335 15.5645C22.3724 16.5527 22.5933 17.2827 22.9976 17.7544C23.4019 18.2186 23.9671 18.4619 24.6934 18.4844C25.6966 18.5218 26.4977 18.286 27.0967 17.7769C27.7031 17.2603 28.1037 16.5228 28.2983 15.5645L31.5664 15.542ZM39.6973 8.62402C40.7679 8.639 41.6888 8.91602 42.46 9.45508C43.2386 9.98665 43.8076 10.7241 44.167 11.6675C44.5339 12.6034 44.6649 13.644 44.5601 14.7896C44.3879 16.7212 43.714 18.286 42.5386 19.4839C41.3706 20.6743 39.9256 21.2546 38.2036 21.2246C37.1479 21.2096 36.2345 20.9401 35.4634 20.416C34.6922 19.8844 34.1232 19.1507 33.7563 18.2148C33.3895 17.279 33.2585 16.2458 33.3633 15.1152C33.5579 13.1087 34.2393 11.514 35.4072 10.3311C36.5752 9.14811 38.0052 8.5791 39.6973 8.62402ZM36.4966 16.272C36.5116 16.9907 36.68 17.5597 37.002 17.979C37.3239 18.3908 37.7769 18.6042 38.3608 18.6191C39.3341 18.6491 40.0978 18.2036 40.6519 17.2827C41.2059 16.3543 41.4642 15.1377 41.4268 13.6328C41.3968 12.9141 41.2209 12.3413 40.8989 11.9146C40.5845 11.4803 40.1315 11.2557 39.54 11.2407C38.5967 11.2108 37.8405 11.6562 37.2715 12.5771C36.71 13.4906 36.4517 14.7222 36.4966 16.272ZM48.8276 21H45.6382L47.7495 8.84863H50.939L48.8276 21ZM48.1201 5.76025C48.1051 5.25863 48.2699 4.8431 48.6143 4.51367C48.9587 4.18424 49.3742 4.01953 49.8608 4.01953C50.34 4.00456 50.7555 4.15055 51.1074 4.45752C51.4593 4.76449 51.6427 5.1613 51.6577 5.64795C51.6727 6.11214 51.5155 6.51644 51.186 6.86084C50.8641 7.20524 50.4411 7.38493 49.917 7.3999C49.4453 7.41488 49.0298 7.27262 48.6704 6.97314C48.3185 6.67367 48.1351 6.26937 48.1201 5.76025ZM56.5317 8.8374L56.2622 10.2749C57.2355 9.14437 58.4147 8.59408 59.7998 8.62402C60.9453 8.64648 61.7913 9.06576 62.3379 9.88184C62.8844 10.6979 63.0828 11.8285 62.9331 13.2734L61.6528 21H58.4858L59.7886 13.2397C59.826 12.9478 59.8335 12.682 59.811 12.4424C59.7137 11.6787 59.2345 11.2856 58.3735 11.2632C57.5425 11.2332 56.7975 11.6188 56.1387 12.4199L54.6226 21H51.4556L53.5669 8.84863L56.5317 8.8374ZM72.0186 10.7017L71.064 10.6006C69.7612 10.6006 68.7355 11.1883 67.9868 12.3638L66.4932 21H64.4604L66.5718 8.84863L68.5371 8.8374L68.2339 10.2524C69.0949 9.12191 70.1094 8.57161 71.2773 8.60156C71.5244 8.60156 71.8464 8.65771 72.2432 8.77002L72.0186 10.7017ZM77.1509 21.2246C75.6385 21.1947 74.4556 20.6369 73.6021 19.5513C72.7485 18.4657 72.3892 17.0768 72.5239 15.3848L72.5801 14.9019C72.7074 13.6965 73.063 12.5959 73.647 11.6001C74.2384 10.6043 74.9572 9.85563 75.8032 9.354C76.6493 8.84489 77.5627 8.60156 78.5435 8.62402C79.7938 8.65397 80.7746 9.0695 81.4858 9.87061C82.1971 10.6717 82.5864 11.7573 82.6538 13.1274C82.6763 13.6141 82.6613 14.1007 82.6089 14.5874L82.4854 15.5195H74.5454C74.4106 16.6201 74.5903 17.556 75.0845 18.3271C75.5861 19.0983 76.3311 19.4989 77.3193 19.5288C78.5173 19.5588 79.6253 19.0197 80.6436 17.9116L81.8115 18.8999C81.3024 19.6336 80.6436 20.2101 79.835 20.6294C79.0339 21.0412 78.1392 21.2396 77.1509 21.2246ZM78.4424 10.3198C77.6038 10.2974 76.8701 10.5819 76.2412 11.1733C75.6198 11.7648 75.1257 12.6445 74.7588 13.8125L80.666 13.8237L80.7109 13.644C80.8307 12.7007 80.6772 11.9183 80.2505 11.2969C79.8312 10.668 79.2285 10.3423 78.4424 10.3198ZM87.8311 8.8374L87.5728 10.1963C88.591 9.11816 89.8226 8.59408 91.2676 8.62402C92.0387 8.639 92.6901 8.81494 93.2217 9.15186C93.7607 9.48877 94.1313 9.96419 94.3335 10.5781C95.4715 9.24544 96.8154 8.59408 98.3652 8.62402C99.5781 8.65397 100.473 9.06201 101.049 9.84814C101.626 10.6343 101.839 11.6899 101.689 13.0151L100.353 21H98.3315L99.6567 12.9927C99.7017 12.6034 99.7017 12.2477 99.6567 11.9258C99.5145 10.9076 98.8481 10.3872 97.6577 10.3647C96.9165 10.3498 96.2427 10.5819 95.6362 11.061C95.0373 11.5327 94.6517 12.1541 94.4795 12.9253L93.0981 21H91.0542L92.4019 13.0039C92.4992 12.1729 92.3719 11.5327 92.02 11.0835C91.6756 10.6343 91.1366 10.4022 90.4028 10.3872C89.1375 10.3573 88.1305 10.9338 87.3818 12.1167L85.8433 21H83.8105L85.9219 8.84863L87.8311 8.8374ZM105.699 21H103.677L105.789 8.84863H107.81L105.699 21ZM107.372 4.4126C107.716 4.39762 108.001 4.50244 108.226 4.72705C108.458 4.94417 108.574 5.23242 108.574 5.5918C108.566 5.94368 108.45 6.23193 108.226 6.45654C108.008 6.68115 107.724 6.80094 107.372 6.81592C107.02 6.83089 106.732 6.72982 106.507 6.5127C106.283 6.29557 106.174 6.01107 106.182 5.65918C106.189 5.30729 106.301 5.0153 106.519 4.7832C106.736 4.55111 107.02 4.42757 107.372 4.4126ZM114.391 5.90625L113.875 8.84863H116.087L115.806 10.4546H113.605L112.336 18.0127C112.313 18.2074 112.31 18.387 112.325 18.5518C112.377 19.1357 112.695 19.4277 113.279 19.4277C113.526 19.4277 113.856 19.3903 114.268 19.3154L114.11 21.0112C113.624 21.146 113.13 21.2134 112.628 21.2134C111.819 21.1984 111.213 20.9027 110.809 20.3262C110.404 19.7422 110.247 18.9598 110.337 17.979L111.572 10.4546H109.427L109.708 8.84863H111.853L112.37 5.90625H114.391ZM123.959 17.7095C124.072 16.8709 123.611 16.2795 122.578 15.9351L120.467 15.3174C118.685 14.7035 117.824 13.6852 117.884 12.2627C117.936 11.1921 118.423 10.3161 119.344 9.63477C120.272 8.94596 121.361 8.60905 122.612 8.62402C123.84 8.639 124.835 8.99837 125.599 9.70215C126.37 10.3984 126.741 11.3081 126.711 12.4312L124.689 12.4199C124.704 11.8135 124.514 11.3193 124.117 10.9375C123.72 10.5557 123.192 10.3573 122.533 10.3423C121.829 10.3273 121.223 10.4995 120.714 10.8589C120.242 11.1958 119.969 11.6375 119.894 12.1841C119.797 12.8879 120.227 13.4007 121.186 13.7227L122.208 14.0034C123.6 14.3628 124.588 14.8307 125.172 15.4072C125.756 15.9837 126.026 16.6987 125.981 17.5522C125.936 18.3084 125.689 18.9673 125.24 19.5288C124.791 20.0903 124.192 20.5208 123.443 20.8203C122.694 21.1123 121.897 21.2471 121.051 21.2246C119.763 21.2096 118.7 20.8353 117.861 20.1016C117.023 19.3604 116.618 18.4095 116.648 17.249L118.681 17.2603C118.681 17.9416 118.898 18.4881 119.333 18.8999C119.767 19.3117 120.362 19.5176 121.118 19.5176C121.859 19.5326 122.5 19.3791 123.039 19.0571C123.578 18.7277 123.885 18.2785 123.959 17.7095Z" fill="white"/>
<path d="M9.40576 17.4141C9.98193 17.4336 10.4897 17.2749 10.9292 16.938C11.3735 16.5962 11.6689 16.1372 11.8154 15.561H12.6431C12.4966 16.3472 12.1108 16.9819 11.4858 17.4653C10.8657 17.9438 10.1577 18.1733 9.36182 18.1538C8.72217 18.1392 8.18506 17.9634 7.75049 17.6265C7.31592 17.2896 7.00098 16.8232 6.80566 16.2275C6.61523 15.6318 6.5542 14.9604 6.62256 14.2134L6.65186 13.8984C6.71045 13.3857 6.83496 12.8877 7.02539 12.4043C7.2207 11.9209 7.47949 11.4937 7.80176 11.1226C8.12402 10.7466 8.50732 10.4512 8.95166 10.2363C9.40088 10.0166 9.90625 9.91406 10.4678 9.92871C11.2783 9.94824 11.9229 10.2217 12.4014 10.749C12.8799 11.2764 13.1045 11.9453 13.0752 12.7559L12.2476 12.7485C12.2573 12.1382 12.0986 11.645 11.7715 11.269C11.4443 10.8931 10.9976 10.6953 10.4312 10.6758C9.82568 10.6562 9.29102 10.832 8.82715 11.2031C8.36328 11.5742 8.01416 12.0991 7.77979 12.7778C7.54541 13.4565 7.43555 14.1768 7.4502 14.9385C7.46484 15.7246 7.64062 16.3301 7.97754 16.7549C8.31445 17.1748 8.79053 17.3945 9.40576 17.4141Z" fill="#1436E5"/>
</svg>
