<svg width="16" height="16" viewBox="0 0 16 16" fill="none" xmlns="http://www.w3.org/2000/svg">
<path fill-rule="evenodd" clip-rule="evenodd" d="M13.1431 4.98865C12.7582 5.15956 12.3499 5.27185 11.9317 5.32179C12.3721 5.05794 12.7017 4.64306 12.8591 4.15436C12.4447 4.40019 11.9913 4.57335 11.5186 4.66636C11.201 4.32648 10.78 4.10105 10.3211 4.02513C9.86214 3.9492 9.39099 4.02704 8.98087 4.24654C8.57074 4.46604 8.24464 4.81489 8.05325 5.23886C7.86186 5.66283 7.81592 6.13816 7.92256 6.59093C7.08369 6.5488 6.26305 6.33077 5.5139 5.95097C4.76474 5.57117 4.10381 5.03811 3.57399 4.38636C3.39114 4.69779 3.28828 5.06065 3.28828 5.44693C3.28828 6.17836 3.65971 6.82407 4.22656 7.20293C3.89142 7.19235 3.56365 7.10183 3.27056 6.93893V6.96579C3.27088 7.45288 3.43955 7.92489 3.74801 8.30187C4.05646 8.67885 4.48575 8.93763 4.96314 9.03436C4.65244 9.11836 4.32672 9.13067 4.01056 9.07036C4.14545 9.48959 4.40799 9.85619 4.76146 10.1189C5.11494 10.3816 5.54167 10.5272 5.98199 10.5355C5.54423 10.8795 5.04292 11.1338 4.50677 11.2838C3.97062 11.4338 3.41014 11.4766 2.85742 11.4098C3.82223 12.0295 4.94502 12.3584 6.09171 12.3572C9.97399 12.3572 12.0963 9.14236 12.0963 6.35436C12.0963 6.26293 12.0946 6.1715 12.0906 6.08122C12.5034 5.78279 12.8599 5.41321 13.1431 4.98979V4.98865Z" fill="#151828"/>
</svg>
