<svg width="172" height="36" viewBox="0 0 172 36" fill="none" xmlns="http://www.w3.org/2000/svg">
<path d="M42.7042 6.25673C44.8815 6.25673 46.5586 6.78635 47.7356 7.84558C48.9321 8.90481 49.5304 10.3563 49.5304 12.2002C49.5304 14.3775 48.8831 16.0448 47.5884 17.2021C46.2938 18.3594 44.45 18.9381 42.0569 18.9381H36.7019L36.084 27H32.2884L33.9361 6.25673H42.7042ZM41.7333 16.0252C44.5383 16.0252 45.9408 14.809 45.9408 12.3767C45.9408 10.2583 44.7148 9.19904 42.2629 9.19904H37.4669L36.9373 16.0252H41.7333ZM58.2826 12.259C60.1657 12.259 61.5682 12.7004 62.4901 13.5831C63.412 14.4462 63.873 15.7604 63.873 17.5258C63.873 17.9181 63.8632 18.2221 63.8435 18.4379L63.1668 27H59.6655L59.842 24.9404C59.4301 25.6858 58.871 26.2546 58.1649 26.6469C57.4587 27.0392 56.6643 27.2354 55.7816 27.2354C54.8205 27.2354 53.9574 27.0588 53.1924 26.7058C52.447 26.3331 51.8585 25.8329 51.427 25.2052C51.0151 24.5579 50.8091 23.8321 50.8091 23.0279C50.8091 21.9294 51.0837 21.0565 51.633 20.4092C52.2018 19.7423 53.1041 19.2617 54.3399 18.9675C55.5757 18.6537 57.2234 18.4967 59.283 18.4967H60.3422L60.3716 17.9377C60.4501 16.9569 60.2735 16.2312 59.842 15.7604C59.4105 15.2896 58.6847 15.0542 57.6647 15.0542C56.9389 15.0542 56.1543 15.1915 55.3109 15.4662C54.487 15.7212 53.6828 16.084 52.8982 16.5548L52.0743 14.0244C52.8393 13.4948 53.7907 13.0731 54.9284 12.7592C56.066 12.4258 57.1841 12.259 58.2826 12.259ZM56.7232 24.5873C57.6451 24.5873 58.4199 24.2637 59.0476 23.6163C59.6949 22.969 60.0578 22.1256 60.1362 21.086L60.1951 20.4387H59.3712C58.0766 20.4387 57.0664 20.5171 56.3407 20.674C55.6345 20.8113 55.1343 21.0369 54.8401 21.3508C54.5459 21.6646 54.3987 22.0962 54.3987 22.6454C54.3987 23.2338 54.6047 23.7046 55.0166 24.0577C55.4482 24.4108 56.017 24.5873 56.7232 24.5873ZM81.7339 12.6415L71.5535 32.2962H67.8462L70.9062 26.441L66.022 12.6415H69.7587L73.113 22.7337L78.056 12.6415H81.7339ZM100.458 12.259C101.968 12.259 103.106 12.6906 103.871 13.5537C104.655 14.4167 105.048 15.6917 105.048 17.3787C105.048 17.7513 105.038 18.0456 105.018 18.2613L104.342 27H100.664L101.34 18.379C101.36 18.2417 101.37 18.0456 101.37 17.7906C101.37 16.0448 100.615 15.1719 99.1043 15.1719C98.1236 15.1719 97.3488 15.4956 96.7799 16.1429C96.2307 16.7902 95.9168 17.7513 95.8384 19.0263L95.1911 27H91.5132L92.2193 18.4085C92.2978 17.31 92.1507 16.496 91.778 15.9663C91.4249 15.4367 90.8267 15.1719 89.9832 15.1719C87.9824 15.1719 86.884 16.4567 86.6878 19.0263L86.0699 27H82.392L83.5101 12.6415H87.0997L86.9526 14.4069C88.0118 12.975 89.483 12.259 91.3661 12.259C92.4057 12.259 93.2786 12.4748 93.9847 12.9063C94.6909 13.3379 95.2107 13.9656 95.5442 14.7894C96.0934 13.9656 96.7897 13.3379 97.6332 12.9063C98.4767 12.4748 99.4182 12.259 100.458 12.259ZM115.082 12.259C117.005 12.259 118.525 12.8377 119.643 13.995C120.761 15.1327 121.32 16.8 121.32 18.9969C121.32 19.4481 121.291 19.9385 121.232 20.4681H111.405C111.463 21.7627 111.826 22.7435 112.493 23.4104C113.16 24.0773 114.121 24.4108 115.377 24.4108C116.985 24.4108 118.446 23.9106 119.761 22.9102L120.614 25.4112C120.006 25.9604 119.202 26.4017 118.201 26.7352C117.201 27.0687 116.181 27.2354 115.141 27.2354C113.67 27.2354 112.385 26.951 111.287 26.3821C110.188 25.7937 109.335 24.9698 108.727 23.9106C108.139 22.8513 107.844 21.6156 107.844 20.2033C107.844 18.6537 108.148 17.2806 108.756 16.084C109.384 14.8679 110.247 13.9263 111.346 13.2594C112.444 12.5925 113.69 12.259 115.082 12.259ZM115.23 14.8483C114.21 14.8483 113.386 15.1523 112.758 15.7604C112.13 16.3685 111.718 17.2806 111.522 18.4967H118.231C118.25 17.2806 117.986 16.3685 117.436 15.7604C116.907 15.1523 116.171 14.8483 115.23 14.8483ZM133.008 12.259C134.617 12.259 135.833 12.7004 136.657 13.5831C137.5 14.4462 137.922 15.731 137.922 17.4375C137.922 17.8102 137.912 18.0946 137.893 18.2908L137.187 27H133.509L134.215 18.4379C134.372 16.2606 133.509 15.1719 131.626 15.1719C130.547 15.1719 129.703 15.4956 129.095 16.1429C128.487 16.7902 128.134 17.6925 128.036 18.8498L127.389 27H123.711L124.829 12.6121H128.418L128.271 14.4952C128.762 13.789 129.419 13.2398 130.243 12.8475C131.067 12.4552 131.988 12.259 133.008 12.259ZM146.042 21.5273C146.022 21.645 146.012 21.8117 146.012 22.0275C146.012 23.6556 146.846 24.4696 148.513 24.4696C148.984 24.4696 149.425 24.4304 149.837 24.3519L149.455 27.0883C148.906 27.1667 148.386 27.206 147.895 27.206C146.071 27.206 144.688 26.794 143.747 25.9702C142.805 25.1463 142.334 23.9302 142.334 22.3217C142.334 21.9883 142.344 21.7333 142.364 21.5567L142.835 15.3779H140.098L140.304 12.6121H143.07L143.394 8.31634H147.072L146.748 12.6121H150.543L150.308 15.3779H146.513L146.042 21.5273ZM162.582 16.496L169.673 27H165.347L160.287 19.2912L154.049 27H149.577L158.345 16.4077L151.489 6.25673H155.814L160.64 13.5831L166.554 6.25673H171.055L162.582 16.496Z" fill="#151828"/>
<circle cx="5.64685" cy="23.7762" r="5.64685" fill="#D9DBE4"/>
<circle cx="11.5902" cy="17.535" r="5.64685" fill="#50EFF5"/>
<circle cx="17.5355" cy="11.2938" r="5.64685" fill="#1436E5"/>
</svg>
