<svg width="431" height="294" viewBox="0 0 431 294" fill="none" xmlns="http://www.w3.org/2000/svg">
<g filter="url(#filter0_d)">
<rect x="50.2559" y="145.394" width="322" height="84" rx="10" transform="rotate(-21 50.2559 145.394)" fill="white"/>
</g>
<path opacity="0.7" d="M134.793 158.103C135.469 158.049 136.058 158.183 136.558 158.505C137.065 158.813 137.443 159.291 137.691 159.938C138.031 160.825 137.972 161.653 137.514 162.423C137.065 163.189 136.269 163.792 135.123 164.232L130.119 166.153L126.077 155.622L130.932 153.758C132.027 153.338 132.987 153.249 133.812 153.493C134.646 153.732 135.226 154.275 135.551 155.121C135.761 155.669 135.797 156.21 135.659 156.742C135.527 157.262 135.238 157.715 134.793 158.103ZM129.993 159.037L132.189 158.194C132.786 157.965 133.186 157.697 133.389 157.391C133.597 157.071 133.621 156.702 133.461 156.284C133.292 155.846 133.026 155.582 132.66 155.494C132.301 155.392 131.823 155.456 131.226 155.685L129.03 156.528L129.993 159.037ZM134.172 162.557C134.79 162.32 135.198 162.044 135.396 161.728C135.595 161.412 135.604 161.02 135.424 160.551C135.245 160.083 134.973 159.793 134.611 159.681C134.248 159.569 133.757 159.632 133.14 159.869L130.675 160.815L131.707 163.504L134.172 162.557ZM140.886 152.114L137.585 153.381L136.857 151.484L145.79 148.055L146.518 149.952L143.217 151.219L146.531 159.853L144.201 160.747L140.886 152.114ZM156.949 156.008C155.884 156.417 154.867 156.55 153.898 156.408C152.939 156.262 152.089 155.863 151.347 155.21C150.616 154.554 150.043 153.689 149.631 152.613C149.218 151.538 149.064 150.511 149.169 149.534C149.283 148.553 149.65 147.693 150.268 146.953C150.893 146.199 151.738 145.617 152.804 145.208C153.501 144.941 154.21 144.794 154.931 144.768C155.649 144.733 156.285 144.826 156.838 145.048L156.728 146.992C156.136 146.82 155.58 146.742 155.061 146.758C154.552 146.771 154.053 146.871 153.565 147.058C152.629 147.417 152.022 147.993 151.743 148.786C151.475 149.574 151.562 150.546 152.006 151.701C152.449 152.857 153.036 153.642 153.767 154.059C154.505 154.461 155.341 154.483 156.277 154.124C156.765 153.936 157.203 153.677 157.59 153.346C157.987 153.01 158.347 152.581 158.672 152.056L160.055 153.428C159.792 153.963 159.384 154.462 158.83 154.926C158.273 155.38 157.646 155.74 156.949 156.008ZM175.914 146.432L176.63 148.299L169.759 150.936L169.042 149.069L171.313 148.198L168.979 142.118L167.588 143.852L166.065 142.517L168.659 139.276L170.317 138.64L173.643 147.303L175.914 146.432ZM183.192 139.559C183.868 139.505 184.456 139.639 184.957 139.961C185.454 140.273 185.825 140.748 186.069 141.385C186.429 142.321 186.351 143.191 185.837 143.994C185.322 144.797 184.433 145.441 183.168 145.926C181.903 146.412 180.811 146.528 179.892 146.276C178.972 146.023 178.333 145.429 177.973 144.493C177.721 143.835 177.675 143.225 177.835 142.66C177.996 142.096 178.352 141.611 178.905 141.204C178.31 141.204 177.789 141.05 177.339 140.743C176.89 140.435 176.558 140.003 176.344 139.445C176.008 138.569 176.081 137.747 176.563 136.979C177.041 136.201 177.863 135.589 179.028 135.142C180.203 134.69 181.222 134.591 182.084 134.843C182.956 135.091 183.562 135.658 183.903 136.544C184.12 137.112 184.167 137.665 184.043 138.204C183.918 138.743 183.635 139.195 183.192 139.559ZM179.711 136.919C178.645 137.328 178.282 137.976 178.623 138.862C178.967 139.758 179.671 140.002 180.737 139.593C181.802 139.184 182.163 138.531 181.819 137.635C181.479 136.749 180.776 136.51 179.711 136.919ZM182.486 144.149C183.74 143.667 184.19 142.963 183.835 142.037C183.479 141.111 182.674 140.889 181.419 141.37C180.165 141.852 179.715 142.556 180.07 143.482C180.426 144.408 181.231 144.63 182.486 144.149ZM191.6 134.737C192.247 134.489 192.88 134.412 193.499 134.505C194.114 134.589 194.658 134.832 195.132 135.232C195.606 135.633 195.971 136.167 196.227 136.835C196.498 137.542 196.568 138.229 196.436 138.897C196.314 139.561 196.001 140.16 195.498 140.696C195.002 141.218 194.345 141.636 193.529 141.949C192.862 142.205 192.159 142.355 191.422 142.398C190.68 142.431 190.037 142.347 189.491 142.145L189.586 140.206C190.812 140.513 191.903 140.482 192.859 140.115C193.467 139.882 193.871 139.567 194.073 139.17C194.284 138.768 194.285 138.294 194.075 137.746C193.876 137.229 193.555 136.883 193.112 136.711C192.678 136.534 192.183 136.553 191.625 136.767C191.277 136.901 190.953 137.099 190.654 137.363C190.365 137.622 190.125 137.92 189.934 138.256L188.605 138.766L186.214 132.537L192.996 129.934L193.678 131.712L189.167 133.443L190.067 135.789C190.442 135.336 190.953 134.986 191.6 134.737ZM201.776 135.904L202.693 138.294L200.273 139.223L199.356 136.833L201.776 135.904ZM212.429 132.415L213.146 134.282L205.901 137.063L205.242 135.345L207.324 130.278C207.763 129.218 207.856 128.36 207.604 127.703C207.283 126.866 206.644 126.632 205.689 126.999C205.25 127.167 204.827 127.432 204.417 127.795C204.004 128.148 203.632 128.576 203.3 129.081L201.932 127.704C202.212 127.185 202.641 126.694 203.218 126.233C203.791 125.762 204.421 125.394 205.108 125.13C206.204 124.71 207.177 124.639 208.026 124.919C208.886 125.194 209.486 125.775 209.826 126.661C210.06 127.269 210.146 127.881 210.086 128.498C210.036 129.112 209.834 129.852 209.481 130.718L208.082 134.083L212.429 132.415ZM222.894 128.398L223.611 130.265L216.366 133.046L215.707 131.328L217.789 126.261C218.228 125.201 218.321 124.343 218.069 123.686C217.748 122.849 217.109 122.614 216.153 122.981C215.715 123.15 215.292 123.415 214.882 123.778C214.469 124.131 214.097 124.559 213.765 125.064L212.397 123.687C212.677 123.168 213.106 122.677 213.683 122.216C214.256 121.745 214.886 121.377 215.573 121.113C216.669 120.693 217.641 120.622 218.491 120.901C219.351 121.177 219.951 121.758 220.291 122.644C220.525 123.252 220.611 123.864 220.551 124.481C220.501 125.094 220.299 125.835 219.946 126.701L218.547 130.066L222.894 128.398ZM241.698 123.322L239.159 124.296L236.046 121.635C235.797 121.433 235.548 121.318 235.296 121.289C235.041 121.25 234.755 121.291 234.436 121.413L233.286 121.855L234.857 125.948L232.556 126.831L228.514 116.3L233.354 114.442C234.589 113.968 235.625 113.885 236.462 114.191C237.306 114.485 237.925 115.144 238.319 116.17C238.624 116.966 238.656 117.72 238.415 118.429C238.183 119.135 237.696 119.728 236.955 120.207C237.556 120.136 238.17 120.351 238.797 120.853L241.698 123.322ZM234.805 119.249C235.472 118.993 235.911 118.693 236.122 118.35C236.329 117.996 236.337 117.57 236.146 117.072C235.951 116.564 235.66 116.253 235.273 116.139C234.887 116.025 234.36 116.095 233.693 116.352L231.467 117.206L232.579 120.104L234.805 119.249ZM240.481 111.706L247.741 108.919L248.435 110.727L243.446 112.642L244.392 115.107L249.082 113.306L249.776 115.114L245.086 116.914L246.1 119.558L251.09 117.643L251.783 119.45L244.524 122.237L240.481 111.706ZM259.868 116.501C258.802 116.91 257.785 117.044 256.816 116.901C255.858 116.755 255.008 116.356 254.266 115.704C253.534 115.048 252.962 114.182 252.549 113.106C252.136 112.031 251.982 111.005 252.087 110.028C252.202 109.047 252.568 108.186 253.187 107.446C253.812 106.692 254.657 106.111 255.722 105.701C256.419 105.434 257.129 105.287 257.85 105.262C258.568 105.226 259.203 105.319 259.757 105.541L259.646 107.486C259.054 107.313 258.499 107.235 257.98 107.251C257.47 107.264 256.972 107.364 256.484 107.551C255.548 107.911 254.94 108.487 254.662 109.279C254.393 110.068 254.481 111.04 254.924 112.195C255.368 113.35 255.955 114.136 256.686 114.552C257.423 114.955 258.26 114.976 259.196 114.617C259.684 114.429 260.121 114.17 260.508 113.839C260.905 113.504 261.266 113.074 261.59 112.549L262.973 113.921C262.71 114.456 262.302 114.955 261.749 115.419C261.192 115.873 260.565 116.234 259.868 116.501ZM262.447 103.274L269.706 100.488L270.4 102.295L265.411 104.21L266.357 106.675L271.047 104.874L271.741 106.682L267.051 108.482L268.066 111.126L273.055 109.211L273.749 111.019L266.489 113.805L262.447 103.274ZM272.795 99.3021L275.125 98.4076L279.168 108.938L276.837 109.833L272.795 99.3021ZM288.776 93.1674L288.084 105.516L286.216 106.233L277.424 97.5252L279.844 96.5963L286.06 102.968L286.416 94.0734L288.776 93.1674ZM291.07 92.2871L298.329 89.5004L299.023 91.3078L294.034 93.2229L294.98 95.6876L299.67 93.8871L300.364 95.6946L295.674 97.495L296.689 100.139L301.678 98.2238L302.372 100.031L295.112 102.818L291.07 92.2871ZM301.418 88.3148L305.511 86.7437C306.656 86.3041 307.722 86.1348 308.709 86.2358C309.696 86.3367 310.56 86.6965 311.3 87.315C312.04 87.9335 312.62 88.7904 313.041 89.8858C313.461 90.9812 313.605 92.0113 313.473 92.9762C313.347 93.9273 312.951 94.7706 312.285 95.5061C311.619 96.2416 310.708 96.8311 309.553 97.2745L305.46 98.8456L301.418 88.3148ZM308.666 95.4555C310.907 94.5954 311.593 93.0351 310.726 90.7746C309.862 88.524 308.31 87.8288 306.069 88.6889L304.471 89.3024L307.068 96.069L308.666 95.4555Z" fill="#151828"/>
<g clip-path="url(#clip0)">
<path d="M112.002 162.824C111.571 163.096 111.506 163.764 111.778 164.195C112.252 164.87 112.632 165.581 112.918 166.328C114.71 170.996 112.409 176.164 107.741 177.956C103.074 179.747 97.9057 177.447 96.1139 172.779C94.3221 168.111 96.6229 162.943 101.291 161.151C102.878 160.542 104.551 160.435 106.145 160.681C106.719 160.781 107.207 160.38 107.344 159.899C107.445 159.324 107.043 158.836 106.562 158.699C104.523 158.411 102.441 158.567 100.574 159.284C94.8792 161.47 92.0607 167.801 94.2467 173.495C96.4328 179.19 102.763 182.009 108.458 179.823C114.153 177.637 116.972 171.306 114.786 165.611C114.427 164.678 113.975 163.78 113.373 163.047C113.1 162.616 112.433 162.551 112.002 162.824Z" fill="#50EFF5"/>
<path d="M111.962 156.305C111.445 156.075 110.885 156.29 110.655 156.807L104.73 170.114L100.467 168.215C99.9501 167.985 99.3899 168.2 99.1598 168.717C98.9297 169.234 99.1448 169.794 99.6615 170.024L104.829 172.325C105.088 172.44 105.404 172.426 105.59 172.354C105.777 172.282 106.021 172.082 106.136 171.823L112.464 157.612C112.694 157.095 112.479 156.535 111.962 156.305Z" fill="#50EFF5"/>
</g>
<defs>
<filter id="filter0_d" x="0.255859" y="0" width="430.716" height="293.815" filterUnits="userSpaceOnUse" color-interpolation-filters="sRGB">
<feFlood flood-opacity="0" result="BackgroundImageFix"/>
<feColorMatrix in="SourceAlpha" type="matrix" values="0 0 0 0 0 0 0 0 0 0 0 0 0 0 0 0 0 0 127 0"/>
<feOffset dy="20"/>
<feGaussianBlur stdDeviation="25"/>
<feColorMatrix type="matrix" values="0 0 0 0 0 0 0 0 0 0 0 0 0 0 0 0 0 0 0.15 0"/>
<feBlend mode="normal" in2="BackgroundImageFix" result="effect1_dropShadow"/>
<feBlend mode="normal" in="SourceGraphic" in2="effect1_dropShadow" result="shape"/>
</filter>
<clipPath id="clip0">
<rect width="24" height="24" fill="white" transform="translate(89.9473 162.292) rotate(-21)"/>
</clipPath>
</defs>
</svg>
