<svg width="16" height="16" viewBox="0 0 16 16" fill="none" xmlns="http://www.w3.org/2000/svg">
<path fill-rule="evenodd" clip-rule="evenodd" d="M12.6126 4.05943L3.16398 7.70343C2.51931 7.96209 2.52264 8.32209 3.04664 8.48209L5.40264 9.21809L6.30464 11.9821C6.41398 12.2848 6.35998 12.4048 6.67798 12.4048C6.92331 12.4048 7.03131 12.2928 7.16864 12.1594C7.25531 12.0748 7.77064 11.5728 8.34664 11.0134L10.798 12.8248C11.2486 13.0734 11.5746 12.9448 11.6866 12.4061L13.296 4.82343C13.4606 4.16343 13.044 3.86343 12.6126 4.05943ZM5.77264 9.04876L11.084 5.69809C11.3493 5.53676 11.5926 5.62343 11.3926 5.80076L6.84464 9.90409L6.66798 11.7928L5.77264 9.04876Z" fill="#151828"/>
</svg>
