<svg width="138" height="29" viewBox="0 0 138 29" fill="none" xmlns="http://www.w3.org/2000/svg">
<path d="M34.4154 5.28337C36.17 5.28337 37.5216 5.71017 38.47 6.56379C39.4343 7.4174 39.9164 8.58717 39.9164 10.0731C39.9164 11.8278 39.3948 13.1714 38.3515 14.1041C37.3082 15.0367 35.8222 15.503 33.8937 15.503H29.5782L29.0803 22H26.0215L27.3493 5.28337H34.4154ZM33.6329 13.1556C35.8934 13.1556 37.0236 12.1755 37.0236 10.2154C37.0236 8.50814 36.0357 7.65452 34.0597 7.65452H30.1947L29.7679 13.1556H33.6329ZM46.9697 10.1205C48.4872 10.1205 49.6175 10.4762 50.3604 11.1875C51.1034 11.8831 51.4749 12.9422 51.4749 14.3649C51.4749 14.681 51.467 14.9261 51.4512 15.0999L50.9058 22H48.0841L48.2264 20.3402C47.8944 20.9409 47.4439 21.3993 46.8748 21.7155C46.3058 22.0316 45.6656 22.1897 44.9542 22.1897C44.1796 22.1897 43.4841 22.0474 42.8676 21.7629C42.2669 21.4625 41.7927 21.0594 41.4449 20.5536C41.1129 20.0319 40.947 19.4471 40.947 18.7989C40.947 17.9137 41.1683 17.2103 41.6109 16.6886C42.0693 16.1512 42.7965 15.7639 43.7924 15.5268C44.7882 15.2738 46.1161 15.1474 47.7759 15.1474H48.6295L48.6532 14.6968C48.7164 13.9065 48.5742 13.3216 48.2264 12.9422C47.8786 12.5628 47.2938 12.3731 46.4718 12.3731C45.8869 12.3731 45.2546 12.4838 44.5748 12.7051C43.9109 12.9106 43.2628 13.203 42.6305 13.5824L41.9666 11.5432C42.5831 11.1164 43.3497 10.7765 44.2666 10.5236C45.1834 10.2549 46.0845 10.1205 46.9697 10.1205ZM45.713 20.0557C46.4559 20.0557 47.0803 19.7948 47.5862 19.2732C48.1079 18.7515 48.4003 18.0718 48.4635 17.234L48.5109 16.7123H47.847C46.8037 16.7123 45.9896 16.7756 45.4047 16.902C44.8357 17.0127 44.4326 17.1945 44.1954 17.4474C43.9583 17.7003 43.8398 18.0481 43.8398 18.4907C43.8398 18.9649 44.0058 19.3443 44.3377 19.6288C44.6855 19.9134 45.1439 20.0557 45.713 20.0557ZM65.8687 10.4288L57.6645 26.2681H54.6769L57.1429 21.5495L53.2068 10.4288H56.2181L58.9212 18.5618L62.9048 10.4288H65.8687ZM80.958 10.1205C82.1752 10.1205 83.092 10.4683 83.7085 11.1638C84.3408 11.8594 84.657 12.8869 84.657 14.2463C84.657 14.5467 84.6491 14.7838 84.6332 14.9577L84.0879 22H81.1239L81.6693 15.0525C81.6851 14.9419 81.693 14.7838 81.693 14.5783C81.693 13.1714 81.0844 12.468 79.8672 12.468C79.0768 12.468 78.4524 12.7288 77.994 13.2504C77.5514 13.7721 77.2985 14.5467 77.2352 15.5742L76.7136 22H73.7497L74.3187 15.0762C74.382 14.191 74.2634 13.535 73.9631 13.1082C73.6785 12.6814 73.1964 12.468 72.5167 12.468C70.9043 12.468 70.019 13.5034 69.861 15.5742L69.363 22H66.3991L67.3001 10.4288H70.1929L70.0744 11.8515C70.928 10.6975 72.1136 10.1205 73.6311 10.1205C74.4689 10.1205 75.1723 10.2944 75.7414 10.6422C76.3105 10.9899 76.7294 11.4958 76.9981 12.1597C77.4407 11.4958 78.0019 10.9899 78.6817 10.6422C79.3614 10.2944 80.1202 10.1205 80.958 10.1205ZM92.7437 10.1205C94.2929 10.1205 95.518 10.5868 96.419 11.5195C97.32 12.4363 97.7706 13.78 97.7706 15.5505C97.7706 15.914 97.7468 16.3092 97.6994 16.736H89.7798C89.8272 17.7793 90.1196 18.5697 90.6571 19.1072C91.1946 19.6447 91.9691 19.9134 92.9808 19.9134C94.2771 19.9134 95.4547 19.5103 96.5138 18.7041L97.2015 20.7196C96.7114 21.1622 96.0633 21.5179 95.2571 21.7866C94.4509 22.0553 93.6289 22.1897 92.7911 22.1897C91.6056 22.1897 90.5701 21.9605 89.6849 21.5021C88.7997 21.0278 88.1121 20.3639 87.622 19.5103C87.1478 18.6567 86.9107 17.6608 86.9107 16.5226C86.9107 15.2738 87.1557 14.1673 87.6457 13.203C88.1516 12.2229 88.8471 11.4642 89.7323 10.9267C90.6176 10.3893 91.6214 10.1205 92.7437 10.1205ZM92.8623 12.2071C92.0403 12.2071 91.3763 12.4522 90.8705 12.9422C90.3646 13.4322 90.0327 14.1673 89.8746 15.1474H95.2808C95.2966 14.1673 95.0832 13.4322 94.6406 12.9422C94.2138 12.4522 93.621 12.2071 92.8623 12.2071ZM107.19 10.1205C108.486 10.1205 109.466 10.4762 110.13 11.1875C110.81 11.8831 111.15 12.9185 111.15 14.2938C111.15 14.5941 111.142 14.8233 111.126 14.9814L110.557 22H107.593L108.162 15.0999C108.289 13.3453 107.593 12.468 106.076 12.468C105.206 12.468 104.526 12.7288 104.036 13.2504C103.546 13.7721 103.262 14.4993 103.183 15.4319L102.661 22H99.6971L100.598 10.4051H103.491L103.372 11.9226C103.768 11.3535 104.297 10.9109 104.961 10.5948C105.625 10.2786 106.368 10.1205 107.19 10.1205ZM117.693 17.5897C117.677 17.6845 117.67 17.8189 117.67 17.9927C117.67 19.3048 118.341 19.9608 119.685 19.9608C120.064 19.9608 120.42 19.9292 120.752 19.866L120.444 22.0711C120.001 22.1344 119.582 22.166 119.187 22.166C117.717 22.166 116.603 21.834 115.844 21.1701C115.085 20.5062 114.706 19.5261 114.706 18.2299C114.706 17.9611 114.713 17.7556 114.729 17.6134L115.109 12.6339H112.904L113.069 10.4051H115.298L115.559 6.94317H118.523L118.262 10.4051H121.321L121.131 12.6339H118.073L117.693 17.5897ZM131.022 13.535L136.737 22H133.251L129.173 15.7876L124.146 22H120.542L127.608 13.4638L122.083 5.28337H125.569L129.458 11.1875L134.224 5.28337H137.851L131.022 13.535Z" fill="#151828"/>
<circle cx="4.5507" cy="19.1608" r="4.5507" fill="#D9DBE4"/>
<circle cx="9.34171" cy="14.131" r="4.5507" fill="#50EFF5"/>
<circle cx="14.1308" cy="9.10148" r="4.5507" fill="#1436E5"/>
</svg>
