<svg width="470" height="523" viewBox="0 0 470 523" fill="none" xmlns="http://www.w3.org/2000/svg">
<g clip-path="url(#clip0)">
<path d="M0.0117188 88.5842C2.03345 87.2433 4.08761 86.1159 6.18984 84.9209C7.39645 84.235 8.71527 82.961 10.1381 82.7433C11.8043 82.4882 13.7121 81.8841 15.1092 80.8913C16.0088 80.252 18.42 77.9606 15.6411 77.9606C14.3262 77.9606 10.7258 78.7475 11.6519 76.4953C12.5908 74.2122 13.6582 71.4728 14.9251 69.3722C16.3486 67.012 17.9535 66.3063 20.0599 64.6099C22.369 62.7503 26.0185 62.8644 28.7338 62.0049C31.2943 61.1944 33.8134 60.2704 36.2417 59.115C36.5505 58.9681 39.6283 57.2159 38.6761 56.7949C36.6562 55.9018 32.9274 56.7135 30.6568 56.7135C27.4732 56.7135 31.7006 53.9391 32.7025 53.4979C35.3398 52.3367 37.8037 52.1601 40.5173 51.5035C42.4713 51.0306 45.6681 50.4903 47.1454 49.0206C48.6789 47.495 47.1454 46.3009 47.1454 44.6246C47.1454 42.6604 51.9947 41.0591 53.4872 40.2287C56.1541 38.7447 60.4661 35.9921 63.5113 35.8327C67.3165 35.6335 71.2575 34.3033 74.9674 33.4516C78.1895 32.7119 81.4368 32.9021 84.7256 32.9021C91.0035 32.9021 96.6276 34.3326 102.053 37.5219C108.232 41.1542 115.578 40.3477 122.265 42.4266C124.173 43.0198 125.99 43.0238 127.952 43.2407C130.053 43.473 132.161 44.0944 134.253 44.2379C138.331 44.5177 143.026 44.1223 147.1 43.7088C150.406 43.3732 153.644 42.1336 156.96 42.0603C160.073 41.9915 163.147 41.7752 166.248 41.694C170.708 41.5772 176.453 38.9847 178.522 44.5432C180.079 48.7234 187.566 46.8226 190.756 46.8226C192.262 46.8226 193.11 47.4488 193.784 48.6542C194.727 50.3427 196.515 50.9827 198.256 50.9827" stroke="white" stroke-width="1.5" stroke-linecap="round" stroke-linejoin="round"/>
<path d="M0 88.5845C1.91418 88.631 2.65458 88.5845 4.5941 88.5845C5.93323 88.5845 7.14718 87.8887 8.481 87.8519C10.8587 87.7862 12.4314 86.752 14.5773 85.8371C21.0424 83.0806 27.0516 79.6117 33.7254 77.2283C37.5355 75.8677 41.3744 74.8156 45.2838 73.7685C49.65 72.5991 53.938 72.2799 58.356 71.652C62.764 71.0255 67.5581 70.6658 72.0215 71.0211C76.0949 71.3453 80.2193 71.7176 83.6004 74.2163C86.5374 76.3868 87.3164 78.4217 87.9373 81.9906C88.4653 85.0253 89.1888 89.5185 87.2827 92.2275C86.3141 93.604 85.8532 95.1738 85.0733 96.6438C84.3231 98.058 83.1856 99.5357 83.2321 101.203C83.2816 102.973 83.8866 104.731 84.9301 106.168C86.0109 107.657 87.8367 108.356 88.7352 109.994C90.0634 112.417 91.2626 113.658 90.3104 116.711C89.7142 118.622 88.3784 120.84 86.3417 121.208C83.6084 121.703 81.7939 125.674 80.409 127.741C78.5234 130.555 75.8508 132.739 74.1695 135.699C73.1411 137.509 71.7929 139.444 70.5486 141.133C68.5113 143.896 67.6239 147.004 67.3777 150.311C67.2033 152.653 66.6617 155.015 66.6617 157.373C66.6617 159.335 67.9727 160.351 68.421 162.135C68.9089 164.077 69.3221 166.029 69.6075 168.017C69.9097 170.121 71.4069 172.025 72.3488 173.899C73.6396 176.467 75.8782 179.163 76.5221 181.917C77.479 186.011 78.3484 190.347 78.8952 194.535C79.6254 200.129 81.5753 205.344 83.764 210.491C84.3372 211.839 85.2194 213.963 86.4644 214.805C87.1952 215.3 86.2294 210.968 86.0962 210.491C85.4342 208.12 85.5143 205.602 84.8483 203.246C84.2917 201.277 83.7668 199.796 83.5799 197.751C83.2769 194.435 82.004 191.187 81.7797 187.84C81.708 186.77 80.3167 179.925 83.2321 182.08C86.1399 184.229 85.885 188.145 86.9145 191.32C88.3649 195.793 90.7585 199.94 93.2562 203.897C93.966 205.022 95.1497 205.74 95.9771 206.746C97.2886 208.341 98.3481 209.836 99.2707 211.671C99.9731 213.069 100.933 214.287 101.644 215.701C102.472 217.348 102.469 218.829 102.83 220.585C103.442 223.561 104.408 226.144 106.615 228.339C107.825 229.543 109.609 229.887 110.85 231.087C112.423 232.608 115.05 234.233 116.476 235.889" stroke="white" stroke-width="1.5" stroke-linecap="round" stroke-linejoin="round"/>
<path d="M84.8694 116.385C84.1622 113.571 82.3041 113.183 79.5505 113.129C77.179 113.129 80.1363 120.309 82.8645 118.99C84.2609 118.316 85.273 117.992 84.8694 116.385Z" stroke="white" stroke-width="1.5" stroke-linecap="round" stroke-linejoin="round"/>
<path d="M116.477 235.889C117.185 236.594 117.334 236.976 117.814 237.478C118.361 238.049 118.885 238.661 119.385 239.273C120.088 240.133 121.34 240.813 122.228 241.475C123.342 242.306 124.494 242.908 125.72 243.554C126.641 244.04 127.584 244.415 128.596 244.672C129.631 244.934 130.281 244.822 131.322 244.73C133.104 244.572 135.05 244.321 136.774 243.826C137.714 243.556 138.679 243.425 139.604 243.102C140.514 242.785 141.441 242.546 142.395 242.405C144.013 242.167 146.031 243.029 147.25 244.071C148.632 245.252 149.26 247.076 150.327 248.527C150.763 249.12 151.243 249.892 151.872 250.309C152.589 250.784 153.598 251.175 154.429 251.407C155.131 251.602 155.94 251.64 156.662 251.749C157.456 251.868 158.096 251.308 158.869 251.361C160.549 251.477 160.97 252.818 162.192 253.686C162.767 254.094 162.971 254.884 163.003 255.559C163.065 256.845 163.35 257.553 163.938 258.684C164.547 259.856 164.838 261.217 165.295 262.455C165.812 263.856 166.683 265.002 167.67 266.11C168.902 267.491 169.908 269.034 171.071 270.468C171.852 271.43 172.853 272.47 174.148 272.67C175.814 272.928 177.524 272.614 179.198 272.87C180.404 273.055 181.59 273.307 182.82 273.193C183.882 273.095 185.008 272.512 186.007 272.147C186.559 271.945 187.839 271.76 187.902 271.043C187.964 270.331 188.334 269.615 188.713 269.022C189.062 268.477 189.33 267.94 188.493 268.518C186.908 269.612 185.445 270.478 183.495 270.74C182.391 270.887 181.304 270.27 180.249 270.068C179.029 269.834 178.278 269.39 177.731 268.234C176.777 266.218 175.226 264.257 174.862 262.009C174.487 259.69 174.26 256.927 175.219 254.726C176.096 252.711 176.43 250.818 176.27 248.623C176.196 247.599 176.285 246.385 175.66 245.511C174.887 244.429 174.417 244.032 173.071 244.032C170.559 244.032 168.112 243.895 165.6 244.09C164.597 244.168 163.604 244.18 162.607 244.032C161.184 243.822 160.919 243.303 160.907 241.876C160.898 240.796 161.262 239.693 161.582 238.673C161.969 237.44 162.299 236.148 162.828 234.966C163.606 233.231 164.609 231.584 165.45 229.878C166.16 228.44 166.28 227.244 165.905 225.681C165.712 224.877 164.873 224.014 164.126 223.666C162.784 223.042 160.685 223.575 159.388 224.041C157.633 224.671 157.394 227.156 156.128 228.492C154.619 230.086 152.746 231.888 151.172 233.423C149.905 234.658 147.609 234.611 146.069 235.496C144.867 236.186 142.922 235.996 141.681 235.548C140.854 235.249 140.099 234.795 139.26 234.521C138.719 234.344 133.824 229.878 131.7 223.666C129.576 217.454 129.576 201.021 139.604 194.681C149.632 188.341 160.907 189.398 165.905 190.455C170.903 191.511 167.103 186.58 181.264 187.99C195.425 189.399 186.929 204.191 192.947 207.361" stroke="white" stroke-width="1.5" stroke-linecap="round" stroke-linejoin="round"/>
<path d="M192.945 207.36C194.702 208.026 194.773 207.367 195.803 205.582C197.122 203.298 196.522 200.625 196.227 198.195C195.881 195.345 194.704 192.562 194.771 189.689C194.855 186.134 198.108 183.647 200.613 181.605C202.372 180.171 204.56 179.25 206.49 178.067C208.364 176.919 210.041 175.487 211.871 174.273C214.99 172.204 219.925 168.608 218.615 164.227C218.139 162.635 217.56 161.105 218.689 159.626C219.717 158.28 221.187 157.317 222.54 156.327C225.256 154.339 228.522 153.418 231.292 151.542C233.554 150.011 235.69 148.558 238.147 147.326C240.978 145.907 243.707 144.462 246.383 142.762C247.298 142.18 248.026 141.526 248.263 140.434C248.397 139.816 248.254 139.176 248.41 138.564C249.201 135.458 252.744 135.708 254.97 134.091C257.856 131.996 261.282 130.717 264.809 130.169C266.076 129.972 267.373 129.991 268.642 129.765C269.094 129.685 270.774 129.1 271.185 129.509C271.953 130.273 268.466 131.369 268.163 131.525C267.401 131.918 265.352 133.4 265.583 134.55C265.735 135.304 268.958 133.278 269.305 133.102C270.845 132.32 272.582 131.908 274.078 131.085C275.264 130.433 276.343 129.788 277.321 128.849C278.005 128.191 277.309 127.518 276.749 126.961C275.772 125.988 273.984 125.018 273.451 123.734C272.891 122.385 273.833 117.918 273.664 116.492" stroke="white" stroke-width="1.5" stroke-linecap="round" stroke-linejoin="round"/>
<path d="M273.667 116.492C273.633 115.091 272.566 115.408 271.427 115.632C269.521 116.006 267.51 116.442 265.651 117.007C265.293 117.115 263.823 118.001 263.615 117.327C263.178 115.915 264.958 114.611 265.955 114.055C268.035 112.895 270.372 112.642 272.57 111.819C274.76 110.999 276.935 110.308 279.222 109.803C281.911 109.208 284.44 108.21 287.09 107.493C289.408 106.866 291.854 106.489 294.221 106.081C296.383 105.709 298.479 105.439 300.596 104.817C302.267 104.325 303.912 103.736 305.589 103.268C307.477 102.741 309.399 102.123 311.191 101.315C312.531 100.711 313.509 99.8801 313.918 98.4833C314.28 97.2494 311.348 97.1172 310.675 97.0076C308.061 96.5815 305.688 95.5292 303.028 95.3578C302.072 95.2962 300.962 95.655 301.112 94.3496C301.297 92.7421 301.904 91.3106 301.904 89.6569C301.904 87.8252 301.648 85.8164 301.075 84.0751C300.447 82.1666 299.996 79.9809 298.919 78.2734C298.155 77.0612 296.831 74.899 295.326 74.4972C293.651 74.0502 291.813 75.726 290.627 76.6694C289.491 77.5737 288.123 78.2227 286.85 78.915C286.036 79.3577 285.18 79.4279 284.621 78.5483C283.465 76.7309 282.394 74.9214 280.843 73.379C279.029 71.5744 276.881 70.6661 274.468 69.9145C270.774 68.764 265.24 69.5655 262.776 72.7008C261.539 74.2754 260.6 76.0001 259.211 77.4668C257.845 78.9087 256.363 80.2452 254.954 81.6463C251.953 84.6324 248.457 87.3222 246.478 91.1234C244.6 94.7315 243.14 98.5015 241.411 102.177C240.182 104.79 238.519 106.345 235.92 107.603C235.123 107.989 234.062 108.629 233.147 108.629C232.515 108.629 232.472 107.46 232.419 107.071C232 103.976 230.69 101.222 229.84 98.2358C229.335 96.4636 228.944 94.7062 228.329 92.9656C228.015 92.079 227.606 90.862 226.67 90.4451C226.017 90.154 225.244 90.236 224.551 90.1885C221.912 90.0074 219.444 88.9338 217.605 87.0081C216.219 85.557 214.714 83.9708 213.523 82.352C210.55 78.3096 213.651 73.5392 216.997 70.9227C220.203 68.4155 223.786 67.3794 227.555 66.0283C229.874 65.1969 232.138 64.2256 234.446 63.3703C236.921 62.453 239.426 61.8023 242.075 61.6838C243.618 61.6148 245.464 61.8381 246.93 61.2439C248.119 60.7617 248.035 60.2016 247.925 59.0167C247.811 57.791 247.842 56.5618 247.842 55.3322C247.842 54.9899 247.879 54.6926 248.284 54.6081C249.269 54.4029 249.841 55.1529 250.09 56.0196C250.38 57.0289 250.549 58.2659 249.887 59.1358C249.358 59.8314 247.668 61.4924 249.058 62.2521C250.535 63.0596 252.977 62.6877 254.567 62.3896C255.364 62.2402 258.683 61.4217 258.594 60.2265C258.462 58.4579 256.013 57.4807 254.724 56.707C254.037 56.2946 252.319 55.5309 252.319 54.5531C252.319 51.8314 256.972 52.4539 258.787 52.555C261.21 52.69 263.43 51.955 265.66 51.1069C267.273 50.4934 269.806 50.3331 271.059 49.0538C271.886 48.2096 271.364 46.7395 270.893 45.8551C270.005 44.1858 267.617 44.315 266.001 44.3519C262.868 44.4236 260.029 45.6807 257.046 46.4875C255.835 46.815 253.208 47.8478 252.089 46.735C251.452 46.1012 251.86 44.364 251.785 43.5545C251.623 41.7998 250.765 40.8789 249.261 40.035C248.241 39.4628 246.989 38.7957 246.552 37.652C246.25 36.8627 246.407 35.4861 244.991 35.4861" stroke="white" stroke-width="1.5" stroke-linecap="round" stroke-linejoin="round"/>
<path d="M269.308 28.9672C270.95 29.2643 270.089 31.6632 269.771 32.6684C271.405 33.1327 272.719 32.4337 274.157 31.5812C276.103 30.4284 277.686 29.5347 280.031 29.6591C283.02 29.8177 285.243 31.0868 287.547 32.8498C289.185 34.1034 291.347 35.5276 293.517 35.1467C294.722 34.9352 295.465 34.4836 296.743 34.4836C298.039 34.4836 299.219 34.6204 300.492 34.8296C303.755 35.3659 306.508 36.4531 308.8 38.9044C310 40.1876 311.383 41.1414 312.703 42.2873C314.137 43.5325 315.341 45.2002 316.277 46.8427C317.633 49.2221 317.262 52.1526 314.683 53.5028C312.591 54.5981 309.883 53.612 307.718 53.2049C306.756 53.024 303.746 52.3515 303.593 54.0314C303.425 55.8636 305.359 57.0594 305.109 58.7405C304.821 60.6827 302.834 61.8159 300.946 61.8159C299.728 61.8159 298.596 61.7816 297.41 61.4699C296.57 61.2491 295.611 61.0008 294.734 61.1624C293.059 61.4709 293.897 62.9184 294.811 63.7188C295.825 64.6057 297.372 67.1458 294.947 67.4861C293.076 67.7486 290.845 66.8884 289.17 66.131C286.337 64.8499 284.152 62.9144 282.987 59.9899C282.255 58.1519 282.477 55.4729 284.185 54.2044C285.996 52.8595 288.643 52.5135 290.793 52.8973C291.679 53.0556 292.619 53.0771 293.517 53.1664C294.217 53.2361 295.067 53.5028 295.719 53.128C297.08 52.3459 297.157 51.2567 296.879 49.7932C296.674 48.7187 296.107 47.8325 295.681 46.8427C295.38 46.1439 295.207 45.4071 294.715 44.8053C292.376 41.9471 288.792 40.6345 285.634 38.9429C284.58 38.3782 283.429 38.4085 282.272 38.2509C281.49 38.1444 280.837 37.8118 280.021 37.78C278.183 37.7083 276.374 37.9188 274.544 37.9434C273.201 37.9614 271.91 37.9349 270.602 38.3278C269.194 38.7511 267.905 39.4646 266.468 39.8271C264.056 40.4353 262.115 39.895 259.763 39.4619C258.038 39.144 259.743 36.355 260.208 35.6849C261.682 33.5605 263.119 31.9964 265.115 30.3319C266.346 29.3052 267.673 28.6715 269.308 28.9672Z" stroke="white" stroke-width="1.5" stroke-linecap="round" stroke-linejoin="round"/>
<path d="M276.786 25.3536C281.467 25.0505 292.534 25.8902 294.553 24.2156C296.572 22.5411 293.1 22.5046 290.783 21.9514C288.467 21.3983 287.1 21.023 285.538 21.2595C284.614 21.3993 283.685 21.7866 282.91 22.2974C282.528 22.5494 282.318 23.0663 281.838 23.0663C279.883 23.0663 277.952 22.6619 276.061 22.1917C273.144 21.4661 267.72 19.6452 265.27 22.4704C264.028 23.9033 266.551 24.8122 267.55 24.9691C269.082 25.2097 270.617 25.5657 272.168 25.6419C273.722 25.7182 275.239 25.4537 276.786 25.3536Z" stroke="white" stroke-width="1.5" stroke-linecap="round" stroke-linejoin="round"/>
<path d="M284.592 6.40236C284.046 5.69978 283.273 3.03868 282.718 5.76806C282.164 8.49745 279.037 7.25814 278.313 8.49745C277.509 9.87363 280.179 10.6488 281.047 10.6022C282.495 10.5243 284.21 9.23457 285.037 8.11303C285.408 7.6096 284.894 6.79056 284.592 6.40236Z" stroke="white" stroke-width="1.5" stroke-linecap="round" stroke-linejoin="round"/>
<path d="M198.256 50.9829C200.202 50.9187 202.773 48.5633 203.732 45.9393C204.593 43.5822 206.5 43.998 208.678 43.998C211.058 43.998 213.48 43.5456 215.846 43.6905C218.572 43.8573 221.265 44.5533 223.98 44.8629C227.223 45.2328 230.322 46.1106 233.544 46.5544C234.224 46.6481 235.519 46.8314 236.152 46.5544C236.75 46.2929 236.421 45.1602 236.326 44.69C236.087 43.4987 239.628 44.1203 240.306 43.9211C242.964 43.1408 241.706 40.7878 241.678 38.8083C241.646 36.6154 242.734 35.4861 244.988 35.4861" stroke="white" stroke-width="1.5" stroke-linecap="round" stroke-linejoin="round"/>
<path d="M196.72 27.2369C198.737 27.5353 200.242 28.0409 202.767 28.3307C205.291 28.6205 209.498 26.8511 212.08 28.8583C212.888 29.4861 213.295 30.2018 214.383 30.0422C215.537 29.8727 215.998 28.6404 216.556 27.7645C217.175 26.7916 218.355 25.7613 219.583 25.7827C220.694 25.8021 221.706 26.6573 221.84 27.7709C222.164 30.4592 220.364 32.7513 221.103 35.447C221.277 36.0832 221.557 36.3899 222.144 36.6952C222.641 36.9535 223.58 37.2662 223.703 37.8984C223.929 39.0637 222.678 39.8381 221.95 40.5172C221.004 41.3994 219.673 40.9472 218.522 40.781C217.889 40.6895 217.283 40.4601 216.646 40.4014C215.988 40.3406 215.327 40.348 214.667 40.2855C213.112 40.1382 211.585 40.3376 210.036 40.0346C208.834 39.7992 207.344 39.8025 206.117 39.9381C203.416 40.2366 202.561 42.4134 201.227 44.4035C200.36 45.6986 198.32 45.6615 196.959 45.5616C196.327 45.5153 195.56 45.4501 195.167 44.8732C194.897 44.4761 194.989 43.9963 194.96 43.5477C194.901 42.6333 194.948 41.5965 193.803 41.4952C192.214 41.3547 190.758 42.1846 189.204 41.3987C188.246 40.9138 186.859 40.0943 188.046 39.063C189.16 38.096 190.687 37.5162 191.688 36.4379C192.645 35.4062 192.18 33.7579 190.957 33.2207C189.327 32.505 187.467 32.08 185.712 31.8052C183.432 31.4484 181.206 31.338 178.92 31.7473C177.908 31.9286 176.932 32.2436 175.926 32.4486C174.851 32.6677 173.74 32.5163 172.666 32.3585C172.362 32.3138 170.562 32.2233 170.428 31.8567C170.318 31.5556 170.974 30.7359 171.14 30.5183C171.676 29.8149 172.621 29.3505 173.365 28.9226C174.259 28.4083 175.209 27.9973 176.198 27.7001C178.221 27.0918 180.302 26.6905 182.322 26.0787C184.36 25.4619 186.653 25.5906 188.745 25.7827C191.434 26.0297 194.051 26.8422 196.72 27.2369Z" stroke="white" stroke-width="1.5" stroke-linecap="round" stroke-linejoin="round"/>
<path d="M232.376 42.6763C232.401 43.0986 232.332 43.7333 232.899 43.7695C233.466 43.8057 233.842 43.2414 233.942 42.9661C234.014 42.7649 234.067 42.4078 234.246 42.2713C234.394 42.1584 234.659 42.3008 234.832 42.2845C235.083 42.2607 234.985 41.8716 234.951 41.7049C234.728 40.6255 233.394 40.7269 232.773 41.3855C232.434 41.7455 232.348 42.2007 232.376 42.6763Z" stroke="white" stroke-width="1.5" stroke-linecap="round" stroke-linejoin="round"/>
<path d="M235.641 34.3457C231.89 35.8383 236.358 29.5985 238.211 28.4714C239.071 27.9485 240.006 27.5763 240.968 27.286C241.563 27.1065 242.775 26.6124 243.338 27.151C244.54 28.3008 243.588 29.9322 242.58 30.8092C240.63 32.5069 238.006 33.3754 235.649 34.3457" stroke="white" stroke-width="1.5" stroke-linecap="round" stroke-linejoin="round"/>
<path d="M258.874 26.3447C256.661 26.3312 252.657 26.5957 251.142 28.4623C250.586 29.1463 249.04 31.3634 250.841 31.4587C251.829 31.511 252.862 31.2954 253.816 31.0701C255.067 30.7748 256.363 30.3821 257.47 29.7135C258.045 29.3664 258.665 28.8654 258.96 28.2449C259.275 27.5814 261.629 26.3447 258.874 26.3483" stroke="white" stroke-width="1.5" stroke-linecap="round" stroke-linejoin="round"/>
<path d="M202.93 220.956C206.132 223.08 212.372 222.998 213.412 224.602C214.452 226.207 210.937 227.066 209.837 227.917C209.123 228.47 207.623 228.733 206.723 228.733C205.183 228.733 203.272 228.083 201.777 227.7C200.413 227.351 199.588 226.081 198.868 224.947C198.172 223.85 197.085 223.133 196.343 222.027C195.809 221.23 194.793 220.273 194.037 219.682C192.926 218.813 192.207 218.186 190.859 217.769C189.709 217.414 188.629 217.407 187.476 217.208C186.191 216.987 184.923 216.514 183.682 216.125C183.601 216.099 182.039 215.513 182.183 215.398C182.933 214.802 183.768 214.087 184.759 213.868C186.137 213.564 187.524 214.047 188.872 214.047C190.542 214.047 192.258 214.596 193.793 215.207C197.23 216.575 199.901 218.948 202.93 220.956Z" stroke="white" stroke-width="1.5" stroke-linecap="round" stroke-linejoin="round"/>
<path d="M217.338 230.34C215.605 227.436 226.231 228.331 230.588 230.238C231.409 230.597 232.387 231.799 232.741 232.634C233.061 233.392 230.813 234.324 230.319 234.483C227.23 235.48 223.949 235.041 220.9 234.011C219.968 233.697 219.031 233.396 218.145 232.979C217.297 232.579 217.528 231.172 217.335 230.34" stroke="white" stroke-width="1.5" stroke-linecap="round" stroke-linejoin="round"/>
<path d="M240.72 233.909C239.71 232.992 238.153 233.394 236.939 233.552C237.386 235.18 238.613 236.367 240.502 235.49C241.305 235.117 241.371 234.501 240.72 233.909Z" stroke="white" stroke-width="1.5" stroke-linecap="round" stroke-linejoin="round"/>
<path d="M199.343 235.158C200.467 233.41 206.775 234.164 204.52 236.408C203.075 237.845 198.219 236.907 199.343 235.158Z" stroke="white" stroke-width="1.5" stroke-linecap="round" stroke-linejoin="round"/>
<path d="M180.8 219.236C179.875 218.842 178.565 218.516 177.66 219.785C176.756 221.054 178.397 221.645 179.736 221.391C180.556 221.236 181.764 221.069 182.338 220.371C182.699 219.932 181.032 219.335 180.8 219.236Z" stroke="white" stroke-width="1.5" stroke-linecap="round" stroke-linejoin="round"/>
<path d="M200.494 205.557C200.609 206.923 199.762 212.327 202.57 209.458C204.806 207.174 200.38 204.191 200.494 205.557Z" stroke="white" stroke-width="1.5" stroke-linecap="round" stroke-linejoin="round"/>
<path d="M201.315 202.433C200.97 201.303 203.926 201.352 202.341 200.049C200.755 198.746 205.804 200.199 203.584 202.407C203.022 202.966 201.641 203.497 201.315 202.433Z" stroke="white" stroke-width="1.5" stroke-linecap="round" stroke-linejoin="round"/>
<path d="M210.071 120.37C210.234 121.109 209.362 121.776 209.337 122.637C209.311 123.499 209.074 123.565 209.362 123.771C209.568 123.918 209.783 124.055 209.97 124.224C210.485 124.691 211.567 124.564 212.192 124.564C212.851 124.564 213.436 124.405 214.079 124.344C214.754 124.28 215.409 124.337 216.086 124.224C217.456 123.997 219.7 124.193 220.049 125.887C220.988 130.448 214.691 129.768 213.724 133.187C213.52 133.91 213.556 134.605 213.161 135.272C212.695 136.056 211.986 136.945 211.147 137.363C210.122 137.872 208.014 137.571 207.361 136.582C206.882 135.855 207.321 134.826 207.684 134.15C208.029 133.51 208.461 133.21 208.906 132.677C209.389 132.098 209.368 131.406 209.571 130.718C209.852 129.761 209.769 128.901 209.565 127.94C209.385 127.095 209.48 126.146 209.197 125.333C209.085 125.011 209.018 125.482 208.938 125.579C208.307 126.332 208.43 127.307 208.127 128.186C207.85 128.994 207.139 129.303 206.475 129.735C205.759 130.201 205.057 130.741 204.373 131.253C202.903 132.355 201.066 133.172 199.828 134.554C198.696 135.815 197.885 137.376 196.928 138.767C196.067 140.017 195.052 141.143 194.193 142.401C193.397 143.566 192.507 144.719 191.407 145.62C190.748 146.16 189.656 146.953 188.761 146.533C188.082 146.215 188.682 144.642 188.824 144.165C189.219 142.841 189.968 141.597 190.527 140.335C191.485 138.176 192.079 135.891 192.977 133.71C193.832 131.635 195.922 129.766 197.928 128.759C199.214 128.113 200.621 127.689 201.923 127.059C202.922 126.575 204.03 126.281 205.006 125.786C206.19 125.187 204.315 124.086 203.873 123.84C202.866 123.28 201.499 123.265 200.378 123.21C199.097 123.148 197.606 123.357 196.377 123.721C195.096 124.1 193.548 124.745 192.382 125.402C190.643 126.383 189.132 126.375 187.267 125.698C185.516 125.063 185.381 123.623 186.001 122.007C187.259 118.727 191.84 118.81 194.465 117.473C196.392 116.491 198.473 115.17 200.714 115.041C202.174 114.958 203.833 114.928 205.26 115.293C206.964 115.73 208.278 116.875 209.134 118.405C209.486 119.033 209.915 119.658 210.071 120.37Z" stroke="white" stroke-width="1.5" stroke-linecap="round" stroke-linejoin="round"/>
<path d="M229.634 133.206C227.715 132.728 226.231 130.898 226.226 132.694C226.221 134.489 223.23 134.796 224.025 135.089C224.598 135.3 225.224 135.417 225.823 135.523C227.335 135.793 229.48 136.405 230.571 134.931C231.091 134.229 230.299 133.371 229.634 133.206Z" stroke="white" stroke-width="1.5" stroke-linecap="round" stroke-linejoin="round"/>
<path d="M212.635 140.694C211.551 140.756 207.67 139.821 207.741 142.023C207.813 144.225 209.748 143.497 211.325 143.497C212.292 143.497 214.978 143.714 215.294 142.42C215.625 141.067 213.52 140.644 212.635 140.694Z" stroke="white" stroke-width="1.5" stroke-linecap="round" stroke-linejoin="round"/>
<path d="M309.468 3.4895C313.683 3.16384 321.47 2.29934 325.704 2.29934C328.786 2.29934 331.763 2.35722 334.773 1.60862C337.173 1.01182 339.723 0.190073 342.207 0.0252811C343.366 -0.0515496 345.227 -0.0569734 344.547 1.59799C344.156 2.54875 342.612 2.91648 341.769 3.25572C337.866 4.82639 333.819 5.71812 329.913 7.27252C328.034 8.02014 325.976 8.33342 324.155 9.1959C322.706 9.88251 321.199 10.3993 319.723 11.0236C316.83 12.2464 313.989 13.5959 311.135 14.9236C309.947 15.476 309.003 16.4689 307.941 17.2189C307.113 17.8029 306.311 18.4218 305.505 19.036L305.479 19.0558C303.588 20.4984 301.702 21.9368 299.235 21.0444C297.586 20.4477 295.841 19.778 294.087 19.5567C292.414 19.3457 290.757 19.0508 289.077 18.8447C287.647 18.6693 285.028 18.8157 283.79 17.9946C283.111 17.5446 285.412 17.7956 286.204 17.6014C287.964 17.1697 289.696 16.5733 291.438 16.0712C291.999 15.9093 297.907 14.4614 297.793 13.8397C297.59 12.7307 296.071 12.456 295.753 11.5869C295.653 11.3144 297.627 10.5835 297.921 10.4286C300.692 8.96934 304.205 8.92877 307.246 8.80272C307.677 8.78489 310.128 8.37578 309.041 7.65507C307.944 6.92782 306.379 6.5573 305.174 6.03985C304.738 5.85245 303.747 5.4492 303.625 4.90282C303.592 4.75244 304.414 4.45458 304.512 4.40338C305.997 3.62971 307.828 3.61626 309.468 3.4895Z" stroke="white" stroke-width="1.5" stroke-linecap="round" stroke-linejoin="round"/>
<path d="M366.496 4.56404C362.061 4.56404 357.956 4.50167 353.759 6.00473C351.024 6.98425 349.858 9.80782 347.024 10.5698C345.348 11.0204 343.85 11.8523 342.156 12.2188C340.305 12.6191 338.366 12.5758 336.486 12.7048C332.279 12.9934 329.017 12.7328 325.493 15.2911C324.445 16.0522 323.58 16.5378 325.127 17.2525C327.875 18.5217 330.708 19.762 333.659 20.481C336.021 21.0566 338.504 20.7664 340.917 20.8108C342.485 20.8397 344.086 21.6594 345.628 21.9912C347.309 22.3526 347.679 22.5546 348.437 24.2303C349.101 25.6969 349.378 27.2988 350.025 28.7607C351.509 32.1152 355.333 33.5166 356.585 37.075C357.106 38.5551 357.417 41.1115 357.388 42.6815C357.353 44.6027 355.878 46.4852 354.492 47.6806C350.507 51.1163 347.202 54.6289 345.96 59.8483C345.301 62.6151 346.587 65.6528 347.652 68.1626C348.296 69.6796 349.341 71.1694 350.618 72.2243C352.526 73.8006 355.781 76.516 358.505 75.9042C360.071 75.5523 361.432 73.937 362.518 72.8839C363.889 71.5538 365.365 70.3503 366.566 68.8569C368.258 66.7528 369.322 65.0249 370.02 62.4693C371.118 58.451 373.036 54.7995 377.348 53.912C381.588 53.0393 386.731 53.997 390.713 52.1241C392.607 51.2335 394.655 50.8194 396.349 49.5552C398.069 48.2722 399.898 47.3702 401.531 45.9621C404.813 43.1325 409.504 42.6815 413.64 42.6815C418.668 42.6815 423.134 43.8485 427.982 42.1261C428.853 41.8168 428.817 41.1856 428.156 40.616C426.519 39.2045 424.42 39.2743 422.416 38.7761C420.196 38.224 418.745 35.6938 420.759 34.0721C421.785 33.2458 422.685 32.9811 423.655 34.1068C425.041 35.7152 426.053 36.5036 428.052 37.2139C431.414 38.4083 431.101 34.6481 428.61 33.5514C427.649 33.1283 425.39 32.6621 424.911 31.59C424.285 30.1878 427.283 29.6852 428.348 29.4203C430.49 28.8877 432.663 28.758 434.682 27.7539C436.727 26.7366 438.327 24.6488 439.916 23.0673C441.087 21.903 443.048 20.6352 443.127 18.8668C443.226 16.6504 443.488 14.6701 443.197 12.4444C442.853 9.82769 450.334 8.15052 452.06 7.53221C453.423 7.04425 455.066 6.46482 456.317 5.74436C458.341 4.57897 456.369 3.6443 454.991 3.62673C452.677 3.59721 450.361 3.62673 448.047 3.62673C446.452 3.62673 445.432 2.6302 443.912 2.23811C442.222 1.80214 440.594 1.46408 438.887 0.970998C435.838 0.090427 432.922 0.189902 429.762 0.189902C425.993 0.189902 422.216 0.33041 418.455 0.571771C416.684 0.685474 414.989 0.942637 413.256 1.30079C411.418 1.68067 409.469 1.46527 407.603 1.75209C402.5 2.53666 397.415 3.04152 392.354 4.09538C387.273 5.15333 382.014 4.94935 376.86 5.43193C374.73 5.63137 372.543 5.50136 370.404 5.50136C368.815 5.50136 369.251 4.56401 366.317 4.56401" stroke="white" stroke-width="1.5" stroke-linecap="round" stroke-linejoin="round"/>
<path d="M299.084 115.092C296.992 116.008 294.663 116.758 294.476 119.121C294.289 121.484 295.88 119.96 296.73 120.371C297.383 120.687 298.24 120.617 298.955 120.808C299.862 121.051 300.86 121.069 301.748 121.364C302.948 121.762 304.501 122.14 305.767 122.158C309.168 122.204 311.474 121.392 312.6 118.029C312.965 116.942 312.8 115.862 312.331 114.844C311.897 113.903 311.078 114.133 310.176 113.981C309.359 113.843 308.203 113.529 307.623 112.909C306.918 112.156 307.223 111.079 307.024 110.19C306.609 108.33 304.18 110.347 303.593 110.944C302.035 112.531 301.206 114.163 299.084 115.092Z" stroke="white" stroke-width="1.5" stroke-linecap="round" stroke-linejoin="round"/>
<path d="M191.516 295.432C199.139 287.086 187.149 267.72 191.901 268.448C196.653 269.175 202.616 273.699 200.309 269.903C198.001 266.107 202.688 264.421 203.693 263.421C205.598 261.524 208.342 259.187 211.096 260.931C212.756 261.982 213.522 267.079 215.436 267.079C218.55 267.079 213.36 252.433 222.686 255.748C225.46 256.734 227.777 258.862 230.549 259.991C234.665 261.666 238.065 263.49 242.547 264.234C247.105 264.99 251.336 265.93 255.056 268.959C257.074 270.602 259.352 271.77 261.132 273.71C262.712 275.432 264.263 276.703 266.34 277.851C271.047 280.453 276.719 280.656 281.606 282.856C286.265 284.953 288.72 287.068 292.175 290.605C295.889 294.407 294.279 298.971 290.771 302.114C289.237 303.488 287.58 305.197 287.58 307.347C287.58 307.829 287.751 311.642 288.499 311.336C289.972 310.732 290.953 309.203 292.634 308.795C294.098 308.441 295.885 308.694 297.383 308.694C299.646 308.694 299.068 311.542 299.068 313.038C299.068 318.144 301.271 315.494 304.02 313.267C306.291 311.428 310.375 311.309 312.623 313.546C313.934 314.851 313.583 318.754 315.253 318.754C317.968 318.754 319.675 315.744 322.12 314.893C325.687 313.65 331.309 315.733 334.45 317.383C336.934 318.687 337.619 321.601 340.679 322.413C344.69 323.477 349.468 325.302 351.35 329.272C352.703 332.127 351.395 339.513 349.41 341.848C347.482 344.116 345.673 346.441 343.692 348.683C342.3 350.256 340.393 351.353 339.147 353.052C337.819 354.864 336.981 358.389 336.646 360.572C336.193 363.523 334.91 366.277 334.91 369.287C334.91 374.744 335.603 380.689 334.093 385.978C333.334 388.635 332.619 391.089 331.336 393.549C330.29 395.553 327.969 396.7 326.204 398.046C323.861 399.834 321.864 399.84 319.133 400.383C317.308 400.747 315.861 401.97 314.232 402.797C310.886 404.494 307.923 406.817 306.19 410.266C304.385 413.86 304.761 417.9 304.02 421.75C303.409 424.924 302.097 429.466 300.446 432.268C299.208 434.369 298.617 436.613 296.413 438.009C294.625 439.142 292.866 440.575 291.001 441.541C286.167 444.042 280.842 445.46 275.428 445.885C270.087 446.305 277.843 449.029 278.364 449.366C280.651 450.845 283.444 453.047 283.444 456.047C283.444 457.853 279.437 459.604 277.726 459.604C276.654 459.604 275.636 460.695 274.713 461.154C273.67 461.673 272.533 461.843 271.497 462.45C270.61 462.969 271.037 465.052 271.037 465.905C271.037 467.268 270.673 468.309 269.888 469.436C267.323 473.124 267.153 467.198 263.787 468.395C260.642 469.512 262.16 473.062 263.455 474.924C264.485 476.404 266.028 476.163 267.106 477.236C267.985 478.111 266.767 479.755 266.544 480.64C266.164 482.154 266.321 483.914 265.523 485.315C264.871 486.46 264.145 487.747 264.145 489.1C264.145 491.886 267.183 494.087 267.361 496.747C267.572 499.892 263.691 523.734 260.673 522.153C260.087 521.847 259.755 520.681 259.269 520.197C258.494 519.426 257.46 518.914 256.792 518.038C255.583 516.451 254.898 514.877 254.01 513.109C251.696 508.504 248.076 504.005 246.453 499.161L246.421 499.064C245.781 497.156 245.052 494.98 244.87 492.987C244.703 491.15 245.116 489.213 244.743 487.398C243.678 482.215 238.41 481.865 236.369 477.668C233.971 472.734 233.817 465.855 233.817 460.366C233.817 453.047 234.276 445.686 234.276 438.34C234.276 428.97 232.214 419.931 231.06 410.673C230.134 403.252 226.289 396.583 225.545 389.179C224.96 383.35 222.604 382.032 217.726 379.302L217.58 379.22C212.296 376.262 208.208 372.557 205.531 367.229C202.487 361.171 197.722 355.502 193.635 350.105C191.699 347.549 190.25 344.845 188.58 342.128C186.578 338.871 184.194 336.157 183.04 332.448C182.24 329.874 181.246 327.331 181.458 324.598C181.617 322.538 182.351 320.617 182.351 318.551C182.351 317.945 182.805 314.692 181.892 314.639C180.825 314.576 180.809 313.963 180.309 313.038C178.496 309.687 182.457 304.582 184.444 302.139C185.336 301.043 186.582 300.415 187.763 299.649C189.32 298.64 190.268 296.798 191.516 295.432Z" stroke="white" stroke-width="1.5" stroke-linecap="round" stroke-linejoin="round"/>
<path d="M266.525 517.451C265.892 518.852 266.638 520.211 267.744 521.38C271.19 523.249 275.01 523.099 278.83 522.862C279.554 522.817 282.643 521.961 282.039 520.82C281.532 519.862 279.538 520.188 278.622 520.271C277.619 520.361 276.534 520.64 275.538 520.333C274.56 520.031 273.646 518.835 272.944 518.135C272.196 517.392 270.898 515.815 269.724 515.782C268.183 515.74 267.197 515.966 266.525 517.451Z" stroke="white" stroke-width="1.5" stroke-linecap="round" stroke-linejoin="round"/>
<path d="M291.935 510.185C294.275 508.708 297.994 505.551 299.582 508.361C301.249 511.308 289.595 511.662 291.935 510.185Z" stroke="white" stroke-width="1.5" stroke-linecap="round" stroke-linejoin="round"/>
<path d="M434.685 54.5217C436.727 54.5217 438.062 54.2151 440.069 53.8347C442.176 53.4011 446.055 52.3161 446.055 55.6668C446.055 57.2981 444.706 57.929 443.497 58.7966C441 60.5881 438.536 60.931 435.504 61.163C432.863 61.3651 430.761 61.4483 428.176 60.7559C426.272 60.2459 424.808 59.2191 425.925 57.1553C426.82 55.5023 428.115 55.2357 429.864 54.7508C431.4 54.3248 433.107 54.5217 434.685 54.5217Z" stroke="white" stroke-width="1.5" stroke-linecap="round" stroke-linejoin="round"/>
<path d="M459.175 94.2681C460.202 93.6003 459.533 91.0899 461.938 91.6217C463.061 91.8702 464.544 91.5261 465.582 91.978C466.048 92.1809 465.851 93.0798 465.851 93.5047C465.851 95.3606 465.709 97.209 465.608 99.0646C465.532 100.467 464.804 103.759 463.076 103.759C462.722 103.759 461.679 103.226 461.528 103.581C461.16 104.446 461.185 104.798 460.326 105.362C459.287 106.045 458.167 106.583 457.129 107.283C456.305 107.84 456.151 107.654 456.004 106.736C455.675 104.694 455.15 102.754 454.917 100.668C454.706 98.7836 454.775 95.6849 456.975 94.9551C457.725 94.7065 458.477 94.7224 459.175 94.2681Z" stroke="white" stroke-width="1.5" stroke-linecap="round" stroke-linejoin="round"/>
<path d="M470.094 86.228C470.244 83.5112 475.235 81.6252 473.336 84.7951C471.437 87.965 476.3 85.8887 477.103 87.0296C477.9 88.1627 478.145 89.6505 478.624 90.9227C479.105 92.199 479.391 93.2422 479.43 94.5996C479.477 96.2214 481.14 96.5894 482.269 97.3477C484.013 98.5195 485.427 100.947 486.515 102.691C487.224 103.827 486.69 105.373 485.863 106.279C484.623 107.635 480.873 110.999 478.842 109.345C478.34 108.936 478.165 108.316 477.716 107.882C477.027 107.215 476.143 107.054 475.235 106.915C473.89 106.709 472.369 105.351 471.424 104.396C470.293 103.252 470.077 101.157 471.284 99.9558C472.213 99.0314 473.359 99.5262 474.238 98.8108C475.001 98.1898 476.335 96.3932 476.335 95.3375C476.335 93.7642 474.706 94.6459 474.136 93.8617C473.053 92.3749 471.627 90.9486 470.862 89.2815C470.414 88.3051 470.034 87.3262 470.094 86.228Z" stroke="white" stroke-width="1.5" stroke-linecap="round" stroke-linejoin="round"/>
<path d="M513.343 84.0898C511.101 85.4875 509.966 86.355 509.829 89.0005C509.758 90.3758 510.659 92.7906 509.906 94.0387C508.26 96.7679 504.657 98.8105 501.811 100.044C500.272 100.71 498.549 100.936 497.041 101.71C495.983 102.253 494.798 102.695 493.856 103.428C493.277 103.879 493.128 104.619 492.782 105.235C491.154 108.127 488.138 110.172 485.595 112.232C482.306 114.895 478.495 116.532 474.251 117.029C473.138 117.159 470.667 117.22 469.813 118.008C468.512 119.211 469.628 120.107 470.862 120.375C472.332 120.693 473.569 121.201 474.967 121.736C476.702 122.4 476.504 122.927 476.783 124.815C477.111 127.036 477.18 129.257 477.538 131.469C477.714 132.561 477.466 135.153 476.617 135.998C476.203 136.41 475.504 136.487 474.954 136.507C473.96 136.543 473.119 136.838 472.166 137.067C470.331 137.508 467.763 137.402 465.977 136.851C463.521 136.093 461.205 137.297 458.892 138.11C456.977 138.783 454.646 139.419 453.52 141.265C452.181 143.463 452.759 145.129 453.06 147.525C453.42 150.392 453.651 153.363 453.866 156.253C453.943 157.287 454.953 158.732 455.822 159.357C458.13 161.015 462.182 160.284 464.595 159.51C467.918 158.444 471.508 158.046 474.686 156.66C477.648 155.368 480.645 153.655 482.743 151.151C483.703 150.004 484.252 148.639 484.994 147.359C485.921 145.759 487.114 144.376 487.845 142.665C488.386 141.401 489.124 140.4 490.582 140.4C492.474 140.4 494.526 140.308 495.762 138.695C496.594 137.608 495.948 137.169 495.787 136.049C495.563 134.487 499.546 134.651 500.506 134.56C503.406 134.288 506.187 133.68 509.011 132.957C510.578 132.557 512.176 132.167 513.5 131.189C514.191 130.678 514.259 130.465 514.766 131.393C515.456 132.657 515.707 134.026 516.543 135.235C518.265 137.721 520.577 139.7 523.513 140.616C525.814 141.335 527.974 142.077 530.176 143.059C531.679 143.73 532.877 145.493 533.578 146.914C534.406 148.591 533.71 150.468 534.55 152.181C534.75 152.59 535.883 156.532 536.635 155.12C537.421 153.642 537.432 151.864 538.361 150.375C539.037 149.291 540.017 148.223 541.123 147.55C542.017 147.007 541.822 146.404 541.354 145.566C540.916 144.783 540.135 144.683 539.384 144.293C538.32 143.741 537.449 142.776 536.532 142.016C534.751 140.539 533.336 139.113 531.263 138.008C527.967 136.252 525.423 134.108 523.398 130.909C522.528 129.533 522.838 128.409 524.472 128.034C527.451 127.35 529.229 130.148 531.557 131.52C535.457 133.817 540.305 135.329 543.195 139.026C544.103 140.187 544.082 141.528 544.628 142.843C545.396 144.695 545.999 146.398 547.109 148.085C548.192 149.731 549.207 151.506 550.664 152.856C551.491 153.622 552.44 154.172 553.503 154.548C553.915 154.693 554.977 154.899 555.14 155.426C555.663 157.117 555.424 158.745 556.265 160.451C556.649 161.228 556.823 162.838 557.698 163.25C558.297 163.532 560.072 163.253 560.217 162.461C560.584 160.455 560.078 157.926 559.654 155.96C559.418 154.865 559.382 153.727 559.066 152.652C558.853 151.927 558.353 150.789 558.67 150.019C559.207 148.713 561.016 147.951 562.276 147.678C563.248 147.467 564.037 146.806 565.013 146.634C565.839 146.488 566.749 146.583 567.583 146.583C569.443 146.583 570.998 147.081 572.763 146.113C576.776 143.91 575.251 139.878 576.484 136.291C577.214 134.17 579.341 132.795 580.487 130.909C581.811 128.732 582.817 126.861 584.81 125.235C585.869 124.37 587.189 121.558 588.877 121.863C590.865 122.223 590.793 125.296 590.859 126.672C590.951 128.603 591.504 130.343 593.608 130.731C595.536 131.086 597.57 127.762 598.34 126.303C598.913 125.218 599.598 123.077 601 122.767C602.516 122.431 603.425 122.49 603.839 124.141C604.321 126.059 602.737 127.904 602.177 129.688C601.934 130.461 601.582 132.032 602.049 132.792C602.373 133.32 604.067 133.409 604.607 133.479C605.912 133.648 606.98 134.176 607.996 135.031C609.079 135.943 610.285 136.202 611.436 136.965C612.292 137.533 613.65 139.061 613.815 140.044C614.243 142.599 611.453 143.351 609.467 143.377C607.063 143.41 604.425 143.58 602.075 142.996C599.683 142.401 597.473 141.222 595.002 140.871C592.442 140.507 589.213 140.938 586.703 141.545C584.959 141.967 581.687 143.228 580.538 144.624C579.488 145.901 579.372 148.408 579.093 149.98C578.718 152.094 575.492 151.766 573.914 152.194C573.422 152.328 570.167 152.433 571.33 153.632C572.259 154.588 573.308 155.385 574.144 156.443C575.205 157.787 575.967 159.389 577.188 160.604C579.205 162.611 581.183 162.572 583.659 163.53C585.925 164.407 588.485 165.337 590.936 165.337C593.086 165.337 595.278 164.706 597.317 164.064C599.436 163.397 601.692 162.93 603.865 162.436C605.18 162.137 606.199 162.286 606.257 163.784C606.387 167.152 603.673 169.775 603.302 173.097C603.204 173.974 603.494 174.65 603.852 175.438C604.383 176.605 604.428 177.609 604.428 178.874C604.428 181.195 603.542 182.636 602.177 184.497C601.185 185.85 600.048 185.501 598.417 185.515C595.594 185.539 591.787 186.597 589.286 184.777C588.206 183.991 587.706 182.589 586.37 182.131C584.775 181.584 582.817 181.851 581.165 181.851C579.292 181.851 577.578 181.905 575.998 183.008C573.983 184.417 572.416 184.924 569.898 184.548C567.729 184.224 565.787 183.219 563.657 182.767C561.328 182.272 558.777 181.371 556.636 180.337C554.092 179.107 552.245 177.946 549.321 178.199C547.344 178.37 550.391 186.047 548.26 187.016C546.692 187.729 543.359 186.019 541.929 185.502C539.288 184.547 537.092 182.676 534.499 181.596C532.318 180.688 530.011 179.994 527.951 178.823C525.964 177.693 524.44 176.188 522.298 175.26C520.42 174.446 520.866 173.184 520.866 171.291C520.866 170.134 520.732 169.256 520.227 168.212C519.915 167.568 519.888 166.623 519.459 166.075C518.774 165.198 515.954 164.801 514.906 164.573C512.664 164.085 509.992 163.988 507.694 163.988C504.865 163.988 502.066 164.446 499.227 164.446C495.583 164.446 492.384 164.858 488.817 165.54C486.983 165.891 485.35 166.779 483.536 167.08C482.092 167.319 480.523 167.405 479.149 167.932C477.841 168.434 476.52 169.011 475.159 169.357C471.169 170.373 466.687 171.305 462.626 170.171C461.242 169.785 459.496 169.86 458.06 169.955C457.194 170.012 456.695 170.807 456.283 171.494C455.504 172.792 454.647 173.721 453.533 174.764C451.746 176.438 449.852 178.498 448.558 180.604C448.088 181.37 448.516 182.39 448.571 183.212C448.635 184.171 448.241 185.047 447.893 185.922C447.242 187.558 446.387 189.084 445.694 190.693C444.605 193.22 442.538 194.993 440.898 197.169C438.907 199.81 436.381 201.966 434.363 204.599C432.544 206.972 431.314 209.655 429.094 211.724C426.335 214.294 422.903 216.741 422.29 220.706C422.145 221.645 422.096 222.59 421.779 223.492C421.602 223.995 422.133 224.266 422.002 227.084" stroke="white" stroke-width="1.5" stroke-linecap="round" stroke-linejoin="round"/>
<path d="M422.004 227.083C422.004 234.272 422.788 247.474 422.788 254.663C422.788 259.097 427.669 259.435 428.701 263.541C429.698 267.509 433.177 269.966 434.394 274.052C435.721 278.508 436.929 287.611 443.482 287.995C449.533 288.349 455.704 287.995 461.767 287.995C474.093 287.995 485.155 284.074 497.681 284.074C501.8 284.074 508.815 287.166 510.71 290.936C514.081 297.641 513.448 304.026 513.448 311.578C513.448 315.036 514.169 320.507 516.404 323.287C518.73 326.179 521.19 327.068 523.795 329.659C526.408 332.259 530.057 334.778 530.2 338.755C530.385 343.918 530.717 349.536 530.145 354.658C529.471 360.7 525.273 365.465 525.273 371.814C525.273 377.052 525.664 385.044 528.996 389.188C537.19 399.377 533.592 414.063 539.562 424.752C542.296 429.649 547.358 434.498 548.923 439.948C550.319 444.807 558.4 442.889 562.719 442.889C567.371 442.889 571.413 441.025 575.53 438.75C577.447 437.69 583.354 433.379 584.399 431.56C585.772 429.169 585.309 426.267 587.136 424.044C590.274 420.229 593.973 417.512 594.253 412.498C594.544 407.293 601.669 404.079 603.067 399.209C603.69 397.042 603.009 394.163 603.122 391.911C603.357 387.238 604.641 381.002 606.626 376.77C609.697 370.223 617.51 368.73 620.641 362.501C622.096 359.605 623.816 358.083 623.816 354.658C623.816 350.737 623.816 346.815 623.816 342.894C623.816 333.946 622.74 325.57 623.761 316.425C624.724 307.804 630.59 301.598 637.065 296.328C642.526 291.882 645.058 285.247 648.945 279.662C651.564 275.898 652.943 272.306 655.131 268.388C656.606 265.747 649.99 271.806 647.959 272.255C639.353 274.158 638.025 266.208 633.451 261.308C626.772 254.152 620.255 244.511 619.874 234.294C619.75 230.947 617.514 231.619 615.495 229.61C612.951 227.08 610.75 222.949 610.02 219.317C609.305 215.762 608.482 212.395 605.859 209.785C605.02 208.95 602.516 206.23 602.191 205.102C600.93 200.709 598.763 196.691 596.224 192.902" stroke="white" stroke-width="1.5" stroke-linecap="round" stroke-linejoin="round"/>
</g>
<defs>
<clipPath id="clip0">
<rect width="470" height="523" fill="white"/>
</clipPath>
</defs>
</svg>
