<svg width="230" height="208" viewBox="0 0 230 208" fill="none" xmlns="http://www.w3.org/2000/svg">
<mask id="mask0" mask-type="alpha" maskUnits="userSpaceOnUse" x="0" y="-1" width="230" height="209">
<rect y="-1.52588e-05" width="230" height="208" fill="#C4C4C4"/>
</mask>
<g mask="url(#mask0)">
<path d="M124.613 194.091C95.9964 196.066 69.6124 189.857 51.4523 173.612C33.32 157.319 23.4308 131.066 23.2467 102.032C23.0625 72.9978 32.6025 41.2579 55.1385 21.7573C77.6467 2.30462 113.123 -4.86085 134.62 7.87038C156.164 20.6286 163.728 53.2835 174.813 83.9396C185.88 114.521 200.394 143.124 192.263 162.494C184.106 181.912 153.229 192.117 124.613 194.091Z" fill="#50EFF5"/>
<rect x="40.75" y="30.75" width="148.5" height="147.5" rx="9.25" fill="white" stroke="black" stroke-width="1.5"/>
<rect x="60.75" y="50.75" width="108.5" height="107.5" rx="9.25" stroke="black" stroke-width="1.5"/>
<path d="M60.5 75.5H169.5" stroke="black" stroke-width="1.5"/>
<path d="M98.2219 135.448C93.8912 135.448 90.5872 133.749 88.3099 130.352C86.0325 126.917 84.8939 121.896 84.8939 115.288C84.8939 108.643 86.0139 103.621 88.2539 100.224C90.5312 96.7893 93.8539 95.072 98.2219 95.072C102.59 95.072 105.894 96.7707 108.134 100.168C110.411 103.565 111.55 108.587 111.55 115.232C111.55 121.84 110.411 126.861 108.134 130.296C105.857 133.731 102.553 135.448 98.2219 135.448ZM98.2219 133.096C101.881 133.096 104.587 131.64 106.342 128.728C108.134 125.816 109.03 121.317 109.03 115.232C109.03 109.109 108.153 104.611 106.398 101.736C104.643 98.824 101.918 97.368 98.2219 97.368C94.5632 97.368 91.8379 98.824 90.0459 101.736C88.2912 104.648 87.4139 109.147 87.4139 115.232C87.4139 121.28 88.2912 125.779 90.0459 128.728C91.8379 131.64 94.5632 133.096 98.2219 133.096ZM146.08 125.704H139.864V135H137.512V125.704H119.816L119.76 125.816V125.704H118.36V123.856L137.904 95.52H139.864V123.52H146.08V125.704ZM137.512 123.52V100.112L121.328 123.52H137.512Z" fill="black"/>
<path d="M108.776 57.72V69H107.288L107.304 60.84L103.944 67.192H102.824L99.4484 60.92L99.4644 69H97.9764V57.72H99.3044L103.4 65.528L107.464 57.72H108.776ZM118.838 66.216H113.126L111.926 69H110.262L115.286 57.72H116.662L121.686 69H120.038L118.838 66.216ZM118.278 64.904L115.99 59.56L113.686 64.904H118.278ZM126.282 63.736V69H124.634V63.736L120.138 57.72H122.026L125.466 62.376L128.906 57.72H130.778L126.282 63.736Z" fill="black"/>
<circle cx="168.5" cy="50.5" r="10.5" fill="#1436E5"/>
</g>
</svg>
