<svg width="230" height="208" viewBox="0 0 230 208" fill="none" xmlns="http://www.w3.org/2000/svg">
<mask id="mask0" mask-type="alpha" maskUnits="userSpaceOnUse" x="0" y="-1" width="230" height="209">
<rect y="-1.52588e-05" width="230" height="208" fill="#C4C4C4"/>
</mask>
<g mask="url(#mask0)">
<path d="M179.092 50.1649C196.077 71.165 205.546 94.8654 202.832 117.647C200.066 140.433 185.165 162.244 162.875 178.075C140.586 193.905 110.955 203.699 83.7408 196.858C56.5782 190.013 31.8832 166.528 30.0848 143.072C28.2821 119.565 49.376 96.0871 67.0257 70.9738C84.6278 45.9157 98.8422 19.2681 118.172 15.0711C137.554 10.8696 162.107 29.1648 179.092 50.1649Z" fill="#50EFF5"/>
<rect x="40.75" y="28.75" width="148.5" height="45.5" rx="10.25" fill="white" stroke="black" stroke-width="1.5"/>
<rect x="40.75" y="79.75" width="148.5" height="45.5" rx="10.25" fill="white" stroke="black" stroke-width="1.5"/>
<rect x="40.75" y="130.75" width="148.5" height="45.5" rx="10.25" fill="white" stroke="black" stroke-width="1.5"/>
<path d="M64.543 51.122C65.3283 51.35 65.93 51.7427 66.348 52.3C66.766 52.8447 66.975 53.535 66.975 54.371C66.975 55.5363 66.576 56.4547 65.778 57.126C64.9927 57.7973 63.9223 58.133 62.567 58.133C61.7057 58.133 60.876 57.9873 60.078 57.696C59.28 57.4047 58.6087 56.9993 58.064 56.48L58.653 55.283C59.869 56.309 61.161 56.822 62.529 56.822C63.479 56.822 64.201 56.613 64.695 56.195C65.189 55.7643 65.436 55.1373 65.436 54.314C65.436 52.68 64.41 51.863 62.358 51.863H60.819V50.552H62.054C63.042 50.552 63.802 50.3367 64.334 49.906C64.866 49.4627 65.132 48.8293 65.132 48.006C65.132 47.284 64.9167 46.733 64.486 46.353C64.0553 45.9603 63.441 45.764 62.643 45.764C61.351 45.764 60.0843 46.277 58.843 47.303L58.254 46.106C58.7987 45.5867 59.4637 45.1813 60.249 44.89C61.0343 44.5987 61.8513 44.453 62.7 44.453C63.916 44.453 64.8787 44.7633 65.588 45.384C66.31 45.992 66.671 46.8153 66.671 47.854C66.671 48.6267 66.481 49.3043 66.101 49.887C65.7337 50.457 65.2143 50.8687 64.543 51.122ZM71.5276 56.062V57.43C71.5276 57.962 71.4389 58.4433 71.2616 58.874C71.0969 59.3173 70.8056 59.748 70.3876 60.166L69.6656 59.615C70.1596 59.0703 70.4382 58.532 70.5016 58H69.5896V56.062H71.5276ZM82.6524 56.689V58H75.2044V56.689H78.1494V46.543L75.7934 48.025L75.0714 46.828L78.5864 44.605H79.7074V56.689H82.6524ZM94.843 55.093H92.829V58H91.29V55.093H85.096V53.915L91.556 44.605H92.829V53.801H94.843V55.093ZM91.29 53.801V47.208L86.711 53.801H91.29Z" fill="black"/>
<path d="M103.1 54.36C103.507 54.4733 103.82 54.68 104.04 54.98C104.267 55.28 104.38 55.6467 104.38 56.08C104.38 56.68 104.163 57.15 103.73 57.49C103.303 57.83 102.713 58 101.96 58H98.76V50.95H101.86C102.593 50.95 103.167 51.1133 103.58 51.44C104 51.76 104.21 52.21 104.21 52.79C104.21 53.1633 104.11 53.4867 103.91 53.76C103.717 54.0333 103.447 54.2333 103.1 54.36ZM100.02 53.92H101.65C102.537 53.92 102.98 53.59 102.98 52.93C102.98 52.5967 102.87 52.35 102.65 52.19C102.43 52.03 102.097 51.95 101.65 51.95H100.02V53.92ZM101.82 57C102.287 57 102.627 56.9167 102.84 56.75C103.053 56.5833 103.16 56.3233 103.16 55.97C103.16 55.6167 103.05 55.3533 102.83 55.18C102.617 55.0067 102.28 54.92 101.82 54.92H100.02V57H101.82ZM107.149 52.01H104.849V50.95H110.739V52.01H108.439V58H107.149V52.01ZM114.401 58.09C113.708 58.09 113.101 57.9433 112.581 57.65C112.068 57.35 111.671 56.9267 111.391 56.38C111.118 55.8333 110.981 55.1967 110.981 54.47C110.981 53.7433 111.118 53.11 111.391 52.57C111.671 52.0233 112.068 51.6033 112.581 51.31C113.101 51.01 113.708 50.86 114.401 50.86C114.875 50.86 115.321 50.9333 115.741 51.08C116.161 51.2267 116.515 51.4333 116.801 51.7L116.371 52.64C116.051 52.3867 115.735 52.2033 115.421 52.09C115.108 51.97 114.775 51.91 114.421 51.91C113.741 51.91 113.215 52.13 112.841 52.57C112.475 53.01 112.291 53.6433 112.291 54.47C112.291 55.3033 112.475 55.94 112.841 56.38C113.215 56.82 113.741 57.04 114.421 57.04C114.775 57.04 115.108 56.9833 115.421 56.87C115.735 56.75 116.051 56.5633 116.371 56.31L116.801 57.25C116.515 57.5167 116.161 57.7233 115.741 57.87C115.321 58.0167 114.875 58.09 114.401 58.09Z" fill="black"/>
<path d="M67.716 107.093H65.702V110H64.163V107.093H57.969V105.915L64.429 96.605H65.702V105.801H67.716V107.093ZM64.163 105.801V99.208L59.584 105.801H64.163ZM71.5276 108.062V109.43C71.5276 109.962 71.4389 110.443 71.2616 110.874C71.0969 111.317 70.8056 111.748 70.3876 112.166L69.6656 111.615C70.1596 111.07 70.4382 110.532 70.5016 110H69.5896V108.062H71.5276ZM82.9754 108.689V110H74.3494V108.822L79.0424 103.654C79.6757 102.945 80.1317 102.311 80.4104 101.754C80.7017 101.184 80.8474 100.614 80.8474 100.044C80.8474 99.3093 80.632 98.7457 80.2014 98.353C79.7707 97.9603 79.1627 97.764 78.3774 97.764C77.0854 97.764 75.8187 98.277 74.5774 99.303L73.9884 98.106C74.5204 97.5993 75.1854 97.2003 75.9834 96.909C76.794 96.605 77.6047 96.453 78.4154 96.453C79.644 96.453 80.613 96.7697 81.3224 97.403C82.0444 98.0363 82.4054 98.8913 82.4054 99.968C82.4054 100.741 82.228 101.482 81.8734 102.191C81.5314 102.9 80.9614 103.692 80.1634 104.566L76.3634 108.689H82.9754ZM89.827 110.152C88.2943 110.152 87.129 109.569 86.331 108.404C85.533 107.239 85.134 105.541 85.134 103.312C85.134 101.07 85.533 99.3663 86.331 98.201C87.129 97.0357 88.2943 96.453 89.827 96.453C91.3596 96.453 92.525 97.0357 93.323 98.201C94.121 99.3537 94.52 101.051 94.52 103.293C94.52 105.535 94.121 107.239 93.323 108.404C92.525 109.569 91.3596 110.152 89.827 110.152ZM89.827 108.841C90.891 108.841 91.6763 108.391 92.183 107.492C92.6896 106.593 92.943 105.193 92.943 103.293C92.943 101.38 92.6896 99.987 92.183 99.113C91.689 98.2263 90.9036 97.783 89.827 97.783C88.763 97.783 87.9776 98.2263 87.471 99.113C86.9643 99.9997 86.711 101.393 86.711 103.293C86.711 105.193 86.9643 106.593 87.471 107.492C87.9776 108.391 88.763 108.841 89.827 108.841Z" fill="black"/>
<path d="M103.1 106.36C103.507 106.473 103.82 106.68 104.04 106.98C104.267 107.28 104.38 107.647 104.38 108.08C104.38 108.68 104.163 109.15 103.73 109.49C103.303 109.83 102.713 110 101.96 110H98.76V102.95H101.86C102.593 102.95 103.167 103.113 103.58 103.44C104 103.76 104.21 104.21 104.21 104.79C104.21 105.163 104.11 105.487 103.91 105.76C103.717 106.033 103.447 106.233 103.1 106.36ZM100.02 105.92H101.65C102.537 105.92 102.98 105.59 102.98 104.93C102.98 104.597 102.87 104.35 102.65 104.19C102.43 104.03 102.097 103.95 101.65 103.95H100.02V105.92ZM101.82 109C102.287 109 102.627 108.917 102.84 108.75C103.053 108.583 103.16 108.323 103.16 107.97C103.16 107.617 103.05 107.353 102.83 107.18C102.617 107.007 102.28 106.92 101.82 106.92H100.02V109H101.82ZM107.149 104.01H104.849V102.95H110.739V104.01H108.439V110H107.149V104.01ZM114.401 110.09C113.708 110.09 113.101 109.943 112.581 109.65C112.068 109.35 111.671 108.927 111.391 108.38C111.118 107.833 110.981 107.197 110.981 106.47C110.981 105.743 111.118 105.11 111.391 104.57C111.671 104.023 112.068 103.603 112.581 103.31C113.101 103.01 113.708 102.86 114.401 102.86C114.875 102.86 115.321 102.933 115.741 103.08C116.161 103.227 116.515 103.433 116.801 103.7L116.371 104.64C116.051 104.387 115.735 104.203 115.421 104.09C115.108 103.97 114.775 103.91 114.421 103.91C113.741 103.91 113.215 104.13 112.841 104.57C112.475 105.01 112.291 105.643 112.291 106.47C112.291 107.303 112.475 107.94 112.841 108.38C113.215 108.82 113.741 109.04 114.421 109.04C114.775 109.04 115.108 108.983 115.421 108.87C115.735 108.75 116.051 108.563 116.371 108.31L116.801 109.25C116.515 109.517 116.161 109.723 115.741 109.87C115.321 110.017 114.875 110.09 114.401 110.09Z" fill="black"/>
<path d="M63.27 153.583C64.0807 153.583 64.8027 153.76 65.436 154.115C66.0693 154.47 66.5633 154.97 66.918 155.616C67.2727 156.262 67.45 157.003 67.45 157.839C67.45 158.662 67.2663 159.403 66.899 160.062C66.5317 160.721 66.0187 161.234 65.36 161.601C64.7013 161.968 63.9603 162.152 63.137 162.152C61.5157 162.152 60.2617 161.588 59.375 160.461C58.501 159.334 58.064 157.725 58.064 155.635C58.064 154.128 58.2667 152.836 58.672 151.759C59.09 150.682 59.6853 149.865 60.458 149.308C61.2307 148.738 62.1553 148.453 63.232 148.453C64.0047 148.453 64.7583 148.599 65.493 148.89C66.2277 149.169 66.8737 149.574 67.431 150.106L66.842 151.303C66.2087 150.771 65.6007 150.385 65.018 150.144C64.448 149.891 63.8653 149.764 63.27 149.764C62.1173 149.764 61.218 150.277 60.572 151.303C59.9387 152.316 59.622 153.754 59.622 155.616V155.901C59.9133 155.192 60.382 154.628 61.028 154.21C61.674 153.792 62.4213 153.583 63.27 153.583ZM63.061 160.841C63.9223 160.841 64.6127 160.569 65.132 160.024C65.6513 159.479 65.911 158.757 65.911 157.858C65.911 156.971 65.645 156.256 65.113 155.711C64.5937 155.166 63.9033 154.894 63.042 154.894C62.168 154.894 61.4523 155.173 60.895 155.73C60.3503 156.275 60.078 156.984 60.078 157.858C60.078 158.745 60.3503 159.467 60.895 160.024C61.4523 160.569 62.1743 160.841 63.061 160.841ZM73.656 148.453C75.2774 148.453 76.525 149.017 77.399 150.144C78.2857 151.271 78.729 152.88 78.729 154.97C78.729 157.237 78.273 159.004 77.361 160.271C76.449 161.525 75.176 162.152 73.542 162.152C72.782 162.152 72.0347 162.013 71.3 161.734C70.5654 161.443 69.9194 161.031 69.362 160.499L69.951 159.302C70.5844 159.834 71.186 160.227 71.756 160.48C72.3387 160.721 72.9277 160.841 73.523 160.841C74.6757 160.841 75.5687 160.334 76.202 159.321C76.8354 158.295 77.152 156.851 77.152 154.989V154.742C76.8607 155.451 76.3857 156.009 75.727 156.414C75.081 156.819 74.3464 157.022 73.523 157.022C72.7124 157.022 71.9904 156.845 71.357 156.49C70.7237 156.135 70.2297 155.635 69.875 154.989C69.5204 154.343 69.343 153.602 69.343 152.766C69.343 151.943 69.5267 151.202 69.894 150.543C70.2614 149.884 70.7744 149.371 71.433 149.004C72.0917 148.637 72.8327 148.453 73.656 148.453ZM73.751 155.711C74.625 155.711 75.3344 155.439 75.879 154.894C76.4364 154.337 76.715 153.621 76.715 152.747C76.715 151.86 76.4364 151.145 75.879 150.6C75.3344 150.043 74.6187 149.764 73.732 149.764C72.8707 149.764 72.1804 150.036 71.661 150.581C71.1417 151.126 70.882 151.848 70.882 152.747C70.882 153.646 71.1417 154.368 71.661 154.913C72.193 155.445 72.8897 155.711 73.751 155.711ZM82.9016 160.062V161.43C82.9016 161.962 82.8129 162.443 82.6356 162.874C82.4709 163.317 82.1796 163.748 81.7616 164.166L81.0396 163.615C81.5336 163.07 81.8123 162.532 81.8756 162H80.9636V160.062H82.9016ZM89.8084 162.152C88.2757 162.152 87.1104 161.569 86.3124 160.404C85.5144 159.239 85.1154 157.541 85.1154 155.312C85.1154 153.07 85.5144 151.366 86.3124 150.201C87.1104 149.036 88.2757 148.453 89.8084 148.453C91.3411 148.453 92.5064 149.036 93.3044 150.201C94.1024 151.354 94.5014 153.051 94.5014 155.293C94.5014 157.535 94.1024 159.239 93.3044 160.404C92.5064 161.569 91.3411 162.152 89.8084 162.152ZM89.8084 160.841C90.8724 160.841 91.6577 160.391 92.1644 159.492C92.6711 158.593 92.9244 157.193 92.9244 155.293C92.9244 153.38 92.6711 151.987 92.1644 151.113C91.6704 150.226 90.8851 149.783 89.8084 149.783C88.7444 149.783 87.9591 150.226 87.4524 151.113C86.9457 152 86.6924 153.393 86.6924 155.293C86.6924 157.193 86.9457 158.593 87.4524 159.492C87.9591 160.391 88.7444 160.841 89.8084 160.841Z" fill="black"/>
<path d="M98.76 154.95H103.48V155.97H100.02V157.91H103.28V158.92H100.02V160.98H103.48V162H98.76V154.95ZM106.318 156.01H104.018V154.95H109.908V156.01H107.608V162H106.318V156.01ZM116.931 154.95V162H115.671V158.94H112.061V162H110.791V154.95H112.061V157.9H115.671V154.95H116.931Z" fill="black"/>
<path d="M177.53 51.5303C177.823 51.2374 177.823 50.7626 177.53 50.4697L172.757 45.6967C172.464 45.4038 171.99 45.4038 171.697 45.6967C171.404 45.9896 171.404 46.4645 171.697 46.7574L175.939 51L171.697 55.2426C171.404 55.5355 171.404 56.0104 171.697 56.3033C171.99 56.5962 172.464 56.5962 172.757 56.3033L177.53 51.5303ZM162 51.75L177 51.75L177 50.25L162 50.25L162 51.75Z" fill="#1436E5"/>
<path d="M177.53 102.53C177.823 102.237 177.823 101.763 177.53 101.47L172.757 96.6967C172.464 96.4038 171.99 96.4038 171.697 96.6967C171.404 96.9896 171.404 97.4645 171.697 97.7574L175.939 102L171.697 106.243C171.404 106.536 171.404 107.01 171.697 107.303C171.99 107.596 172.464 107.596 172.757 107.303L177.53 102.53ZM125 102.75L177 102.75L177 101.25L125 101.25L125 102.75Z" fill="black"/>
<path d="M177.53 153.53C177.823 153.237 177.823 152.763 177.53 152.47L172.757 147.697C172.464 147.404 171.99 147.404 171.697 147.697C171.404 147.99 171.404 148.464 171.697 148.757L175.939 153L171.697 157.243C171.404 157.536 171.404 158.01 171.697 158.303C171.99 158.596 172.464 158.596 172.757 158.303L177.53 153.53ZM125 153.75L177 153.75L177 152.25L125 152.25L125 153.75Z" fill="black"/>
<path d="M134 51L125 51" stroke="#1436E5" stroke-width="1.5" stroke-linecap="round" stroke-linejoin="round"/>
<path d="M134 102L125 102" stroke="black" stroke-width="1.5" stroke-linecap="round" stroke-linejoin="round"/>
<path d="M134 153L125 153" stroke="black" stroke-width="1.5" stroke-linecap="round" stroke-linejoin="round"/>
<path d="M146 51L137 51" stroke="#1436E5" stroke-width="1.5" stroke-linecap="round" stroke-linejoin="round"/>
<path d="M158 51L149 51" stroke="#1436E5" stroke-width="1.5" stroke-linecap="round" stroke-linejoin="round"/>
<path d="M170 51L161 51" stroke="#1436E5" stroke-width="1.5" stroke-linecap="round" stroke-linejoin="round"/>
</g>
</svg>
