<svg width="12" height="12" viewBox="0 0 12 12" fill="none" xmlns="http://www.w3.org/2000/svg">
<g clip-path="url(#clip0)">
<path fill-rule="evenodd" clip-rule="evenodd" d="M1.423 3.4435C1.438 3.296 1.3815 3.1505 1.2715 3.0515L0.1515 1.7015V1.5H3.6305L6.3195 7.3975L8.6835 1.5H12V1.7015L11.042 2.62C10.9595 2.683 10.9185 2.7865 10.9355 2.889V9.638C10.9185 9.74 10.9595 9.8435 11.042 9.9065L11.9775 10.825V11.0265H7.2715V10.825L8.241 9.884C8.336 9.789 8.336 9.761 8.336 9.6155V4.1605L5.6415 11.0045H5.2775L2.14 4.1605V8.7475C2.114 8.94 2.178 9.1345 2.3135 9.2735L3.574 10.8025V11.0045H0V10.8025L1.2605 9.2735C1.3955 9.134 1.4555 8.9385 1.423 8.7475V3.4435Z" fill="#151828"/>
</g>
<defs>
<clipPath id="clip0">
<rect width="12" height="12" fill="white"/>
</clipPath>
</defs>
</svg>
