<svg width="346" height="464" viewBox="0 0 346 464" fill="none" xmlns="http://www.w3.org/2000/svg">
<mask id="mask0" mask-type="alpha" maskUnits="userSpaceOnUse" x="0" y="0" width="346" height="464">
<rect width="346" height="464" fill="#C4C4C4"/>
</mask>
<g mask="url(#mask0)">
<path d="M295.417 139.263C321.96 179.798 334.91 224.009 326.644 264.636C318.287 305.262 288.805 342.212 247.291 367.213C205.777 392.214 152.324 405.174 105.667 388.538C59.1023 371.901 19.4256 325.667 19.8848 283.111C20.344 240.462 60.9391 201.49 95.7481 159.025C130.465 116.652 159.488 70.878 194.021 66.3741C228.647 61.8703 268.874 98.7284 295.417 139.263Z" fill="#50EFF5"/>
<path d="M302.5 340.5H30L2 274L71.5 150.5L191.5 59.5V104.5L214 78.5L222 95H258.5V88.5L281 103.5V137C297.4 169.8 301.833 205 302 218.5C307.2 220.1 314.333 225 317 227.5V230L305.5 231L307.5 235H321.5L325.5 250.5H336V280.5L302.5 340.5Z" fill="white" fill-opacity="0.5"/>
<path d="M145.322 225.15C147.836 206.22 153.426 178.3 166.853 148.03C182.117 113.65 200.99 90.9201 213.674 77.8701C214.646 79.7101 215.636 81.6401 216.626 83.6701C218.655 87.8201 221.426 93.8701 224.244 101.45C225.673 105.27 227.301 109.99 228.92 115.51" stroke="#B8B8B8" stroke-width="1.5" stroke-miterlimit="10" stroke-linecap="round" stroke-linejoin="round"/>
<path d="M150.189 225.87C154.475 203.46 162.978 171.57 180.947 138.45C191.184 119.57 202.087 104.74 211.714 93.4502C214.714 98.8502 217.78 105.24 220.541 112.63C221.636 115.56 222.589 118.42 223.427 121.18" stroke="#B8B8B8" stroke-width="1.5" stroke-miterlimit="10" stroke-linecap="round" stroke-linejoin="round"/>
<path d="M202.057 105.32C203.095 105.33 204.123 105.34 205.151 105.34C207.037 109.23 209.008 113.86 210.846 119.22C212.293 123.45 213.426 127.45 214.303 131.1" stroke="#B8B8B8" stroke-width="1.5" stroke-miterlimit="10" stroke-linecap="round" stroke-linejoin="round"/>
<path d="M154.141 256.07C159.321 230.91 170.986 189.4 198.963 149.97C211.999 131.6 225.483 118.04 237.072 108.2C240.633 114.48 244.204 121.04 247.746 127.87C249.498 131.25 251.203 134.6 252.85 137.93" stroke="#B8B8B8" stroke-width="1.5" stroke-miterlimit="10" stroke-linecap="round" stroke-linejoin="round"/>
<path d="M205.152 105.34C203.515 111.45 201.915 118.18 200.477 125.5C199.201 131.99 198.211 138.17 197.43 143.95" stroke="#B8B8B8" stroke-width="1.5" stroke-miterlimit="10" stroke-linecap="round" stroke-linejoin="round"/>
<path d="M200.686 147.6C199.601 146.38 198.525 145.16 197.439 143.96C193.202 149.25 188.517 155.62 183.708 163.14C182.232 165.44 175.709 175.72 169.205 189.25C158.531 211.45 152.255 233.38 148.713 248.25" stroke="#B8B8B8" stroke-width="1.5" stroke-miterlimit="10" stroke-linecap="round" stroke-linejoin="round"/>
<path d="M154.141 256.07C167.472 213.41 189.507 166.94 226.654 131.19C229.625 128.33 232.615 125.62 235.615 123.04C236.1 118.1 236.586 113.15 237.081 108.21" stroke="#B8B8B8" stroke-width="1.5" stroke-miterlimit="10" stroke-linecap="round" stroke-linejoin="round"/>
<path d="M235.605 123.04C237.377 125.38 239.367 128.32 241.328 131.96C243.271 135.55 244.747 138.98 245.852 141.96" stroke="#B8B8B8" stroke-width="1.5" stroke-miterlimit="10" stroke-linecap="round" stroke-linejoin="round"/>
<path d="M226.652 131.19C228.471 132.76 230.766 135.06 233.032 138.39C235.861 142.55 237.584 146.72 238.613 149.74" stroke="#B8B8B8" stroke-width="1.5" stroke-miterlimit="10" stroke-linecap="round" stroke-linejoin="round"/>
<path d="M226.655 131.19C225.55 132.8 223.703 135.97 222.856 140.66C222.446 142.9 222.379 144.9 222.417 146.47" stroke="#B8B8B8" stroke-width="1.5" stroke-miterlimit="10" stroke-linecap="round" stroke-linejoin="round"/>
<path d="M232.482 156.93C231.501 155.14 229.996 152.79 227.835 150.58C225.816 148.51 223.883 147.25 222.407 146.48C213.932 156.18 205.114 167.27 196.316 179.88C177.604 206.69 164.015 233.13 154.141 256.07" stroke="#B8B8B8" stroke-width="1.5" stroke-miterlimit="10" stroke-linecap="round" stroke-linejoin="round"/>
<path d="M222.416 146.47C223.264 149.86 224.035 153.89 224.511 158.45C224.701 160.34 224.825 162.15 224.892 163.85" stroke="#B8B8B8" stroke-width="1.5" stroke-miterlimit="10" stroke-linecap="round" stroke-linejoin="round"/>
<path d="M181.498 222.07C190.306 205.45 205.076 181.77 227.672 160.84C246.184 143.7 263.753 134.13 276.722 128.63C260.925 140.5 242.632 156.58 223.844 178.25C211.16 192.87 200.467 207.5 191.544 221.09" stroke="#B8B8B8" stroke-width="1.5" stroke-miterlimit="10" stroke-linecap="round" stroke-linejoin="round"/>
<path d="M276.732 128.62C283.046 140.1 291.054 157.57 296.406 180.84C299.672 195.02 301.157 207.9 301.796 218.46" stroke="#B8B8B8" stroke-width="1.5" stroke-miterlimit="10" stroke-linecap="round" stroke-linejoin="round"/>
<path d="M202.848 217.77C215.941 194.1 235.348 166.95 263.134 147.64C267.324 144.73 271.457 142.17 275.523 139.9C280.122 149.6 285.131 161.81 289.569 176.5C294.196 191.86 296.996 205.95 298.729 217.64" stroke="#B8B8B8" stroke-width="1.5" stroke-miterlimit="10" stroke-linecap="round" stroke-linejoin="round"/>
<path d="M265.543 146C270.095 154.62 274.732 164.11 279.312 174.5C285.864 189.38 291.196 203.65 295.548 216.81" stroke="#B8B8B8" stroke-width="1.5" stroke-miterlimit="10" stroke-linecap="round" stroke-linejoin="round"/>
<path d="M265.554 146C265.963 153.46 266.144 161.92 265.811 171.18C265.478 180.73 264.668 189.36 263.688 196.9C265.411 199.23 267.877 203.11 269.763 208.72C271.286 213.25 271.915 217.37 272.191 220.33" stroke="#B8B8B8" stroke-width="1.5" stroke-miterlimit="10" stroke-linecap="round" stroke-linejoin="round"/>
<path d="M295.558 216.81C292.311 212.58 288.997 209.29 285.759 206.71C253.374 180.92 210.503 212.02 202.838 217.77" stroke="#B8B8B8" stroke-width="1.5" stroke-miterlimit="10" stroke-linecap="round" stroke-linejoin="round"/>
<path d="M295.939 217.31C288.379 218.59 280.456 219.63 272.181 220.33C246.451 222.51 223.102 220.97 202.848 217.76C199.087 218.87 195.325 219.98 191.545 221.08C207.2 223.32 223.464 225.14 240.309 226.41C273.171 228.89 288.036 229.01 316.879 227.54C314.822 225.44 311.728 222.74 307.557 220.62C302.919 218.25 298.758 217.53 295.939 217.31Z" stroke="#B8B8B8" stroke-width="1.5" stroke-miterlimit="10" stroke-linecap="round" stroke-linejoin="round"/>
<path d="M32.8711 228.19C39.9653 213.48 48.6117 197.48 59.115 181.05C66.552 169.42 73.9319 159.12 80.9785 150.06C91.577 158.2 105.565 171.22 118.887 191.45C126.362 202.81 132.019 213.99 136.256 223.81" stroke="#B8B8B8" stroke-width="1.5" stroke-miterlimit="10" stroke-linecap="round" stroke-linejoin="round"/>
<path d="M38.709 226.65C45.0795 213.46 53.2974 198.69 63.8101 183.72C70.1235 174.74 76.3703 166.96 82.2742 160.26C89.8445 166.83 98.4147 175.31 107.223 186.16C117.726 199.11 125.811 212.03 131.886 223.18" stroke="#B8B8B8" stroke-width="1.5" stroke-miterlimit="10" stroke-linecap="round" stroke-linejoin="round"/>
<path d="M82.2754 160.24C82.8086 171.16 83.1038 182.6 83.0848 194.54C83.0753 199.27 83.0181 203.92 82.9229 208.49" stroke="#B8B8B8" stroke-width="1.5" stroke-miterlimit="10" stroke-linecap="round" stroke-linejoin="round"/>
<path d="M17.4824 232.4C27.7095 229.58 37.9271 226.76 48.1542 223.94C57.5433 226.42 69.5226 228.42 83.4063 227.97C97.7757 227.51 110.041 224.56 119.534 221.33C130.495 222.95 141.455 224.58 152.425 226.2C131.009 228.34 108.793 230 85.8536 231.07C62.2855 232.17 39.4793 232.57 17.4824 232.4Z" stroke="#B8B8B8" stroke-width="1.5" stroke-miterlimit="10" stroke-linecap="round" stroke-linejoin="round"/>
<path d="M48.1562 223.94C53.1174 219.37 65.4681 209.36 82.9322 208.49C101.139 207.59 114.432 217.15 119.546 221.33" stroke="#B8B8B8" stroke-width="1.5" stroke-miterlimit="10" stroke-linecap="round" stroke-linejoin="round"/>
<path d="M55.1172 187.41C60.564 171.78 68.401 154.06 79.8184 136.89C82.4276 132.95 85.0558 129.31 87.6649 125.93C95.1115 133.43 103.367 143.05 111.557 155.24C128.421 180.35 138.096 206.1 143.666 224.91" stroke="#B8B8B8" stroke-width="1.5" stroke-miterlimit="10" stroke-linecap="round" stroke-linejoin="round"/>
<path d="M76.7988 155.53C78.1986 152.86 79.8365 150 81.7505 147.07C83.9216 143.72 86.0832 140.85 88.0829 138.42C94.8629 146.17 102.262 155.76 109.613 167.49C122.307 187.73 130.705 207.71 136.257 223.81" stroke="#B8B8B8" stroke-width="1.5" stroke-miterlimit="10" stroke-linecap="round" stroke-linejoin="round"/>
<path d="M62.0977 169.61C65.9257 151.88 72.2391 130.6 82.9613 109.05C85.9038 103.12 88.9319 97.7098 91.941 92.7598C101.397 106.07 113.462 125.92 123.755 152.98C132.478 175.91 137.277 197.09 140.039 213.49" stroke="#B8B8B8" stroke-width="1.5" stroke-miterlimit="10" stroke-linecap="round" stroke-linejoin="round"/>
<path d="M78.1133 139.5C79.9035 133.05 82.5507 125.41 86.5406 117.51C88.3594 113.92 90.1973 110.75 91.997 107.96C96.2059 114.17 100.577 121.3 104.871 129.42C113.67 146.05 119.698 162.17 123.869 175.85" stroke="#B8B8B8" stroke-width="1.5" stroke-miterlimit="10" stroke-linecap="round" stroke-linejoin="round"/>
<path d="M97.3585 116.26C96.4824 117.38 95.5112 118.79 94.578 120.55C92.7782 123.97 91.845 127.32 91.3594 129.75" stroke="#B8B8B8" stroke-width="1.5" stroke-miterlimit="10" stroke-linecap="round" stroke-linejoin="round"/>
<path d="M85.75 153.88C86.3785 152.49 87.226 150.88 88.3401 149.25C89.9589 146.88 91.6063 145.26 92.9204 144.16" stroke="#B8B8B8" stroke-width="1.5" stroke-miterlimit="10" stroke-linecap="round" stroke-linejoin="round"/>
<path d="M29.7105 235.73C28.7107 238.48 27.7108 241.22 26.7109 243.97C66.3814 243.97 106.061 243.97 145.732 243.97C144.589 239.71 143.437 235.45 142.294 231.19" stroke="#B8B8B8" stroke-width="1.5" stroke-miterlimit="10" stroke-linecap="round" stroke-linejoin="round"/>
<path d="M139.21 250.71H29.8926V254.74H139.21V250.71Z" stroke="#B8B8B8" stroke-width="1.5" stroke-miterlimit="10" stroke-linecap="round" stroke-linejoin="round"/>
<path d="M339.847 311.52C301.529 311.71 263.201 311.9 224.883 312.08V292.95H215.274V234.95C250.765 234.95 286.255 234.95 321.745 234.95M145.732 243.97C144.418 239.63 155.454 260.4 154.14 256.07L145.732 243.97ZM145.732 243.97V258.67H26.7109C26.7109 253.77 26.7109 248.87 26.7109 243.97H145.732ZM215.265 234.94L196.096 240.41L182.222 231.07C172.861 239.4 163.501 247.73 154.14 256.06" stroke="#B8B8B8" stroke-width="1.5" stroke-miterlimit="10" stroke-linecap="round" stroke-linejoin="round"/>
<path d="M323.917 243.75H220.418V250.7H323.917V243.75V243.75Z" stroke="#B8B8B8" stroke-width="1.5" stroke-miterlimit="10" stroke-linecap="round" stroke-linejoin="round"/>
<path d="M333.021 259.85H220.418V264.41H333.011V259.85H333.021Z" stroke="#B8B8B8" stroke-width="1.5" stroke-miterlimit="10" stroke-linecap="round" stroke-linejoin="round"/>
<path d="M343.981 280.8H220.418V288.39H343.981V280.8Z" stroke="#B8B8B8" stroke-width="1.5" stroke-miterlimit="10" stroke-linecap="round" stroke-linejoin="round"/>
<path d="M145.732 258.67C154.874 278.52 164.025 298.37 173.166 318.22H5V302.22H158.226C160.863 302.23 163.501 302.23 166.139 302.24" stroke="#B8B8B8" stroke-width="1.5" stroke-miterlimit="10" stroke-linecap="round" stroke-linejoin="round"/>
<path d="M26.7097 258.67H17.4824V294.91H162.909" stroke="#B8B8B8" stroke-width="1.5" stroke-miterlimit="10" stroke-linecap="round" stroke-linejoin="round"/>
<path d="M20.8555 294.9V302.21" stroke="#B8B8B8" stroke-width="1.5" stroke-miterlimit="10" stroke-linecap="round" stroke-linejoin="round"/>
<path d="M224.883 312.08C205.305 308.8 185.727 305.51 166.148 302.23" stroke="#B8B8B8" stroke-width="1.5" stroke-miterlimit="10" stroke-linecap="round" stroke-linejoin="round"/>
<path d="M150.418 268.83C162.397 269.12 174.386 269.4 186.365 269.69C186.841 281.75 187.317 293.82 187.794 305.88" stroke="#B8B8B8" stroke-width="1.5" stroke-miterlimit="10" stroke-linecap="round" stroke-linejoin="round"/>
<path d="M154.141 256.07C155.455 260.41 156.769 264.75 158.083 269.08" stroke="#B8B8B8" stroke-width="1.5" stroke-miterlimit="10" stroke-linecap="round" stroke-linejoin="round"/>
<path d="M161.416 249.6C162.93 245.24 165.844 238.37 171.253 231.71C176.395 225.38 181.689 221.84 185.155 219.92C185.565 224.42 185.974 228.92 186.393 233.41" stroke="#B8B8B8" stroke-width="1.5" stroke-miterlimit="10" stroke-linecap="round" stroke-linejoin="round"/>
<path d="M182.926 231.07C182.45 228.07 181.974 225.07 181.498 222.07" stroke="#B8B8B8" stroke-width="1.5" stroke-miterlimit="10" stroke-linecap="round" stroke-linejoin="round"/>
<path d="M197.001 224.17C194.611 228.02 192.24 231.88 189.85 235.73" stroke="#B8B8B8" stroke-width="1.5" stroke-miterlimit="10" stroke-linecap="round" stroke-linejoin="round"/>
<path d="M305.662 231.27C306.367 232.5 307.081 233.72 307.795 234.95" stroke="#B8B8B8" stroke-width="1.5" stroke-miterlimit="10" stroke-linecap="round" stroke-linejoin="round"/>
<path d="M26.7109 258.67V294.91" stroke="#B8B8B8" stroke-width="1.5" stroke-miterlimit="10" stroke-linecap="round" stroke-linejoin="round"/>
<path d="M36.2344 258.67V294.91" stroke="#B8B8B8" stroke-width="1.5" stroke-miterlimit="10" stroke-linecap="round" stroke-linejoin="round"/>
<path d="M45.7578 258.67V294.91" stroke="#B8B8B8" stroke-width="1.5" stroke-miterlimit="10" stroke-linecap="round" stroke-linejoin="round"/>
<path d="M55.2793 258.67V294.91" stroke="#B8B8B8" stroke-width="1.5" stroke-miterlimit="10" stroke-linecap="round" stroke-linejoin="round"/>
<path d="M64.8008 258.67V294.91" stroke="#B8B8B8" stroke-width="1.5" stroke-miterlimit="10" stroke-linecap="round" stroke-linejoin="round"/>
<path d="M74.334 258.67V294.91" stroke="#B8B8B8" stroke-width="1.5" stroke-miterlimit="10" stroke-linecap="round" stroke-linejoin="round"/>
<path d="M83.8555 258.67V294.91" stroke="#B8B8B8" stroke-width="1.5" stroke-miterlimit="10" stroke-linecap="round" stroke-linejoin="round"/>
<path d="M93.3789 258.67V294.91" stroke="#B8B8B8" stroke-width="1.5" stroke-miterlimit="10" stroke-linecap="round" stroke-linejoin="round"/>
<path d="M102.9 258.67V294.91" stroke="#B8B8B8" stroke-width="1.5" stroke-miterlimit="10" stroke-linecap="round" stroke-linejoin="round"/>
<path d="M112.424 258.67V294.91" stroke="#B8B8B8" stroke-width="1.5" stroke-miterlimit="10" stroke-linecap="round" stroke-linejoin="round"/>
<path d="M121.945 258.67V294.91" stroke="#B8B8B8" stroke-width="1.5" stroke-miterlimit="10" stroke-linecap="round" stroke-linejoin="round"/>
<path d="M131.469 258.67V294.91" stroke="#B8B8B8" stroke-width="1.5" stroke-miterlimit="10" stroke-linecap="round" stroke-linejoin="round"/>
<path d="M140.99 258.67V294.91" stroke="#B8B8B8" stroke-width="1.5" stroke-miterlimit="10" stroke-linecap="round" stroke-linejoin="round"/>
<path d="M150.418 268.83C150.418 277.52 150.427 286.21 150.427 294.9" stroke="#B8B8B8" stroke-width="1.5" stroke-miterlimit="10" stroke-linecap="round" stroke-linejoin="round"/>
<path d="M160.035 289.7C160.035 291.43 160.035 293.17 160.035 294.9" stroke="#B8B8B8" stroke-width="1.5" stroke-miterlimit="10" stroke-linecap="round" stroke-linejoin="round"/>
<path d="M17.4824 302.21V318.21" stroke="#B8B8B8" stroke-width="1.5" stroke-miterlimit="10" stroke-linecap="round" stroke-linejoin="round"/>
<path d="M8.55273 302.21V318.21" stroke="#B8B8B8" stroke-width="1.5" stroke-miterlimit="10" stroke-linecap="round" stroke-linejoin="round"/>
<path d="M26.7109 302.21V318.21" stroke="#B8B8B8" stroke-width="1.5" stroke-miterlimit="10" stroke-linecap="round" stroke-linejoin="round"/>
<path d="M36.2344 302.21V318.21" stroke="#B8B8B8" stroke-width="1.5" stroke-miterlimit="10" stroke-linecap="round" stroke-linejoin="round"/>
<path d="M45.7578 302.21V318.21" stroke="#B8B8B8" stroke-width="1.5" stroke-miterlimit="10" stroke-linecap="round" stroke-linejoin="round"/>
<path d="M55.2793 302.21V318.21" stroke="#B8B8B8" stroke-width="1.5" stroke-miterlimit="10" stroke-linecap="round" stroke-linejoin="round"/>
<path d="M64.8008 302.21V318.21" stroke="#B8B8B8" stroke-width="1.5" stroke-miterlimit="10" stroke-linecap="round" stroke-linejoin="round"/>
<path d="M74.334 302.21V318.21" stroke="#B8B8B8" stroke-width="1.5" stroke-miterlimit="10" stroke-linecap="round" stroke-linejoin="round"/>
<path d="M83.8555 302.21V318.21" stroke="#B8B8B8" stroke-width="1.5" stroke-miterlimit="10" stroke-linecap="round" stroke-linejoin="round"/>
<path d="M93.3789 302.21V318.21" stroke="#B8B8B8" stroke-width="1.5" stroke-miterlimit="10" stroke-linecap="round" stroke-linejoin="round"/>
<path d="M102.9 302.21V318.21" stroke="#B8B8B8" stroke-width="1.5" stroke-miterlimit="10" stroke-linecap="round" stroke-linejoin="round"/>
<path d="M112.424 302.21V318.21" stroke="#B8B8B8" stroke-width="1.5" stroke-miterlimit="10" stroke-linecap="round" stroke-linejoin="round"/>
<path d="M121.945 302.21V318.21" stroke="#B8B8B8" stroke-width="1.5" stroke-miterlimit="10" stroke-linecap="round" stroke-linejoin="round"/>
<path d="M131.469 302.21V318.21" stroke="#B8B8B8" stroke-width="1.5" stroke-miterlimit="10" stroke-linecap="round" stroke-linejoin="round"/>
<path d="M140.99 302.21V318.21" stroke="#B8B8B8" stroke-width="1.5" stroke-miterlimit="10" stroke-linecap="round" stroke-linejoin="round"/>
<path d="M150.418 302.21C150.427 307.55 150.427 312.87 150.437 318.21" stroke="#B8B8B8" stroke-width="1.5" stroke-miterlimit="10" stroke-linecap="round" stroke-linejoin="round"/>
<path d="M159.941 302.22C159.941 307.56 159.941 312.89 159.941 318.22" stroke="#B8B8B8" stroke-width="1.5" stroke-miterlimit="10" stroke-linecap="round" stroke-linejoin="round"/>
<path d="M169.023 308.34C169.023 311.63 169.023 314.92 169.023 318.21" stroke="#B8B8B8" stroke-width="1.5" stroke-miterlimit="10" stroke-linecap="round" stroke-linejoin="round"/>
<path d="M220.418 234.94V243.75V292.95" stroke="#B8B8B8" stroke-width="1.5" stroke-miterlimit="10" stroke-linecap="round" stroke-linejoin="round"/>
<path d="M224.834 234.94V243.75" stroke="#B8B8B8" stroke-width="1.5" stroke-miterlimit="10" stroke-linecap="round" stroke-linejoin="round"/>
<path d="M233.652 234.94V243.75" stroke="#B8B8B8" stroke-width="1.5" stroke-miterlimit="10" stroke-linecap="round" stroke-linejoin="round"/>
<path d="M242.461 234.94V243.75" stroke="#B8B8B8" stroke-width="1.5" stroke-miterlimit="10" stroke-linecap="round" stroke-linejoin="round"/>
<path d="M251.27 234.94V243.75" stroke="#B8B8B8" stroke-width="1.5" stroke-miterlimit="10" stroke-linecap="round" stroke-linejoin="round"/>
<path d="M260.076 234.94V243.75" stroke="#B8B8B8" stroke-width="1.5" stroke-miterlimit="10" stroke-linecap="round" stroke-linejoin="round"/>
<path d="M268.896 234.94V243.75" stroke="#B8B8B8" stroke-width="1.5" stroke-miterlimit="10" stroke-linecap="round" stroke-linejoin="round"/>
<path d="M277.705 234.94V243.75" stroke="#B8B8B8" stroke-width="1.5" stroke-miterlimit="10" stroke-linecap="round" stroke-linejoin="round"/>
<path d="M286.74 235.22V244" stroke="#B8B8B8" stroke-width="1.5" stroke-miterlimit="10" stroke-linecap="round" stroke-linejoin="round"/>
<path d="M295.33 234.94V243.75" stroke="#B8B8B8" stroke-width="1.5" stroke-miterlimit="10" stroke-linecap="round" stroke-linejoin="round"/>
<path d="M304.148 234.94V243.75" stroke="#B8B8B8" stroke-width="1.5" stroke-miterlimit="10" stroke-linecap="round" stroke-linejoin="round"/>
<path d="M312.957 234.94V243.75" stroke="#B8B8B8" stroke-width="1.5" stroke-miterlimit="10" stroke-linecap="round" stroke-linejoin="round"/>
<path d="M321.734 234.94V243.75" stroke="#B8B8B8" stroke-width="1.5" stroke-miterlimit="10" stroke-linecap="round" stroke-linejoin="round"/>
<path d="M330.734 264.41V280.81" stroke="#B8B8B8" stroke-width="1.5" stroke-miterlimit="10" stroke-linecap="round" stroke-linejoin="round"/>
<path d="M330.811 250.7V259.25" stroke="#B8B8B8" stroke-width="1.5" stroke-miterlimit="10" stroke-linecap="round" stroke-linejoin="round"/>
<path d="M339.848 266.22V280.8" stroke="#B8B8B8" stroke-width="1.5" stroke-miterlimit="10" stroke-linecap="round" stroke-linejoin="round"/>
<path d="M330.734 288.39V311.51" stroke="#B8B8B8" stroke-width="1.5" stroke-miterlimit="10" stroke-linecap="round" stroke-linejoin="round"/>
<path d="M339.848 288.39V311.51" stroke="#B8B8B8" stroke-width="1.5" stroke-miterlimit="10" stroke-linecap="round" stroke-linejoin="round"/>
<path d="M224.834 251.05V259.86" stroke="#B8B8B8" stroke-width="1.5" stroke-miterlimit="10" stroke-linecap="round" stroke-linejoin="round"/>
<path d="M233.652 251.05V259.86" stroke="#B8B8B8" stroke-width="1.5" stroke-miterlimit="10" stroke-linecap="round" stroke-linejoin="round"/>
<path d="M242.461 251.05V259.86" stroke="#B8B8B8" stroke-width="1.5" stroke-miterlimit="10" stroke-linecap="round" stroke-linejoin="round"/>
<path d="M251.27 251.05V259.86" stroke="#B8B8B8" stroke-width="1.5" stroke-miterlimit="10" stroke-linecap="round" stroke-linejoin="round"/>
<path d="M260.076 251.05V259.86" stroke="#B8B8B8" stroke-width="1.5" stroke-miterlimit="10" stroke-linecap="round" stroke-linejoin="round"/>
<path d="M268.896 251.05V259.86" stroke="#B8B8B8" stroke-width="1.5" stroke-miterlimit="10" stroke-linecap="round" stroke-linejoin="round"/>
<path d="M277.705 251.05V259.86" stroke="#B8B8B8" stroke-width="1.5" stroke-miterlimit="10" stroke-linecap="round" stroke-linejoin="round"/>
<path d="M286.521 251.05V259.86" stroke="#B8B8B8" stroke-width="1.5" stroke-miterlimit="10" stroke-linecap="round" stroke-linejoin="round"/>
<path d="M295.33 251.05V259.86" stroke="#B8B8B8" stroke-width="1.5" stroke-miterlimit="10" stroke-linecap="round" stroke-linejoin="round"/>
<path d="M304.148 251.05V259.86" stroke="#B8B8B8" stroke-width="1.5" stroke-miterlimit="10" stroke-linecap="round" stroke-linejoin="round"/>
<path d="M312.957 251.05V259.86" stroke="#B8B8B8" stroke-width="1.5" stroke-miterlimit="10" stroke-linecap="round" stroke-linejoin="round"/>
<path d="M321.734 251.05V259.86" stroke="#B8B8B8" stroke-width="1.5" stroke-miterlimit="10" stroke-linecap="round" stroke-linejoin="round"/>
<path d="M224.834 264.41V280.81" stroke="#B8B8B8" stroke-width="1.5" stroke-miterlimit="10" stroke-linecap="round" stroke-linejoin="round"/>
<path d="M233.652 264.41V280.81" stroke="#B8B8B8" stroke-width="1.5" stroke-miterlimit="10" stroke-linecap="round" stroke-linejoin="round"/>
<path d="M242.461 264.41V280.81" stroke="#B8B8B8" stroke-width="1.5" stroke-miterlimit="10" stroke-linecap="round" stroke-linejoin="round"/>
<path d="M251.27 264.41V280.81" stroke="#B8B8B8" stroke-width="1.5" stroke-miterlimit="10" stroke-linecap="round" stroke-linejoin="round"/>
<path d="M260.076 264.41V280.81" stroke="#B8B8B8" stroke-width="1.5" stroke-miterlimit="10" stroke-linecap="round" stroke-linejoin="round"/>
<path d="M268.896 264.41V280.81" stroke="#B8B8B8" stroke-width="1.5" stroke-miterlimit="10" stroke-linecap="round" stroke-linejoin="round"/>
<path d="M277.705 264.41V280.81" stroke="#B8B8B8" stroke-width="1.5" stroke-miterlimit="10" stroke-linecap="round" stroke-linejoin="round"/>
<path d="M286.521 264.41V280.81" stroke="#B8B8B8" stroke-width="1.5" stroke-miterlimit="10" stroke-linecap="round" stroke-linejoin="round"/>
<path d="M295.33 264.41V280.81" stroke="#B8B8B8" stroke-width="1.5" stroke-miterlimit="10" stroke-linecap="round" stroke-linejoin="round"/>
<path d="M304.148 264.41V280.81" stroke="#B8B8B8" stroke-width="1.5" stroke-miterlimit="10" stroke-linecap="round" stroke-linejoin="round"/>
<path d="M312.957 264.41V280.81" stroke="#B8B8B8" stroke-width="1.5" stroke-miterlimit="10" stroke-linecap="round" stroke-linejoin="round"/>
<path d="M321.734 264.41V280.81" stroke="#B8B8B8" stroke-width="1.5" stroke-miterlimit="10" stroke-linecap="round" stroke-linejoin="round"/>
<path d="M224.834 288.39V292.95" stroke="#B8B8B8" stroke-width="1.5" stroke-miterlimit="10" stroke-linecap="round" stroke-linejoin="round"/>
<path d="M233.652 288.39V311.51" stroke="#B8B8B8" stroke-width="1.5" stroke-miterlimit="10" stroke-linecap="round" stroke-linejoin="round"/>
<path d="M242.451 288.39V311.51" stroke="#B8B8B8" stroke-width="1.5" stroke-miterlimit="10" stroke-linecap="round" stroke-linejoin="round"/>
<path d="M251.27 288.39V311.51" stroke="#B8B8B8" stroke-width="1.5" stroke-miterlimit="10" stroke-linecap="round" stroke-linejoin="round"/>
<path d="M260.076 288.39V311.51" stroke="#B8B8B8" stroke-width="1.5" stroke-miterlimit="10" stroke-linecap="round" stroke-linejoin="round"/>
<path d="M268.896 288.39V311.51" stroke="#B8B8B8" stroke-width="1.5" stroke-miterlimit="10" stroke-linecap="round" stroke-linejoin="round"/>
<path d="M277.705 288.39V311.51" stroke="#B8B8B8" stroke-width="1.5" stroke-miterlimit="10" stroke-linecap="round" stroke-linejoin="round"/>
<path d="M286.521 288.39V311.51" stroke="#B8B8B8" stroke-width="1.5" stroke-miterlimit="10" stroke-linecap="round" stroke-linejoin="round"/>
<path d="M295.33 288.39V311.51" stroke="#B8B8B8" stroke-width="1.5" stroke-miterlimit="10" stroke-linecap="round" stroke-linejoin="round"/>
<path d="M304.148 288.39V311.51" stroke="#B8B8B8" stroke-width="1.5" stroke-miterlimit="10" stroke-linecap="round" stroke-linejoin="round"/>
<path d="M312.957 288.39V311.51" stroke="#B8B8B8" stroke-width="1.5" stroke-miterlimit="10" stroke-linecap="round" stroke-linejoin="round"/>
<path d="M321.734 288.39V311.51" stroke="#B8B8B8" stroke-width="1.5" stroke-miterlimit="10" stroke-linecap="round" stroke-linejoin="round"/>
<path d="M17.4851 232.4C17.4185 233.37 17.3518 234.33 17.2852 235.29C37.7108 236.16 59.2506 236.3 81.7902 235.45C106.663 234.53 130.278 232.5 152.513 229.72C152.485 228.55 152.447 227.37 152.428 226.19" stroke="#B8B8B8" stroke-width="1.5" stroke-miterlimit="10" stroke-linecap="round" stroke-linejoin="round"/>
<path d="M191.555 221.09V223.31C213.447 226.89 237.262 229.59 262.792 230.78C287.893 231.94 295.302 231.51 317.003 230.03C316.965 229.2 316.927 228.38 316.889 227.55" stroke="#B8B8B8" stroke-width="1.5" stroke-miterlimit="10" stroke-linecap="round" stroke-linejoin="round"/>
<path d="M50.5176 250.71V254.74" stroke="#B8B8B8" stroke-width="1.5" stroke-miterlimit="10" stroke-linecap="round" stroke-linejoin="round"/>
<path d="M74.334 250.71V254.74H102.911V250.71" stroke="#B8B8B8" stroke-width="1.5" stroke-miterlimit="10" stroke-linecap="round" stroke-linejoin="round"/>
<path d="M121.945 254.74V250.71" stroke="#B8B8B8" stroke-width="1.5" stroke-miterlimit="10" stroke-linecap="round" stroke-linejoin="round"/>
<path d="M94.6544 94.9201V55.3901H69.7246V97.7801V100.64" stroke="#B8B8B8" stroke-width="1.5" stroke-miterlimit="10" stroke-linecap="round" stroke-linejoin="round"/>
<path d="M151.445 193.45C151.483 129.97 151.521 66.48 151.559 3H122.363C122.392 30.78 122.411 58.56 122.439 86.33" stroke="#B8B8B8" stroke-width="1.5" stroke-miterlimit="10" stroke-linecap="round" stroke-linejoin="round"/>
<path d="M94.6543 86.3301C110.995 86.3801 127.326 86.4301 143.666 86.4801C143.4 132.62 143.133 178.77 142.857 224.9" stroke="#B8B8B8" stroke-width="1.5" stroke-miterlimit="10" stroke-linecap="round" stroke-linejoin="round"/>
<path d="M161.586 160.96C161.881 127.23 162.186 93.5 162.481 59.77H191.001C191.096 74.69 191.191 89.6 191.286 104.51" stroke="#B8B8B8" stroke-width="1.5" stroke-miterlimit="10" stroke-linecap="round" stroke-linejoin="round"/>
<path d="M151.561 39.3601C160.559 39.2901 169.558 39.2101 178.557 39.1401V59.7801" stroke="#B8B8B8" stroke-width="1.5" stroke-miterlimit="10" stroke-linecap="round" stroke-linejoin="round"/>
<path d="M255.231 95.79C244.089 95.61 232.958 95.43 221.816 95.25C237.348 95.43 252.879 95.61 268.419 95.79C268.419 108.01 268.419 120.23 268.419 132.45" stroke="#B8B8B8" stroke-width="1.5" stroke-miterlimit="10" stroke-linecap="round" stroke-linejoin="round"/>
<path d="M280.883 136.65C280.883 112.85 280.883 89.0598 280.883 65.2598H258.572V95.7798" stroke="#B8B8B8" stroke-width="1.5" stroke-miterlimit="10" stroke-linecap="round" stroke-linejoin="round"/>
<path d="M263.334 65.2599V57.8999H277.322V65.2599" stroke="#B8B8B8" stroke-width="1.5" stroke-miterlimit="10" stroke-linecap="round" stroke-linejoin="round"/>
<path d="M5 318.21C130.411 318.21 218.036 318.21 343.447 318.21C342.247 315.98 341.047 313.75 339.847 311.51" stroke="#B8B8B8" stroke-width="1.5" stroke-miterlimit="10" stroke-linecap="round" stroke-linejoin="round"/>
<path d="M343.447 318.21C343.561 325.56 343.685 332.9 343.799 340.25C218.274 340.25 130.525 340.25 5 340.25C5 332.9 5 325.56 5 318.21" stroke="#B8B8B8" stroke-width="1.5" stroke-miterlimit="10" stroke-linecap="round" stroke-linejoin="round"/>
<path d="M41.8047 210.61V100.96H86.2269" stroke="#B8B8B8" stroke-width="1.5" stroke-miterlimit="10" stroke-linecap="round" stroke-linejoin="round"/>
<path d="M323.916 250.7H339.847V266.22" stroke="#B8B8B8" stroke-width="1.5" stroke-miterlimit="10" stroke-linecap="round" stroke-linejoin="round"/>
<mask id="mask1" mask-type="alpha" maskUnits="userSpaceOnUse" x="4" y="2" width="341" height="339">
<path d="M145.322 225.15C147.836 206.22 153.426 178.3 166.853 148.03C182.117 113.65 200.99 90.9201 213.674 77.8701C214.646 79.7101 215.636 81.6401 216.626 83.6701C218.655 87.8201 221.426 93.8701 224.244 101.45C225.673 105.27 227.301 109.99 228.92 115.51" stroke="#B8B8B8" stroke-width="1.5" stroke-miterlimit="10" stroke-linecap="round" stroke-linejoin="round"/>
<path d="M150.189 225.87C154.475 203.46 162.978 171.57 180.947 138.45C191.184 119.57 202.087 104.74 211.714 93.4502C214.714 98.8502 217.78 105.24 220.541 112.63C221.636 115.56 222.589 118.42 223.427 121.18" stroke="#B8B8B8" stroke-width="1.5" stroke-miterlimit="10" stroke-linecap="round" stroke-linejoin="round"/>
<path d="M202.057 105.32C203.095 105.33 204.123 105.34 205.151 105.34C207.037 109.23 209.008 113.86 210.846 119.22C212.293 123.45 213.426 127.45 214.303 131.1" stroke="#B8B8B8" stroke-width="1.5" stroke-miterlimit="10" stroke-linecap="round" stroke-linejoin="round"/>
<path d="M154.141 256.07C159.321 230.91 170.986 189.4 198.963 149.97C211.999 131.6 225.483 118.04 237.072 108.2C240.633 114.48 244.204 121.04 247.746 127.87C249.498 131.25 251.203 134.6 252.85 137.93" stroke="#B8B8B8" stroke-width="1.5" stroke-miterlimit="10" stroke-linecap="round" stroke-linejoin="round"/>
<path d="M205.152 105.34C203.515 111.45 201.915 118.18 200.477 125.5C199.201 131.99 198.211 138.17 197.43 143.95" stroke="#B8B8B8" stroke-width="1.5" stroke-miterlimit="10" stroke-linecap="round" stroke-linejoin="round"/>
<path d="M200.686 147.6C199.601 146.38 198.525 145.16 197.439 143.96C193.202 149.25 188.517 155.62 183.708 163.14C182.232 165.44 175.709 175.72 169.205 189.25C158.531 211.45 152.255 233.38 148.713 248.25" stroke="#B8B8B8" stroke-width="1.5" stroke-miterlimit="10" stroke-linecap="round" stroke-linejoin="round"/>
<path d="M154.141 256.07C167.472 213.41 189.507 166.94 226.654 131.19C229.625 128.33 232.615 125.62 235.615 123.04C236.1 118.1 236.586 113.15 237.081 108.21" stroke="#B8B8B8" stroke-width="1.5" stroke-miterlimit="10" stroke-linecap="round" stroke-linejoin="round"/>
<path d="M235.605 123.04C237.377 125.38 239.367 128.32 241.328 131.96C243.271 135.55 244.747 138.98 245.852 141.96" stroke="#B8B8B8" stroke-width="1.5" stroke-miterlimit="10" stroke-linecap="round" stroke-linejoin="round"/>
<path d="M226.652 131.19C228.471 132.76 230.766 135.06 233.032 138.39C235.861 142.55 237.584 146.72 238.613 149.74" stroke="#B8B8B8" stroke-width="1.5" stroke-miterlimit="10" stroke-linecap="round" stroke-linejoin="round"/>
<path d="M226.655 131.19C225.55 132.8 223.703 135.97 222.856 140.66C222.446 142.9 222.379 144.9 222.417 146.47" stroke="#B8B8B8" stroke-width="1.5" stroke-miterlimit="10" stroke-linecap="round" stroke-linejoin="round"/>
<path d="M232.482 156.93C231.501 155.14 229.996 152.79 227.835 150.58C225.816 148.51 223.883 147.25 222.407 146.48C213.932 156.18 205.114 167.27 196.316 179.88C177.604 206.69 164.015 233.13 154.141 256.07" stroke="#B8B8B8" stroke-width="1.5" stroke-miterlimit="10" stroke-linecap="round" stroke-linejoin="round"/>
<path d="M222.416 146.47C223.264 149.86 224.035 153.89 224.511 158.45C224.701 160.34 224.825 162.15 224.892 163.85" stroke="#B8B8B8" stroke-width="1.5" stroke-miterlimit="10" stroke-linecap="round" stroke-linejoin="round"/>
<path d="M181.498 222.07C190.306 205.45 205.076 181.77 227.672 160.84C246.184 143.7 263.753 134.13 276.722 128.63C260.925 140.5 242.632 156.58 223.844 178.25C211.16 192.87 200.467 207.5 191.544 221.09" stroke="#B8B8B8" stroke-width="1.5" stroke-miterlimit="10" stroke-linecap="round" stroke-linejoin="round"/>
<path d="M276.732 128.62C283.046 140.1 291.054 157.57 296.406 180.84C299.672 195.02 301.157 207.9 301.796 218.46" stroke="#B8B8B8" stroke-width="1.5" stroke-miterlimit="10" stroke-linecap="round" stroke-linejoin="round"/>
<path d="M202.848 217.77C215.941 194.1 235.348 166.95 263.134 147.64C267.324 144.73 271.457 142.17 275.523 139.9C280.122 149.6 285.131 161.81 289.569 176.5C294.196 191.86 296.996 205.95 298.729 217.64" stroke="#B8B8B8" stroke-width="1.5" stroke-miterlimit="10" stroke-linecap="round" stroke-linejoin="round"/>
<path d="M265.543 146C270.095 154.62 274.732 164.11 279.312 174.5C285.864 189.38 291.196 203.65 295.548 216.81" stroke="#B8B8B8" stroke-width="1.5" stroke-miterlimit="10" stroke-linecap="round" stroke-linejoin="round"/>
<path d="M265.554 146C265.963 153.46 266.144 161.92 265.811 171.18C265.478 180.73 264.668 189.36 263.688 196.9C265.411 199.23 267.877 203.11 269.763 208.72C271.286 213.25 271.915 217.37 272.191 220.33" stroke="#B8B8B8" stroke-width="1.5" stroke-miterlimit="10" stroke-linecap="round" stroke-linejoin="round"/>
<path d="M295.558 216.81C292.311 212.58 288.997 209.29 285.759 206.71C253.374 180.92 210.503 212.02 202.838 217.77" stroke="#B8B8B8" stroke-width="1.5" stroke-miterlimit="10" stroke-linecap="round" stroke-linejoin="round"/>
<path d="M295.939 217.31C288.379 218.59 280.456 219.63 272.181 220.33C246.451 222.51 223.102 220.97 202.848 217.76C199.087 218.87 195.325 219.98 191.545 221.08C207.2 223.32 223.464 225.14 240.309 226.41C273.171 228.89 288.036 229.01 316.879 227.54C314.822 225.44 311.728 222.74 307.557 220.62C302.919 218.25 298.758 217.53 295.939 217.31Z" stroke="#B8B8B8" stroke-width="1.5" stroke-miterlimit="10" stroke-linecap="round" stroke-linejoin="round"/>
<path d="M32.8711 228.19C39.9653 213.48 48.6117 197.48 59.115 181.05C66.552 169.42 73.9319 159.12 80.9785 150.06C91.577 158.2 105.565 171.22 118.887 191.45C126.362 202.81 132.019 213.99 136.256 223.81" stroke="#B8B8B8" stroke-width="1.5" stroke-miterlimit="10" stroke-linecap="round" stroke-linejoin="round"/>
<path d="M38.709 226.65C45.0795 213.46 53.2974 198.69 63.8101 183.72C70.1235 174.74 76.3703 166.96 82.2742 160.26C89.8445 166.83 98.4147 175.31 107.223 186.16C117.726 199.11 125.811 212.03 131.886 223.18" stroke="#B8B8B8" stroke-width="1.5" stroke-miterlimit="10" stroke-linecap="round" stroke-linejoin="round"/>
<path d="M82.2754 160.24C82.8086 171.16 83.1038 182.6 83.0848 194.54C83.0753 199.27 83.0181 203.92 82.9229 208.49" stroke="#B8B8B8" stroke-width="1.5" stroke-miterlimit="10" stroke-linecap="round" stroke-linejoin="round"/>
<path d="M17.4824 232.4C27.7095 229.58 37.9271 226.76 48.1542 223.94C57.5433 226.42 69.5226 228.42 83.4063 227.97C97.7757 227.51 110.041 224.56 119.534 221.33C130.495 222.95 141.455 224.58 152.425 226.2C131.009 228.34 108.793 230 85.8536 231.07C62.2855 232.17 39.4793 232.57 17.4824 232.4Z" stroke="#B8B8B8" stroke-width="1.5" stroke-miterlimit="10" stroke-linecap="round" stroke-linejoin="round"/>
<path d="M48.1562 223.94C53.1174 219.37 65.4681 209.36 82.9322 208.49C101.139 207.59 114.432 217.15 119.546 221.33" stroke="#B8B8B8" stroke-width="1.5" stroke-miterlimit="10" stroke-linecap="round" stroke-linejoin="round"/>
<path d="M55.1172 187.41C60.564 171.78 68.401 154.06 79.8184 136.89C82.4276 132.95 85.0558 129.31 87.6649 125.93C95.1115 133.43 103.367 143.05 111.557 155.24C128.421 180.35 138.096 206.1 143.666 224.91" stroke="#B8B8B8" stroke-width="1.5" stroke-miterlimit="10" stroke-linecap="round" stroke-linejoin="round"/>
<path d="M76.7988 155.53C78.1986 152.86 79.8365 150 81.7505 147.07C83.9216 143.72 86.0832 140.85 88.0829 138.42C94.8629 146.17 102.262 155.76 109.613 167.49C122.307 187.73 130.705 207.71 136.257 223.81" stroke="#B8B8B8" stroke-width="1.5" stroke-miterlimit="10" stroke-linecap="round" stroke-linejoin="round"/>
<path d="M62.0977 169.61C65.9257 151.88 72.2391 130.6 82.9613 109.05C85.9038 103.12 88.9319 97.7098 91.941 92.7598C101.397 106.07 113.462 125.92 123.755 152.98C132.478 175.91 137.277 197.09 140.039 213.49" stroke="#B8B8B8" stroke-width="1.5" stroke-miterlimit="10" stroke-linecap="round" stroke-linejoin="round"/>
<path d="M78.1133 139.5C79.9035 133.05 82.5507 125.41 86.5406 117.51C88.3594 113.92 90.1973 110.75 91.997 107.96C96.2059 114.17 100.577 121.3 104.871 129.42C113.67 146.05 119.698 162.17 123.869 175.85" stroke="#B8B8B8" stroke-width="1.5" stroke-miterlimit="10" stroke-linecap="round" stroke-linejoin="round"/>
<path d="M97.3585 116.26C96.4824 117.38 95.5112 118.79 94.578 120.55C92.7782 123.97 91.845 127.32 91.3594 129.75" stroke="#B8B8B8" stroke-width="1.5" stroke-miterlimit="10" stroke-linecap="round" stroke-linejoin="round"/>
<path d="M85.75 153.88C86.3785 152.49 87.226 150.88 88.3401 149.25C89.9589 146.88 91.6063 145.26 92.9204 144.16" stroke="#B8B8B8" stroke-width="1.5" stroke-miterlimit="10" stroke-linecap="round" stroke-linejoin="round"/>
<path d="M29.7105 235.73C28.7107 238.48 27.7108 241.22 26.7109 243.97C66.3814 243.97 106.061 243.97 145.732 243.97C144.589 239.71 143.437 235.45 142.294 231.19" stroke="#B8B8B8" stroke-width="1.5" stroke-miterlimit="10" stroke-linecap="round" stroke-linejoin="round"/>
<path d="M139.21 250.71H29.8926V254.74H139.21V250.71Z" stroke="#B8B8B8" stroke-width="1.5" stroke-miterlimit="10" stroke-linecap="round" stroke-linejoin="round"/>
<path d="M339.847 311.52C301.529 311.71 263.201 311.9 224.883 312.08V292.95H215.274V234.95C250.765 234.95 286.255 234.95 321.745 234.95M145.732 243.97C144.418 239.63 155.454 260.4 154.14 256.07L145.732 243.97ZM145.732 243.97V258.67H26.7109C26.7109 253.77 26.7109 248.87 26.7109 243.97H145.732ZM215.265 234.94L196.096 240.41L182.222 231.07C172.861 239.4 163.501 247.73 154.14 256.06" stroke="#B8B8B8" stroke-width="1.5" stroke-miterlimit="10" stroke-linecap="round" stroke-linejoin="round"/>
<path d="M323.917 243.75H220.418V250.7H323.917V243.75V243.75Z" stroke="#B8B8B8" stroke-width="1.5" stroke-miterlimit="10" stroke-linecap="round" stroke-linejoin="round"/>
<path d="M333.021 259.85H220.418V264.41H333.011V259.85H333.021Z" stroke="#B8B8B8" stroke-width="1.5" stroke-miterlimit="10" stroke-linecap="round" stroke-linejoin="round"/>
<path d="M343.981 280.8H220.418V288.39H343.981V280.8Z" stroke="#B8B8B8" stroke-width="1.5" stroke-miterlimit="10" stroke-linecap="round" stroke-linejoin="round"/>
<path d="M145.732 258.67C154.874 278.52 164.025 298.37 173.166 318.22H5V302.22H158.226C160.863 302.23 163.501 302.23 166.139 302.24" stroke="#B8B8B8" stroke-width="1.5" stroke-miterlimit="10" stroke-linecap="round" stroke-linejoin="round"/>
<path d="M26.7097 258.67H17.4824V294.91H162.909" stroke="#B8B8B8" stroke-width="1.5" stroke-miterlimit="10" stroke-linecap="round" stroke-linejoin="round"/>
<path d="M20.8555 294.9V302.21" stroke="#B8B8B8" stroke-width="1.5" stroke-miterlimit="10" stroke-linecap="round" stroke-linejoin="round"/>
<path d="M224.883 312.08C205.305 308.8 185.727 305.51 166.148 302.23" stroke="#B8B8B8" stroke-width="1.5" stroke-miterlimit="10" stroke-linecap="round" stroke-linejoin="round"/>
<path d="M150.418 268.83C162.397 269.12 174.386 269.4 186.365 269.69C186.841 281.75 187.317 293.82 187.794 305.88" stroke="#B8B8B8" stroke-width="1.5" stroke-miterlimit="10" stroke-linecap="round" stroke-linejoin="round"/>
<path d="M154.141 256.07C155.455 260.41 156.769 264.75 158.083 269.08" stroke="#B8B8B8" stroke-width="1.5" stroke-miterlimit="10" stroke-linecap="round" stroke-linejoin="round"/>
<path d="M161.416 249.6C162.93 245.24 165.844 238.37 171.253 231.71C176.395 225.38 181.689 221.84 185.155 219.92C185.565 224.42 185.974 228.92 186.393 233.41" stroke="#B8B8B8" stroke-width="1.5" stroke-miterlimit="10" stroke-linecap="round" stroke-linejoin="round"/>
<path d="M182.926 231.07C182.45 228.07 181.974 225.07 181.498 222.07" stroke="#B8B8B8" stroke-width="1.5" stroke-miterlimit="10" stroke-linecap="round" stroke-linejoin="round"/>
<path d="M197.001 224.17C194.611 228.02 192.24 231.88 189.85 235.73" stroke="#B8B8B8" stroke-width="1.5" stroke-miterlimit="10" stroke-linecap="round" stroke-linejoin="round"/>
<path d="M305.662 231.27C306.367 232.5 307.081 233.72 307.795 234.95" stroke="#B8B8B8" stroke-width="1.5" stroke-miterlimit="10" stroke-linecap="round" stroke-linejoin="round"/>
<path d="M26.7109 258.67V294.91" stroke="#B8B8B8" stroke-width="1.5" stroke-miterlimit="10" stroke-linecap="round" stroke-linejoin="round"/>
<path d="M36.2344 258.67V294.91" stroke="#B8B8B8" stroke-width="1.5" stroke-miterlimit="10" stroke-linecap="round" stroke-linejoin="round"/>
<path d="M45.7578 258.67V294.91" stroke="#B8B8B8" stroke-width="1.5" stroke-miterlimit="10" stroke-linecap="round" stroke-linejoin="round"/>
<path d="M55.2793 258.67V294.91" stroke="#B8B8B8" stroke-width="1.5" stroke-miterlimit="10" stroke-linecap="round" stroke-linejoin="round"/>
<path d="M64.8008 258.67V294.91" stroke="#B8B8B8" stroke-width="1.5" stroke-miterlimit="10" stroke-linecap="round" stroke-linejoin="round"/>
<path d="M74.334 258.67V294.91" stroke="#B8B8B8" stroke-width="1.5" stroke-miterlimit="10" stroke-linecap="round" stroke-linejoin="round"/>
<path d="M83.8555 258.67V294.91" stroke="#B8B8B8" stroke-width="1.5" stroke-miterlimit="10" stroke-linecap="round" stroke-linejoin="round"/>
<path d="M93.3789 258.67V294.91" stroke="#B8B8B8" stroke-width="1.5" stroke-miterlimit="10" stroke-linecap="round" stroke-linejoin="round"/>
<path d="M102.9 258.67V294.91" stroke="#B8B8B8" stroke-width="1.5" stroke-miterlimit="10" stroke-linecap="round" stroke-linejoin="round"/>
<path d="M112.424 258.67V294.91" stroke="#B8B8B8" stroke-width="1.5" stroke-miterlimit="10" stroke-linecap="round" stroke-linejoin="round"/>
<path d="M121.945 258.67V294.91" stroke="#B8B8B8" stroke-width="1.5" stroke-miterlimit="10" stroke-linecap="round" stroke-linejoin="round"/>
<path d="M131.469 258.67V294.91" stroke="#B8B8B8" stroke-width="1.5" stroke-miterlimit="10" stroke-linecap="round" stroke-linejoin="round"/>
<path d="M140.99 258.67V294.91" stroke="#B8B8B8" stroke-width="1.5" stroke-miterlimit="10" stroke-linecap="round" stroke-linejoin="round"/>
<path d="M150.418 268.83C150.418 277.52 150.427 286.21 150.427 294.9" stroke="#B8B8B8" stroke-width="1.5" stroke-miterlimit="10" stroke-linecap="round" stroke-linejoin="round"/>
<path d="M160.035 289.7C160.035 291.43 160.035 293.17 160.035 294.9" stroke="#B8B8B8" stroke-width="1.5" stroke-miterlimit="10" stroke-linecap="round" stroke-linejoin="round"/>
<path d="M17.4824 302.21V318.21" stroke="#B8B8B8" stroke-width="1.5" stroke-miterlimit="10" stroke-linecap="round" stroke-linejoin="round"/>
<path d="M8.55273 302.21V318.21" stroke="#B8B8B8" stroke-width="1.5" stroke-miterlimit="10" stroke-linecap="round" stroke-linejoin="round"/>
<path d="M26.7109 302.21V318.21" stroke="#B8B8B8" stroke-width="1.5" stroke-miterlimit="10" stroke-linecap="round" stroke-linejoin="round"/>
<path d="M36.2344 302.21V318.21" stroke="#B8B8B8" stroke-width="1.5" stroke-miterlimit="10" stroke-linecap="round" stroke-linejoin="round"/>
<path d="M45.7578 302.21V318.21" stroke="#B8B8B8" stroke-width="1.5" stroke-miterlimit="10" stroke-linecap="round" stroke-linejoin="round"/>
<path d="M55.2793 302.21V318.21" stroke="#B8B8B8" stroke-width="1.5" stroke-miterlimit="10" stroke-linecap="round" stroke-linejoin="round"/>
<path d="M64.8008 302.21V318.21" stroke="#B8B8B8" stroke-width="1.5" stroke-miterlimit="10" stroke-linecap="round" stroke-linejoin="round"/>
<path d="M74.334 302.21V318.21" stroke="#B8B8B8" stroke-width="1.5" stroke-miterlimit="10" stroke-linecap="round" stroke-linejoin="round"/>
<path d="M83.8555 302.21V318.21" stroke="#B8B8B8" stroke-width="1.5" stroke-miterlimit="10" stroke-linecap="round" stroke-linejoin="round"/>
<path d="M93.3789 302.21V318.21" stroke="#B8B8B8" stroke-width="1.5" stroke-miterlimit="10" stroke-linecap="round" stroke-linejoin="round"/>
<path d="M102.9 302.21V318.21" stroke="#B8B8B8" stroke-width="1.5" stroke-miterlimit="10" stroke-linecap="round" stroke-linejoin="round"/>
<path d="M112.424 302.21V318.21" stroke="#B8B8B8" stroke-width="1.5" stroke-miterlimit="10" stroke-linecap="round" stroke-linejoin="round"/>
<path d="M121.945 302.21V318.21" stroke="#B8B8B8" stroke-width="1.5" stroke-miterlimit="10" stroke-linecap="round" stroke-linejoin="round"/>
<path d="M131.469 302.21V318.21" stroke="#B8B8B8" stroke-width="1.5" stroke-miterlimit="10" stroke-linecap="round" stroke-linejoin="round"/>
<path d="M140.99 302.21V318.21" stroke="#B8B8B8" stroke-width="1.5" stroke-miterlimit="10" stroke-linecap="round" stroke-linejoin="round"/>
<path d="M150.418 302.21C150.427 307.55 150.427 312.87 150.437 318.21" stroke="#B8B8B8" stroke-width="1.5" stroke-miterlimit="10" stroke-linecap="round" stroke-linejoin="round"/>
<path d="M159.941 302.22C159.941 307.56 159.941 312.89 159.941 318.22" stroke="#B8B8B8" stroke-width="1.5" stroke-miterlimit="10" stroke-linecap="round" stroke-linejoin="round"/>
<path d="M169.023 308.34C169.023 311.63 169.023 314.92 169.023 318.21" stroke="#B8B8B8" stroke-width="1.5" stroke-miterlimit="10" stroke-linecap="round" stroke-linejoin="round"/>
<path d="M220.418 234.94V243.75V292.95" stroke="#B8B8B8" stroke-width="1.5" stroke-miterlimit="10" stroke-linecap="round" stroke-linejoin="round"/>
<path d="M224.834 234.94V243.75" stroke="#B8B8B8" stroke-width="1.5" stroke-miterlimit="10" stroke-linecap="round" stroke-linejoin="round"/>
<path d="M233.652 234.94V243.75" stroke="#B8B8B8" stroke-width="1.5" stroke-miterlimit="10" stroke-linecap="round" stroke-linejoin="round"/>
<path d="M242.461 234.94V243.75" stroke="#B8B8B8" stroke-width="1.5" stroke-miterlimit="10" stroke-linecap="round" stroke-linejoin="round"/>
<path d="M251.27 234.94V243.75" stroke="#B8B8B8" stroke-width="1.5" stroke-miterlimit="10" stroke-linecap="round" stroke-linejoin="round"/>
<path d="M260.076 234.94V243.75" stroke="#B8B8B8" stroke-width="1.5" stroke-miterlimit="10" stroke-linecap="round" stroke-linejoin="round"/>
<path d="M268.896 234.94V243.75" stroke="#B8B8B8" stroke-width="1.5" stroke-miterlimit="10" stroke-linecap="round" stroke-linejoin="round"/>
<path d="M277.705 234.94V243.75" stroke="#B8B8B8" stroke-width="1.5" stroke-miterlimit="10" stroke-linecap="round" stroke-linejoin="round"/>
<path d="M286.74 235.22V244" stroke="#B8B8B8" stroke-width="1.5" stroke-miterlimit="10" stroke-linecap="round" stroke-linejoin="round"/>
<path d="M295.33 234.94V243.75" stroke="#B8B8B8" stroke-width="1.5" stroke-miterlimit="10" stroke-linecap="round" stroke-linejoin="round"/>
<path d="M304.148 234.94V243.75" stroke="#B8B8B8" stroke-width="1.5" stroke-miterlimit="10" stroke-linecap="round" stroke-linejoin="round"/>
<path d="M312.957 234.94V243.75" stroke="#B8B8B8" stroke-width="1.5" stroke-miterlimit="10" stroke-linecap="round" stroke-linejoin="round"/>
<path d="M321.734 234.94V243.75" stroke="#B8B8B8" stroke-width="1.5" stroke-miterlimit="10" stroke-linecap="round" stroke-linejoin="round"/>
<path d="M330.734 264.41V280.81" stroke="#B8B8B8" stroke-width="1.5" stroke-miterlimit="10" stroke-linecap="round" stroke-linejoin="round"/>
<path d="M330.811 250.7V259.25" stroke="#B8B8B8" stroke-width="1.5" stroke-miterlimit="10" stroke-linecap="round" stroke-linejoin="round"/>
<path d="M339.848 266.22V280.8" stroke="#B8B8B8" stroke-width="1.5" stroke-miterlimit="10" stroke-linecap="round" stroke-linejoin="round"/>
<path d="M330.734 288.39V311.51" stroke="#B8B8B8" stroke-width="1.5" stroke-miterlimit="10" stroke-linecap="round" stroke-linejoin="round"/>
<path d="M339.848 288.39V311.51" stroke="#B8B8B8" stroke-width="1.5" stroke-miterlimit="10" stroke-linecap="round" stroke-linejoin="round"/>
<path d="M224.834 251.05V259.86" stroke="#B8B8B8" stroke-width="1.5" stroke-miterlimit="10" stroke-linecap="round" stroke-linejoin="round"/>
<path d="M233.652 251.05V259.86" stroke="#B8B8B8" stroke-width="1.5" stroke-miterlimit="10" stroke-linecap="round" stroke-linejoin="round"/>
<path d="M242.461 251.05V259.86" stroke="#B8B8B8" stroke-width="1.5" stroke-miterlimit="10" stroke-linecap="round" stroke-linejoin="round"/>
<path d="M251.27 251.05V259.86" stroke="#B8B8B8" stroke-width="1.5" stroke-miterlimit="10" stroke-linecap="round" stroke-linejoin="round"/>
<path d="M260.076 251.05V259.86" stroke="#B8B8B8" stroke-width="1.5" stroke-miterlimit="10" stroke-linecap="round" stroke-linejoin="round"/>
<path d="M268.896 251.05V259.86" stroke="#B8B8B8" stroke-width="1.5" stroke-miterlimit="10" stroke-linecap="round" stroke-linejoin="round"/>
<path d="M277.705 251.05V259.86" stroke="#B8B8B8" stroke-width="1.5" stroke-miterlimit="10" stroke-linecap="round" stroke-linejoin="round"/>
<path d="M286.521 251.05V259.86" stroke="#B8B8B8" stroke-width="1.5" stroke-miterlimit="10" stroke-linecap="round" stroke-linejoin="round"/>
<path d="M295.33 251.05V259.86" stroke="#B8B8B8" stroke-width="1.5" stroke-miterlimit="10" stroke-linecap="round" stroke-linejoin="round"/>
<path d="M304.148 251.05V259.86" stroke="#B8B8B8" stroke-width="1.5" stroke-miterlimit="10" stroke-linecap="round" stroke-linejoin="round"/>
<path d="M312.957 251.05V259.86" stroke="#B8B8B8" stroke-width="1.5" stroke-miterlimit="10" stroke-linecap="round" stroke-linejoin="round"/>
<path d="M321.734 251.05V259.86" stroke="#B8B8B8" stroke-width="1.5" stroke-miterlimit="10" stroke-linecap="round" stroke-linejoin="round"/>
<path d="M224.834 264.41V280.81" stroke="#B8B8B8" stroke-width="1.5" stroke-miterlimit="10" stroke-linecap="round" stroke-linejoin="round"/>
<path d="M233.652 264.41V280.81" stroke="#B8B8B8" stroke-width="1.5" stroke-miterlimit="10" stroke-linecap="round" stroke-linejoin="round"/>
<path d="M242.461 264.41V280.81" stroke="#B8B8B8" stroke-width="1.5" stroke-miterlimit="10" stroke-linecap="round" stroke-linejoin="round"/>
<path d="M251.27 264.41V280.81" stroke="#B8B8B8" stroke-width="1.5" stroke-miterlimit="10" stroke-linecap="round" stroke-linejoin="round"/>
<path d="M260.076 264.41V280.81" stroke="#B8B8B8" stroke-width="1.5" stroke-miterlimit="10" stroke-linecap="round" stroke-linejoin="round"/>
<path d="M268.896 264.41V280.81" stroke="#B8B8B8" stroke-width="1.5" stroke-miterlimit="10" stroke-linecap="round" stroke-linejoin="round"/>
<path d="M277.705 264.41V280.81" stroke="#B8B8B8" stroke-width="1.5" stroke-miterlimit="10" stroke-linecap="round" stroke-linejoin="round"/>
<path d="M286.521 264.41V280.81" stroke="#B8B8B8" stroke-width="1.5" stroke-miterlimit="10" stroke-linecap="round" stroke-linejoin="round"/>
<path d="M295.33 264.41V280.81" stroke="#B8B8B8" stroke-width="1.5" stroke-miterlimit="10" stroke-linecap="round" stroke-linejoin="round"/>
<path d="M304.148 264.41V280.81" stroke="#B8B8B8" stroke-width="1.5" stroke-miterlimit="10" stroke-linecap="round" stroke-linejoin="round"/>
<path d="M312.957 264.41V280.81" stroke="#B8B8B8" stroke-width="1.5" stroke-miterlimit="10" stroke-linecap="round" stroke-linejoin="round"/>
<path d="M321.734 264.41V280.81" stroke="#B8B8B8" stroke-width="1.5" stroke-miterlimit="10" stroke-linecap="round" stroke-linejoin="round"/>
<path d="M224.834 288.39V292.95" stroke="#B8B8B8" stroke-width="1.5" stroke-miterlimit="10" stroke-linecap="round" stroke-linejoin="round"/>
<path d="M233.652 288.39V311.51" stroke="#B8B8B8" stroke-width="1.5" stroke-miterlimit="10" stroke-linecap="round" stroke-linejoin="round"/>
<path d="M242.451 288.39V311.51" stroke="#B8B8B8" stroke-width="1.5" stroke-miterlimit="10" stroke-linecap="round" stroke-linejoin="round"/>
<path d="M251.27 288.39V311.51" stroke="#B8B8B8" stroke-width="1.5" stroke-miterlimit="10" stroke-linecap="round" stroke-linejoin="round"/>
<path d="M260.076 288.39V311.51" stroke="#B8B8B8" stroke-width="1.5" stroke-miterlimit="10" stroke-linecap="round" stroke-linejoin="round"/>
<path d="M268.896 288.39V311.51" stroke="#B8B8B8" stroke-width="1.5" stroke-miterlimit="10" stroke-linecap="round" stroke-linejoin="round"/>
<path d="M277.705 288.39V311.51" stroke="#B8B8B8" stroke-width="1.5" stroke-miterlimit="10" stroke-linecap="round" stroke-linejoin="round"/>
<path d="M286.521 288.39V311.51" stroke="#B8B8B8" stroke-width="1.5" stroke-miterlimit="10" stroke-linecap="round" stroke-linejoin="round"/>
<path d="M295.33 288.39V311.51" stroke="#B8B8B8" stroke-width="1.5" stroke-miterlimit="10" stroke-linecap="round" stroke-linejoin="round"/>
<path d="M304.148 288.39V311.51" stroke="#B8B8B8" stroke-width="1.5" stroke-miterlimit="10" stroke-linecap="round" stroke-linejoin="round"/>
<path d="M312.957 288.39V311.51" stroke="#B8B8B8" stroke-width="1.5" stroke-miterlimit="10" stroke-linecap="round" stroke-linejoin="round"/>
<path d="M321.734 288.39V311.51" stroke="#B8B8B8" stroke-width="1.5" stroke-miterlimit="10" stroke-linecap="round" stroke-linejoin="round"/>
<path d="M17.4851 232.4C17.4185 233.37 17.3518 234.33 17.2852 235.29C37.7108 236.16 59.2506 236.3 81.7902 235.45C106.663 234.53 130.278 232.5 152.513 229.72C152.485 228.55 152.447 227.37 152.428 226.19" stroke="#B8B8B8" stroke-width="1.5" stroke-miterlimit="10" stroke-linecap="round" stroke-linejoin="round"/>
<path d="M191.555 221.09V223.31C213.447 226.89 237.262 229.59 262.792 230.78C287.893 231.94 295.302 231.51 317.003 230.03C316.965 229.2 316.927 228.38 316.889 227.55" stroke="#B8B8B8" stroke-width="1.5" stroke-miterlimit="10" stroke-linecap="round" stroke-linejoin="round"/>
<path d="M50.5176 250.71V254.74" stroke="#B8B8B8" stroke-width="1.5" stroke-miterlimit="10" stroke-linecap="round" stroke-linejoin="round"/>
<path d="M74.334 250.71V254.74H102.911V250.71" stroke="#B8B8B8" stroke-width="1.5" stroke-miterlimit="10" stroke-linecap="round" stroke-linejoin="round"/>
<path d="M121.945 254.74V250.71" stroke="#B8B8B8" stroke-width="1.5" stroke-miterlimit="10" stroke-linecap="round" stroke-linejoin="round"/>
<path d="M94.6544 94.9201V55.3901H69.7246V97.7801V100.64" stroke="#B8B8B8" stroke-width="1.5" stroke-miterlimit="10" stroke-linecap="round" stroke-linejoin="round"/>
<path d="M151.445 193.45C151.483 129.97 151.521 66.48 151.559 3H122.363C122.392 30.78 122.411 58.56 122.439 86.33" stroke="#B8B8B8" stroke-width="1.5" stroke-miterlimit="10" stroke-linecap="round" stroke-linejoin="round"/>
<path d="M94.6543 86.3301C110.995 86.3801 127.326 86.4301 143.666 86.4801C143.4 132.62 143.133 178.77 142.857 224.9" stroke="#B8B8B8" stroke-width="1.5" stroke-miterlimit="10" stroke-linecap="round" stroke-linejoin="round"/>
<path d="M161.586 160.96C161.881 127.23 162.186 93.5 162.481 59.77H191.001C191.096 74.69 191.191 89.6 191.286 104.51" stroke="#B8B8B8" stroke-width="1.5" stroke-miterlimit="10" stroke-linecap="round" stroke-linejoin="round"/>
<path d="M151.561 39.3601C160.559 39.2901 169.558 39.2101 178.557 39.1401V59.7801" stroke="#B8B8B8" stroke-width="1.5" stroke-miterlimit="10" stroke-linecap="round" stroke-linejoin="round"/>
<path d="M255.231 95.79C244.089 95.61 232.958 95.43 221.816 95.25C237.348 95.43 252.879 95.61 268.419 95.79C268.419 108.01 268.419 120.23 268.419 132.45" stroke="#B8B8B8" stroke-width="1.5" stroke-miterlimit="10" stroke-linecap="round" stroke-linejoin="round"/>
<path d="M280.883 136.65C280.883 112.85 280.883 89.0598 280.883 65.2598H258.572V95.7798" stroke="#B8B8B8" stroke-width="1.5" stroke-miterlimit="10" stroke-linecap="round" stroke-linejoin="round"/>
<path d="M263.334 65.2599V57.8999H277.322V65.2599" stroke="#B8B8B8" stroke-width="1.5" stroke-miterlimit="10" stroke-linecap="round" stroke-linejoin="round"/>
<path d="M5 318.21C130.411 318.21 218.036 318.21 343.447 318.21C342.247 315.98 341.047 313.75 339.847 311.51" stroke="#B8B8B8" stroke-width="1.5" stroke-miterlimit="10" stroke-linecap="round" stroke-linejoin="round"/>
<path d="M343.447 318.21C343.561 325.56 343.685 332.9 343.799 340.25C218.274 340.25 130.525 340.25 5 340.25C5 332.9 5 325.56 5 318.21" stroke="#B8B8B8" stroke-width="1.5" stroke-miterlimit="10" stroke-linecap="round" stroke-linejoin="round"/>
<path d="M41.8047 210.61V100.96H86.2269" stroke="#B8B8B8" stroke-width="1.5" stroke-miterlimit="10" stroke-linecap="round" stroke-linejoin="round"/>
<path d="M323.916 250.7H339.847V266.22" stroke="#B8B8B8" stroke-width="1.5" stroke-miterlimit="10" stroke-linecap="round" stroke-linejoin="round"/>
</mask>
<g mask="url(#mask1)">
<path d="M295.417 139.263C321.96 179.798 334.91 224.009 326.644 264.636C318.287 305.262 288.805 342.212 247.291 367.213C205.777 392.214 152.324 405.174 105.667 388.538C59.1023 371.901 19.4256 325.667 19.8848 283.111C20.344 240.462 60.9391 201.49 95.7481 159.025C130.465 116.652 159.488 70.878 194.021 66.3741C228.647 61.8703 268.874 98.7284 295.417 139.263Z" fill="#00AEB5"/>
</g>
<path d="M113.139 220.415C111.648 218.693 110.587 216.713 110.957 214.746L110.957 214.746C111.251 213.186 112.417 211.786 114.154 210.604C115.883 209.428 118.117 208.512 120.414 207.906C122.71 207.299 125.038 207.009 126.944 207.064C127.897 207.091 128.729 207.204 129.391 207.399C130.062 207.595 130.51 207.86 130.757 208.154L130.757 208.155C131.01 208.455 131.094 208.835 131.059 209.348C131.028 209.795 130.913 210.278 130.783 210.822C130.759 210.924 130.734 211.028 130.709 211.134C130.412 212.406 130.096 214.02 131.341 215.304C132.004 215.988 132.798 216.251 133.751 216.405C134.217 216.479 134.738 216.531 135.311 216.587L135.333 216.589C135.919 216.646 136.571 216.71 137.309 216.811L137.31 216.811L137.31 216.811L137.31 216.811L137.31 216.811L137.313 216.812L137.325 216.813L137.375 216.82C137.419 216.827 137.486 216.837 137.573 216.85C137.747 216.878 138.002 216.92 138.324 216.979C138.968 217.096 139.88 217.28 140.944 217.546C143.078 218.078 145.806 218.932 148.228 220.222L148.229 220.222C150.749 221.56 152.91 223.451 154.305 225.15C155.004 226.002 155.494 226.784 155.747 227.407C155.873 227.719 155.93 227.967 155.938 228.15C155.945 228.332 155.903 228.408 155.878 228.437L155.877 228.439C155.855 228.464 155.792 228.522 155.552 228.532C155.308 228.542 154.969 228.498 154.506 228.404C154.198 228.341 153.832 228.255 153.419 228.158C152.66 227.98 151.742 227.765 150.73 227.588L150.729 227.587C146.636 226.882 143.966 227.295 141.348 227.843C141.052 227.905 140.757 227.969 140.461 228.032C138.161 228.528 135.803 229.036 132.375 228.919L132.374 228.919C130.439 228.854 123.242 228.509 117.282 224.106C117.266 224.094 117.249 224.082 117.232 224.069C116.34 223.401 114.586 222.086 113.139 220.415Z" fill="white" stroke="#151828"/>
<path d="M150.717 278.224C150.303 277.771 143.956 270.701 146.892 264.808M150.717 278.224C159.233 287.463 178.944 288.726 189.092 280.437C189.945 279.746 196.401 274.479 195.122 268.845C193.295 260.75 176.885 257.912 167.188 258.03M150.717 278.224L151.085 277.885C151.085 277.886 151.085 277.886 151.086 277.886M150.717 278.224L151.086 277.887C151.086 277.887 151.086 277.886 151.086 277.886M146.892 264.808C150.148 258.264 162.406 258.096 167.149 258.031L167.188 258.03M146.892 264.808L146.892 264.808L146.892 264.808ZM167.188 258.03L167.195 258.53L167.194 258.53C172.002 258.472 178.475 259.147 183.959 260.836C186.701 261.68 189.171 262.77 191.058 264.129C192.945 265.488 194.214 267.09 194.635 268.955L194.635 268.956C195.225 271.557 194.038 274.128 192.505 276.197C190.983 278.252 189.196 279.709 188.777 280.048L188.776 280.049C183.827 284.092 176.499 285.834 169.322 285.404C162.144 284.975 155.228 282.38 151.086 277.886M167.188 258.03L167.194 258.53L167.166 258.531C164.8 258.563 160.606 258.621 156.6 259.472C152.546 260.333 148.862 261.971 147.34 265.031L147.339 265.031C145.978 267.765 146.747 270.819 147.996 273.334C149.236 275.83 150.887 277.669 151.086 277.886" fill="white" stroke="#151828"/>
<path d="M168.716 347.553C165.911 348.084 162.846 347.469 160.036 346.157C157.227 344.845 154.714 342.856 153.024 340.699C149.76 336.527 149.005 330.996 149.927 325.002C150.848 319.01 153.437 312.616 156.774 306.806C160.109 300.997 164.174 295.8 168.021 292.198C169.944 290.396 171.8 289.006 173.468 288.135C175.149 287.257 176.574 286.941 177.67 287.175C179.226 287.508 180.335 289.017 181.217 291.59C182.089 294.133 182.67 297.506 183.313 301.233C184.903 310.499 184.421 321.528 181.924 330.534C180.676 335.036 178.931 339.008 176.711 341.997C174.492 344.984 171.821 346.962 168.716 347.553Z" fill="white" stroke="#151828"/>
<path d="M111.631 430.318L111.631 430.319C111.401 430.623 111.274 430.918 111.121 431.277C111.063 431.411 111.002 431.554 110.931 431.709C110.675 432.265 110.325 432.856 109.592 433.432M111.631 430.318L125.278 448.743M111.631 430.318C112.257 429.486 113.514 428.877 115.19 428.53C116.844 428.188 118.813 428.121 120.74 428.292C122.669 428.463 124.525 428.869 125.956 429.451C126.672 429.743 127.266 430.072 127.707 430.425C128.149 430.78 128.41 431.137 128.516 431.48M111.631 430.318L111.232 430.017C114.18 426.1 127.837 427.567 128.994 431.334M109.592 433.432C108.55 434.254 107.303 434.603 106.196 434.746C105.151 434.88 104.193 434.835 103.601 434.807C103.565 434.805 103.531 434.803 103.497 434.802L103.496 434.802C98.7909 434.572 95.9782 435.187 93.2663 435.78C93.0875 435.819 92.9091 435.858 92.7306 435.897C89.8101 436.53 86.8911 437.064 81.855 436.395C80.515 436.218 79.2947 435.99 78.1817 435.778C78.0927 435.761 78.0044 435.744 77.9169 435.727C76.9046 435.534 75.9907 435.359 75.1417 435.247C73.2994 435.005 71.8604 435.077 70.5684 435.853L70.5675 435.854C69.6251 436.417 68.9485 437.134 68.5066 437.714C68.2862 438.003 68.1261 438.255 68.0222 438.433C67.9703 438.522 67.9326 438.592 67.9085 438.638C67.8965 438.661 67.8879 438.679 67.8826 438.689L67.8773 438.7L67.8769 438.701L67.8768 438.701L67.8767 438.702L67.8765 438.702L67.8765 438.702L67.8764 438.702C67.2771 439.98 67.3506 441.088 67.3985 441.799C67.6859 445.365 70.5014 447.737 70.9909 448.139C71.6665 448.678 72.8936 449.549 77.224 450.81C81.114 451.934 84.1209 452.405 86.6997 452.804L86.7004 452.804L86.747 452.811C91.2545 453.514 94.6505 454.044 97.1104 454.452C99.5671 454.859 101.12 455.15 101.914 455.375C103.624 455.858 104.767 456.271 105.872 456.67C106.087 456.747 106.3 456.824 106.516 456.901C107.835 457.371 109.267 457.846 111.738 458.435C117.732 459.86 119.549 459.478 120.697 458.748C121.771 458.06 122.205 457.084 123.198 454.764C123.744 453.478 123.879 452.772 124.007 451.982C124.016 451.924 124.025 451.866 124.035 451.807C124.16 451.027 124.304 450.124 124.803 448.589M109.592 433.432C109.592 433.432 109.592 433.432 109.592 433.432L109.283 433.039L109.592 433.432C109.592 433.432 109.592 433.432 109.592 433.432ZM124.803 448.589L125.278 448.743M124.803 448.589C124.803 448.589 124.803 448.589 124.803 448.589L125.278 448.743M124.803 448.589C125.088 447.709 125.374 446.98 125.629 446.359C125.706 446.172 125.779 445.997 125.848 445.831C126.011 445.442 126.151 445.107 126.264 444.796C126.576 443.94 126.634 443.407 126.345 442.764L126.344 442.762C126.129 442.276 125.864 442.064 125.55 441.836C125.526 441.819 125.502 441.801 125.477 441.784C125.158 441.554 124.756 441.266 124.466 440.69L124.466 440.689C123.995 439.75 124.173 438.808 124.591 437.955C125.002 437.115 125.682 436.287 126.334 435.516C126.404 435.434 126.473 435.352 126.542 435.271C127.137 434.57 127.695 433.913 128.083 433.274C128.518 432.558 128.669 431.98 128.516 431.48M125.278 448.743C125.64 447.628 126.004 446.758 126.305 446.036C126.937 444.523 127.296 443.662 126.801 442.559C126.516 441.915 126.14 441.645 125.776 441.383C125.457 441.153 125.146 440.929 124.913 440.465C124.124 438.891 125.537 437.227 126.925 435.592C128.174 434.121 129.404 432.673 128.994 431.334M128.516 431.48C128.516 431.481 128.516 431.481 128.516 431.481L128.994 431.334M128.516 431.48L128.994 431.334" fill="white" stroke="#151828"/>
<path d="M213.118 450.912C213.69 449.768 215.152 448.624 218.064 446.379M213.118 450.912C212.058 453.049 211.948 456.309 213.946 458.457M213.118 450.912L213.565 451.136C213.565 451.136 213.565 451.136 213.565 451.136M213.118 450.912L213.566 451.135C213.565 451.135 213.565 451.135 213.565 451.136M218.064 446.379L245.45 449.509C244.226 450.278 243.133 450.988 242.076 451.674C239.198 453.544 236.585 455.241 232.317 457.475C229.881 458.759 228.041 459.601 225.507 460.097M218.064 446.379C220.734 444.319 222.096 443.275 222.886 442.669C223.326 442.332 223.589 442.131 223.802 441.965M218.064 446.379L235.643 427.492M213.946 458.457C217.011 461.743 223.255 460.533 225.495 460.1L225.507 460.097M213.946 458.457L214.312 458.116M213.946 458.457L214.312 458.116C214.312 458.116 214.312 458.116 214.312 458.116M225.507 460.097L225.412 459.606L225.411 459.607M225.507 460.097L225.411 459.607M225.411 459.607C227.874 459.124 229.662 458.309 232.084 457.032L232.085 457.032C236.331 454.809 238.919 453.128 241.791 451.263C242.851 450.574 243.949 449.861 245.184 449.086L245.185 449.085C246.344 448.361 251.28 445.316 261.146 439.241C262.829 438.202 264.081 437.428 264.967 436.67C265.838 435.926 266.307 435.235 266.473 434.379L266.474 434.378C266.592 433.776 266.341 432.92 265.52 431.522C264.715 430.15 263.44 428.381 261.711 425.993L261.71 425.992C258.618 421.7 257.644 421.089 256.599 420.683C255.896 420.412 255.303 420.304 254.703 420.194C254.547 420.166 254.392 420.137 254.234 420.106C253.465 419.953 252.693 419.737 251.842 419.109C250.857 418.386 250.47 417.627 250.187 416.924C250.142 416.813 250.1 416.705 250.06 416.602C249.848 416.055 249.678 415.617 249.267 415.188C248.614 414.505 247.508 414.043 246.12 413.817C244.745 413.594 243.157 413.614 241.618 413.835C240.079 414.057 238.614 414.477 237.482 415.034C236.326 415.603 235.62 416.262 235.413 416.905C235.308 417.236 235.341 417.546 235.482 417.913C235.609 418.244 235.808 418.581 236.052 418.996C236.097 419.072 236.143 419.151 236.191 419.233C236.793 420.266 237.495 421.599 237.41 423.574L237.41 423.575C237.344 425.01 236.903 426.155 236.087 427.722M225.411 459.607L225.409 459.607C224.292 459.823 222.22 460.225 220.054 460.173C217.872 460.122 215.709 459.614 214.312 458.116M214.312 458.116C212.497 456.165 212.569 453.146 213.565 451.136M213.565 451.136C213.808 450.651 214.257 450.131 215.045 449.433C215.831 448.737 216.909 447.901 218.369 446.775L218.369 446.775C221.036 444.718 222.399 443.673 223.191 443.066C223.631 442.728 223.895 442.526 224.109 442.36L224.109 442.359L223.802 441.965M223.802 441.965C224.109 442.359 224.109 442.359 224.109 442.359L224.11 442.359L224.111 442.358L224.116 442.354L224.133 442.341C224.148 442.329 224.17 442.312 224.198 442.289C224.254 442.244 224.337 442.176 224.443 442.088C224.656 441.912 224.963 441.652 225.345 441.313C226.109 440.634 227.174 439.639 228.381 438.367C230.794 435.826 233.786 432.169 236.087 427.722M223.802 441.965C223.802 441.965 231.099 436.277 235.643 427.492M236.087 427.722C236.087 427.722 236.087 427.722 236.087 427.723L235.643 427.492M236.087 427.722C236.087 427.722 236.087 427.721 236.087 427.721L235.643 427.492M235.643 427.492C236.447 425.948 236.849 424.88 236.91 423.552L235.643 427.492ZM261.443 439.645L261.409 439.666L266.964 434.475C266.576 436.475 264.76 437.597 261.443 439.645Z" fill="white" stroke="#151828"/>
<path d="M136.376 148.6C138.886 150.65 140.372 152.615 141.286 154.104C142.504 156.101 143.101 157.903 145.026 158.562C146.342 159.015 147.596 158.713 148.218 158.562C153.846 157.202 158.853 146.765 159.34 145.729C158.573 147.391 157.574 149.269 156.234 151.244C155.198 152.777 154.126 154.126 153.103 155.281C156.416 157.461 159.742 159.641 163.056 161.832C164.481 161.487 166.723 160.774 168.916 159.188C172.266 156.77 175.799 152.129 174.215 149.053C172 148.6 170.901 147.79 167.807 145.211C163.421 141.552 162.642 135.465 162.483 134.256C162.118 131.417 162.581 129.593 160.997 127.651C160.583 127.143 159.426 125.891 157.525 124.898C156.563 124.402 155.99 124.1 155.198 123.981C152.165 123.549 150.788 126.56 148.352 126.237C146.744 126.021 146.646 124.618 143.698 121.876C142.175 120.462 140.543 118.941 138.74 118.293C133.55 116.404 124.316 120.732 123.828 125.6C123.573 128.201 125.838 130.759 128.555 133.824C130.858 136.425 131.296 135.994 132.173 137.494C134.975 142.254 131.223 147.251 133.379 148.643C134.025 149.064 135.268 149.204 137.948 147.952C137.424 148.168 136.9 148.384 136.376 148.6Z" fill="white" stroke="#151828" stroke-width="1.5" stroke-miterlimit="10" stroke-linecap="round" stroke-linejoin="round"/>
<path d="M125.728 127.327C124.571 127.381 120.636 127.564 117.602 125.201C113.558 122.038 114.276 116.761 114.374 116.124C116.518 116.502 119.527 116.685 122.219 115.358C126.422 113.285 126.179 109.303 129.821 105.827C130.589 105.093 136.278 99.9991 143.137 101.176C149.106 102.201 152.115 107.317 152.639 108.223C154.113 108.666 162.02 111.213 165.821 118.628C170.986 128.665 163.725 138.098 163.372 138.53C161.739 138.174 160.095 137.818 158.462 137.472C159.12 136.922 160.497 135.594 160.753 133.652C161.179 130.414 158.304 127.057 156.659 127.338C155.319 127.564 154.503 130.252 154.418 133.652C153.516 133.63 152.225 133.49 150.982 132.831C148.923 131.741 148.363 129.982 147.401 128.396C146.085 126.226 143.161 123.021 140.018 122.373C135.267 121.38 133.159 126.982 125.728 127.327Z" fill="#151828" stroke="#151828" stroke-width="1.5" stroke-miterlimit="10" stroke-linecap="round" stroke-linejoin="round"/>
<path d="M184.924 298.083C189.493 311.758 190.784 321.633 191.088 328.249C191.21 330.829 191.296 335.621 193.586 341.428C195.961 347.472 199.775 352.188 201.31 353.98C203.015 355.988 204.294 356.905 205.537 358.362C208.875 362.301 210.471 365.669 217.805 374.789C224.408 382.992 230.06 388.852 234.08 393.018C241.134 400.304 247.542 406.175 252.549 410.535C250.064 413.914 247.445 415.889 245.593 417.044C243.619 418.274 240.001 419.742 232.862 422.602C231.51 423.142 230.389 423.584 229.67 423.876C219.815 409.899 210.373 399.721 203.636 393.062C194.828 384.362 190.041 381.06 181.221 372.253C169.635 360.682 161.741 350.235 156.953 343.37" fill="white"/>
<path d="M184.924 298.083C189.493 311.758 190.784 321.633 191.088 328.249C191.21 330.829 191.296 335.621 193.586 341.428C195.961 347.472 199.775 352.188 201.31 353.98C203.015 355.988 204.294 356.905 205.537 358.362C208.875 362.301 210.471 365.669 217.805 374.789C224.408 382.992 230.06 388.852 234.08 393.018C241.134 400.304 247.542 406.175 252.549 410.535C250.064 413.914 247.445 415.889 245.593 417.044C243.619 418.274 240.001 419.742 232.862 422.602C231.51 423.142 230.389 423.584 229.67 423.876C219.815 409.899 210.373 399.721 203.636 393.062C194.828 384.362 190.041 381.06 181.221 372.253C169.635 360.682 161.741 350.235 156.953 343.37" stroke="#151828" stroke-width="1.5" stroke-miterlimit="10" stroke-linecap="round" stroke-linejoin="round"/>
<path d="M145.051 270.799C145.088 273.918 144.905 278.678 143.589 284.312C142.054 290.906 140.044 294.155 137.376 301.57C135.476 306.858 134.55 310.657 132.71 318.277C126.448 344.191 124.962 367.882 117.08 396.678C115.533 402.323 112.853 411.421 108.613 422.603C108.772 424.405 109.344 426.855 111.391 428.636C113.17 430.19 114.765 430.104 118.603 431.151C126.619 433.352 129.36 436.407 131.492 435.166C132.759 434.421 132.771 432.748 132.881 431.151C133.234 426.121 135.731 421.383 136.718 416.418C138.728 406.24 142.383 393.31 147.037 376.84C147.427 375.459 147.39 375.621 152.3 359.075C162.143 325.908 162.082 326.037 162.167 325.865C172.584 305.434 188.859 301.991 193.111 280.739C193.586 278.386 193.781 276.433 193.878 275.235" fill="white"/>
<path d="M145.051 270.799C145.088 273.918 144.905 278.678 143.589 284.312C142.054 290.906 140.044 294.155 137.376 301.57C135.476 306.858 134.55 310.657 132.71 318.277C126.448 344.191 124.962 367.882 117.08 396.678C115.533 402.323 112.853 411.421 108.613 422.603C108.772 424.405 109.344 426.855 111.391 428.636C113.17 430.19 114.765 430.104 118.603 431.151C126.619 433.352 129.36 436.407 131.492 435.166C132.759 434.421 132.771 432.748 132.881 431.151C133.234 426.121 135.731 421.383 136.718 416.418C138.728 406.24 142.383 393.31 147.037 376.84C147.427 375.459 147.39 375.621 152.3 359.075C162.143 325.908 162.082 326.037 162.167 325.865C172.584 305.434 188.859 301.991 193.111 280.739C193.586 278.386 193.781 276.433 193.878 275.235" stroke="#151828" stroke-width="1.5" stroke-miterlimit="10" stroke-linecap="round" stroke-linejoin="round"/>
<path d="M135.439 135.519L138.485 138.53" stroke="#151828" stroke-width="1.5" stroke-miterlimit="10" stroke-linecap="round" stroke-linejoin="round"/>
<path d="M159.401 159.447C156.294 162.145 156.331 166.257 156.306 168.696C156.063 192.657 147.998 255.105 143.795 261.106C143.502 261.516 142.126 263.243 142.747 264.83C143.283 266.222 144.964 266.47 145.488 268.003C145.842 269.039 145.464 270.064 145.062 270.798C148.631 269.59 152.944 268.51 157.89 268.003C174.653 266.276 188.005 272.169 193.877 275.234C194.645 275.893 195.79 276.67 196.91 276.454C201.747 275.526 202.953 256.638 198.531 255.3C197.909 255.116 197.581 255.397 196.996 255.256C194.169 254.609 193.889 246.395 194.779 235.548C200.297 232.882 206.169 229.256 205.658 225.694C205.499 224.626 204.878 223.946 204.269 223.331C199.055 217.945 198.348 205.641 202.673 196.985C204.074 194.179 204.464 194.848 205.389 192.592C208.496 185.059 204.269 177.298 202.027 173.197C194.632 159.619 180.537 152.054 174.215 149.075C173.557 150.467 172.351 152.528 170.097 154.309C166.064 157.482 162.385 156.856 159.401 159.447Z" fill="white" stroke="#151828" stroke-width="1.5" stroke-miterlimit="10" stroke-linecap="round" stroke-linejoin="round"/>
<path d="M183.366 261.722C182.209 260.081 180.345 257.642 177.665 254.911C175.643 252.85 174.644 252.159 174.498 250.939C174.339 249.687 174.997 247.097 182.952 243.266" stroke="#151828" stroke-width="1.5" stroke-miterlimit="10" stroke-linecap="round" stroke-linejoin="round"/>
<path d="M143.186 262.013C144.221 260.545 146.292 258.074 149.874 256.304C157.134 252.71 164.627 254.933 165.942 255.343" stroke="#151828" stroke-width="1.5" stroke-miterlimit="10" stroke-linecap="round" stroke-linejoin="round"/>
<path d="M173.766 215.074C175.143 211.998 176.702 207.239 176.069 201.583C175.667 198.043 174.644 196.165 173.486 192.193C172.426 188.534 171.245 183.073 171.232 175.971" stroke="#151828" stroke-width="1.5" stroke-miterlimit="10" stroke-linecap="round" stroke-linejoin="round"/>
<path d="M181.587 209.85C180.551 210.843 179.199 211.966 177.493 213.066C176.166 213.919 174.899 214.577 173.766 215.085" stroke="#151828" stroke-width="1.5" stroke-miterlimit="10" stroke-linecap="round" stroke-linejoin="round"/>
<path d="M114.071 205.662C105.86 200.244 97.6486 194.826 89.4498 189.408C89.0722 189.937 88.6945 190.455 88.3047 190.984C95.0416 195.873 101.779 200.762 108.515 205.641C110.367 205.652 112.219 205.662 114.071 205.662Z" fill="#151828" stroke="#151828" stroke-width="1.5" stroke-miterlimit="10" stroke-linecap="round" stroke-linejoin="round"/>
<path d="M147.925 220.946C146.402 219.823 144.258 218.496 141.444 217.46C135.889 215.409 130.858 215.636 128.238 215.927" fill="white"/>
<path d="M147.925 220.946C146.402 219.823 144.258 218.496 141.444 217.46C135.889 215.409 130.858 215.636 128.238 215.927" stroke="#151828" stroke-width="1.5" stroke-miterlimit="10" stroke-linecap="round" stroke-linejoin="round"/>
<path d="M150.654 228.08C149.423 228.08 147.572 228.091 145.318 228.188C136.888 228.555 134.049 229.612 130.139 229.461C126.947 229.343 122.427 228.393 117.006 224.507" fill="white"/>
<path d="M150.654 228.08C149.423 228.08 147.572 228.091 145.318 228.188C136.888 228.555 134.049 229.612 130.139 229.461C126.947 229.343 122.427 228.393 117.006 224.507" stroke="#151828" stroke-width="1.5" stroke-miterlimit="10" stroke-linecap="round" stroke-linejoin="round"/>
<path d="M107.429 224C107.131 224.4 106.567 224.837 106.269 225.509C105.902 226.315 105.918 226.837 106.274 226.979C106.629 227.12 107.35 226.535 108.024 226.097C108.554 225.748 108.727 225.148 109 224.926" fill="white"/>
<path d="M107.429 224C107.131 224.4 106.567 224.837 106.269 225.509C105.902 226.315 105.918 226.837 106.274 226.979C106.629 227.12 107.35 226.535 108.024 226.097C108.554 225.748 108.727 225.148 109 224.926" stroke="#151828" stroke-width="1.5" stroke-miterlimit="10" stroke-linecap="round" stroke-linejoin="round"/>
<path d="M106.7 213.218C106.274 213.434 105.597 213.406 105 214C104.89 214.108 103.492 214.872 103.996 216.186C104.5 217.5 106.42 215.83 106.822 215.679" fill="white"/>
<path d="M106.7 213.218C106.274 213.434 105.597 213.406 105 214C104.89 214.108 103.492 214.872 103.996 216.186C104.5 217.5 106.42 215.83 106.822 215.679" stroke="#151828" stroke-width="1.5" stroke-miterlimit="10" stroke-linecap="round" stroke-linejoin="round"/>
<path d="M106.908 217.632C106.177 217.891 104.946 218.431 103.923 219.542C103.557 219.931 102.631 220.934 102.999 222C103.366 223.066 105 222.5 107.017 220.211" fill="white"/>
<path d="M106.908 217.632C106.177 217.891 104.946 218.431 103.923 219.542C103.557 219.931 102.631 220.934 102.999 222C103.366 223.066 105 222.5 107.017 220.211" stroke="#151828" stroke-width="1.5" stroke-miterlimit="10" stroke-linecap="round" stroke-linejoin="round"/>
<path d="M118.648 213.822C118.673 217.168 118.685 220.514 118.709 223.86C117.296 224.313 115.128 224.842 112.423 224.853C110.279 224.863 108.488 224.529 107.209 224.205C106.953 218.69 106.697 213.174 106.441 207.648" fill="white"/>
<path d="M118.648 213.822C118.673 217.168 118.685 220.514 118.709 223.86C117.296 224.313 115.128 224.842 112.423 224.853C110.279 224.863 108.488 224.529 107.209 224.205C106.953 218.69 106.697 213.174 106.441 207.648" stroke="#151828" stroke-width="1.5" stroke-miterlimit="10" stroke-linecap="round" stroke-linejoin="round"/>
<path d="M131.748 225.004C129.47 224.864 126.619 224.346 125.547 222.565C124.889 221.486 125.462 220.881 124.743 220.18C123.342 218.82 118 219.5 117 219.5C116 219.5 113.999 219.5 113.742 218.269C113.485 217.038 118.238 216.262 122.55 215.441" fill="white"/>
<path d="M131.748 225.004C129.47 224.864 126.619 224.346 125.547 222.565C124.889 221.486 125.462 220.881 124.743 220.18C123.342 218.82 118 219.5 117 219.5C116 219.5 113.999 219.5 113.742 218.269C113.485 217.038 118.238 216.262 122.55 215.441" stroke="#151828" stroke-width="1.5" stroke-miterlimit="10" stroke-linecap="round" stroke-linejoin="round"/>
<path d="M227.246 444.016C228.537 443.822 231.632 443.196 234.507 440.918C237.284 438.727 238.357 436.191 238.746 435.079C241.146 434.971 245.605 434.453 250.234 431.992C253.073 430.481 255.059 428.722 256.338 427.384" stroke="#151828" stroke-width="1.5" stroke-miterlimit="10" stroke-linecap="round" stroke-linejoin="round"/>
<path d="M259.117 434.345C258.69 433.374 258.215 431.938 258.13 430.179C258.008 427.394 258.934 425.247 259.531 424.113" stroke="#151828" stroke-width="1.5" stroke-miterlimit="10" stroke-linecap="round" stroke-linejoin="round"/>
<path d="M222.105 443.077C220.289 444.534 218.559 446.077 216.622 447.394C214.746 448.667 213.016 449.639 213.126 450.912C213.187 451.711 213.954 452.261 214.235 452.467C217.634 454.927 226.466 451.927 227.587 451.549C235.53 448.883 234.896 447.092 245.873 441.695C251.647 438.857 255.472 437.561 259.895 433.428C261.71 431.722 262.989 430.147 263.805 429.046C262.148 426.855 260.954 425.052 260.187 423.822C259.03 421.987 258.347 420.692 256.788 420.217C255.777 419.915 254.814 420.077 254.193 420.239C254.51 421.059 254.814 422.3 254.437 423.671C253.304 427.815 247.091 428.992 246.543 429.089C240.89 430.082 236.468 426.758 235.822 426.261C234.689 427.934 227.038 439.126 222.105 443.077Z" stroke="#151828" stroke-width="1.5" stroke-miterlimit="10" stroke-linecap="round" stroke-linejoin="round"/>
<path d="M213.273 450.028C211.628 451.603 211.47 452.747 211.555 453.449C211.628 454.032 211.896 454.377 212.53 455.543C213.188 456.762 213.663 457.788 213.943 458.457C215.588 459.202 217.659 459.903 220.12 460.205C227.368 461.101 233.374 457.572 238.101 454.755C244.74 450.805 242.474 450.308 248.432 446.984C254.328 443.692 259.091 442.775 264.135 437.821C265.134 436.838 265.877 435.975 266.328 435.414C266.401 434.604 266.413 433.028 265.524 431.312C264.988 430.287 264.305 429.532 263.782 429.046" stroke="#151828" stroke-width="1.5" stroke-miterlimit="10" stroke-linecap="round" stroke-linejoin="round"/>
<path d="M220.398 444.437C221.702 444.944 223.261 445.656 224.894 446.692C226.892 447.955 228.378 449.293 229.426 450.394" stroke="#151828" stroke-width="1.5" stroke-miterlimit="10" stroke-linecap="round" stroke-linejoin="round"/>
<path d="M211.688 452.273C212.029 452.963 212.467 453.481 212.954 453.891C218.741 458.759 235.297 450.06 236.016 449.671C236.515 449.747 237.441 449.963 238.331 450.578C239.78 451.582 240.158 452.974 240.255 453.384" stroke="#151828" stroke-width="1.5" stroke-miterlimit="10" stroke-linecap="round" stroke-linejoin="round"/>
<path d="M227.246 444.016C230.901 439.612 234.556 435.209 238.21 430.805" stroke="#151828" stroke-width="1.5" stroke-miterlimit="10" stroke-linecap="round" stroke-linejoin="round"/>
<path d="M223.811 441.954C226.089 441.274 228.367 440.594 230.657 439.914C230.231 438.317 229.817 436.72 229.39 435.122C231.656 434.496 233.922 433.87 236.2 433.233C235.567 431.647 234.945 430.06 234.312 428.463C236.541 427.384 238.758 426.304 240.988 425.225" stroke="#151828" stroke-width="1.5" stroke-miterlimit="10" stroke-linecap="round" stroke-linejoin="round"/>
<path d="M227.246 444.016C226.99 442.224 226.734 440.443 226.49 438.652C228.598 438.015 230.705 437.367 232.813 436.731C232.618 434.96 232.423 433.19 232.228 431.42C234.226 431.215 236.212 431.01 238.21 430.794C236.833 428.485 235.444 426.164 234.068 423.854" stroke="#151828" stroke-width="1.5" stroke-miterlimit="10" stroke-linecap="round" stroke-linejoin="round"/>
<path d="M86.9785 440C88.0262 440.691 90.6698 442.245 94.5073 442.526C98.2229 442.795 101.037 441.738 102.207 441.23C103.961 442.698 107.445 445.202 112.647 446.476C115.839 447.253 118.641 447.318 120.627 447.221" stroke="#151828" stroke-width="1.5" stroke-miterlimit="10" stroke-linecap="round" stroke-linejoin="round"/>
<path d="M116.861 453.804C117.361 452.855 118.201 451.559 119.59 450.297C121.783 448.3 124.183 447.415 125.523 447.016" stroke="#151828" stroke-width="1.5" stroke-miterlimit="10" stroke-linecap="round" stroke-linejoin="round"/>
<path d="M84.2142 436.061C81.7777 435.899 79.3169 435.856 76.9047 435.511C74.5657 435.176 72.58 434.744 71.6175 435.683C71.0084 436.277 71.0815 437.151 71.1059 437.464C71.4348 441.35 79.9747 444.944 81.059 445.408C83.0325 446.25 84.5675 446.768 85.9563 447.124C88.7949 447.858 92.8272 448.408 94.3744 448.613C96.214 448.862 100.746 449.995 109.822 452.251C112.989 453.038 115.072 453.578 118.142 453.654C120.774 453.718 122.955 453.427 124.416 453.146C125.062 450.578 125.72 448.57 126.195 447.221C126.902 445.213 127.486 443.886 126.792 442.558C126.341 441.706 125.549 441.198 124.989 440.907C124.538 441.673 123.734 442.731 122.345 443.433C118.167 445.559 112.928 442.386 112.478 442.105C107.775 439.169 107.434 434.032 107.41 433.276C105.266 433.697 90.8293 436.503 84.2142 436.061Z" stroke="#151828" stroke-width="1.5" stroke-miterlimit="10" stroke-linecap="round" stroke-linejoin="round"/>
<path d="M72.4324 435.176C70.008 435.197 68.9603 435.888 68.4487 436.428C68.0223 436.881 67.9248 437.291 67.4132 438.489C66.865 439.763 66.3533 440.767 66 441.403C66.3777 442.72 67.1452 444.684 68.8263 446.573C71.5552 449.638 75.2343 450.836 84.1275 452.768C99.9404 456.19 98.1496 454.495 103.632 456.47C106.702 457.582 111.16 459.514 117.471 459.417C118.933 459.395 120.139 459.266 120.943 459.158C121.662 458.651 122.953 457.571 123.745 455.812C124.22 454.765 124.366 453.815 124.391 453.135" stroke="#151828" stroke-width="1.5" stroke-miterlimit="10" stroke-linecap="round" stroke-linejoin="round"/>
<path d="M81.9238 435.899C82.4111 437.075 82.8984 438.576 83.1786 440.335C83.5197 442.494 83.4466 444.371 83.2761 445.796" stroke="#151828" stroke-width="1.5" stroke-miterlimit="10" stroke-linecap="round" stroke-linejoin="round"/>
<path d="M69.5098 435.716C69.1931 436.396 69.0591 437.043 69.0591 437.648C68.9494 444.955 87.0892 450.017 88.0394 450.276C88.3318 450.47 88.8922 450.912 89.2455 451.657C89.7206 452.65 89.5135 453.546 89.4282 453.848" stroke="#151828" stroke-width="1.5" stroke-miterlimit="10" stroke-linecap="round" stroke-linejoin="round"/>
<path d="M86.9785 440.001C93.0941 439.31 99.2219 438.619 105.338 437.928" stroke="#151828" stroke-width="1.5" stroke-miterlimit="10" stroke-linecap="round" stroke-linejoin="round"/>
<path d="M86.2949 436.374C88.4269 437.367 90.5466 438.36 92.6785 439.364C93.6897 437.993 94.713 436.622 95.7242 435.251C97.7952 436.277 99.8784 437.302 101.949 438.317C102.814 436.816 103.679 435.316 104.544 433.816C106.956 434.496 109.381 435.187 111.793 435.867" stroke="#151828" stroke-width="1.5" stroke-miterlimit="10" stroke-linecap="round" stroke-linejoin="round"/>
<path d="M86.9785 440C88.2699 438.608 89.549 437.216 90.8404 435.824C92.8139 436.73 94.7875 437.647 96.761 438.554C98.0768 437.205 99.3925 435.867 100.708 434.518C102.255 435.651 103.79 436.795 105.338 437.928C106.276 435.446 107.214 432.963 108.164 430.481" stroke="#151828" stroke-width="1.5" stroke-miterlimit="10" stroke-linecap="round" stroke-linejoin="round"/>
<path d="M124.988 440.907C124.878 440.227 124.805 439.418 124.866 438.511C124.988 436.547 125.646 434.982 126.194 433.967" fill="white"/>
<path d="M124.988 440.907C124.878 440.227 124.805 439.418 124.866 438.511C124.988 436.547 125.646 434.982 126.194 433.967" stroke="#151828" stroke-width="1.5" stroke-miterlimit="10" stroke-linecap="round" stroke-linejoin="round"/>
<path d="M111.405 428.646C111.405 429.197 111.332 430.708 110.15 432.176C109.225 433.331 108.055 433.903 107.482 434.14" stroke="#151828" stroke-width="1.5" stroke-miterlimit="10" stroke-linecap="round" stroke-linejoin="round"/>
<path d="M249.406 414.108C249.626 414.982 250.137 416.461 251.416 417.95C252.379 419.073 253.426 419.796 254.182 420.238" fill="white"/>
<path d="M249.406 414.108C249.626 414.982 250.137 416.461 251.416 417.95C252.379 419.073 253.426 419.796 254.182 420.238" stroke="#151828" stroke-width="1.5" stroke-miterlimit="10" stroke-linecap="round" stroke-linejoin="round"/>
<path d="M235.822 426.272C236.078 425.991 236.931 424.998 236.919 423.552C236.906 422.44 236.383 421.631 236.139 421.296" fill="white"/>
<path d="M235.822 426.272C236.078 425.991 236.931 424.998 236.919 423.552C236.906 422.44 236.383 421.631 236.139 421.296" stroke="#151828" stroke-width="1.5" stroke-miterlimit="10" stroke-linecap="round" stroke-linejoin="round"/>
<path d="M147.923 220.946C142.758 214.891 138.701 213.725 135.924 213.822C132.903 213.919 131.599 215.484 128.237 215.938C123.23 216.596 118.649 214.114 115.482 211.815C116.895 212.074 118.296 212.333 119.709 212.592C118.125 212.473 115.725 212.117 113.155 210.941C111.815 210.325 110.743 209.624 109.914 209.009C112.046 209.192 114.166 209.386 116.298 209.57C114.775 209.699 112.485 209.71 109.914 209.009C106.564 208.091 103.5 207 103.847 205.576C104.195 204.153 105.687 205.63 110.194 205.717C111.193 205.738 112.692 205.76 114.056 205.674C118.381 205.404 122.779 203.882 122.669 203.224C122.474 202.144 110.5 204.5 110.121 202.544C109.743 200.587 114.626 200.486 118.5 200C121.984 199.568 126.519 199.36 131.27 201.367C133.938 202.5 134.364 203.515 136.996 205.371C139.773 207.325 144.22 209.645 151.286 210.779" fill="white"/>
<path d="M147.923 220.946C142.758 214.891 138.701 213.725 135.924 213.822C132.903 213.919 131.599 215.484 128.237 215.938C123.23 216.596 118.649 214.114 115.482 211.815C116.895 212.074 118.296 212.333 119.709 212.592C118.125 212.473 115.725 212.117 113.155 210.941C111.815 210.325 110.743 209.624 109.914 209.009M109.914 209.009C112.046 209.192 114.166 209.386 116.298 209.57C114.775 209.699 112.485 209.71 109.914 209.009ZM109.914 209.009C106.564 208.091 103.5 207 103.847 205.576C104.195 204.153 105.687 205.63 110.194 205.717C111.193 205.738 112.692 205.76 114.056 205.674C118.381 205.404 122.779 203.882 122.669 203.224C122.474 202.144 110.5 204.5 110.121 202.544C109.743 200.587 114.626 200.486 118.5 200C121.984 199.568 126.519 199.36 131.27 201.367C133.938 202.5 134.364 203.515 136.996 205.371C139.773 207.325 144.22 209.645 151.286 210.779" stroke="#151828" stroke-width="1.5" stroke-miterlimit="10" stroke-linecap="round" stroke-linejoin="round"/>
<path d="M194.767 235.549C188.371 235.559 183.389 234.739 180.075 234.016C174.569 232.807 171.535 231.361 161.326 227.594C155.759 225.533 151.215 223.957 148.376 222.975C147.962 221.669 147.036 218.01 148.949 214.06C149.826 212.246 151.032 210.94 151.97 210.099C157.184 211.361 162.471 212.592 167.856 213.779C169.83 214.222 171.803 214.653 173.765 215.074" fill="white"/>
<path d="M194.767 235.549C188.371 235.559 183.389 234.739 180.075 234.016C174.569 232.807 171.535 231.361 161.326 227.594C155.759 225.533 151.215 223.957 148.376 222.975C147.962 221.669 147.036 218.01 148.949 214.06C149.826 212.246 151.032 210.94 151.97 210.099C157.184 211.361 162.471 212.592 167.856 213.779C169.83 214.222 171.803 214.653 173.765 215.074" stroke="#151828" stroke-width="1.5" stroke-miterlimit="10" stroke-linecap="round" stroke-linejoin="round"/>
<path d="M159.525 285.639C158.818 283.869 157.734 280.372 158.441 276.022C158.989 272.644 160.39 270.108 161.389 268.607" fill="white"/>
<path d="M159.525 285.639C158.818 283.869 157.734 280.372 158.441 276.022C158.989 272.644 160.39 270.108 161.389 268.607" stroke="#151828" stroke-width="1.5" stroke-miterlimit="10" stroke-linecap="round" stroke-linejoin="round"/>
</g>
</svg>
