<?xml version="1.0" encoding="UTF-8" standalone="no"?>
<!DOCTYPE svg PUBLIC "-//W3C//DTD SVG 1.1//EN" "http://www.w3.org/Graphics/SVG/1.1/DTD/svg11.dtd">
<svg width="100%" height="100%" viewBox="0 0 750 750" version="1.1" xmlns="http://www.w3.org/2000/svg" xmlns:xlink="http://www.w3.org/1999/xlink" xml:space="preserve" xmlns:serif="http://www.serif.com/" style="fill-rule:evenodd;clip-rule:evenodd;stroke-linejoin:round;stroke-miterlimit:2;">
    <g id="Слой3" transform="matrix(1,0,0,1,-8,0)">
        <g transform="matrix(1.02316,0,0,1.02316,-4.2074,-5.66994)">
            <ellipse cx="271.235" cy="272.935" rx="33.086" ry="32.967" style="fill:rgb(21,24,40);"/>
        </g>
        <rect x="240.044" y="324.748" width="66.472" height="186.138" style="fill:rgb(21,24,40);"/>
        <g transform="matrix(1,0,0,1,102,0)">
            <rect x="240.044" y="324.748" width="66.472" height="186.138" style="fill:rgb(21,24,40);"/>
        </g>
        <path d="M408.517,408.627C408.517,408.627 408.517,406.91 408.517,404.251C408.518,396.464 411.615,388.997 417.126,383.496C422.636,377.995 430.107,374.91 437.894,374.921C437.895,374.921 437.896,374.921 437.897,374.921C450.247,374.939 460.251,384.954 460.254,397.304C460.267,435.823 460.29,510.624 460.29,510.624L526.981,510.461L527.071,415.063C527.071,415.063 527.136,407.29 527.31,394.253C527.584,373.619 522.942,354.828 508.632,341.3C495.736,329.109 482.491,324.131 459.979,324.38C443.448,324.563 429.593,330.346 420.304,338.758C411.358,346.859 408.165,356.556 408.165,356.556L356.832,355.544L358.442,421.411L408.517,408.627Z" style="fill:rgb(21,24,40);"/>
    </g>
</svg>
