<svg width="431" height="294" viewBox="0 0 431 294" fill="none" xmlns="http://www.w3.org/2000/svg">
<g filter="url(#filter0_d)">
<rect x="80.1035" y="30" width="322" height="84" rx="10" transform="rotate(21 80.1035 30)" fill="white"/>
</g>
<path opacity="0.7" d="M134.423 96.0109C134.962 96.4233 135.309 96.9166 135.466 97.4909C135.636 98.059 135.597 98.6667 135.349 99.314C135.009 100.2 134.411 100.776 133.555 101.042C132.708 101.311 131.713 101.226 130.568 100.786L125.564 98.8655L129.606 88.3347L134.461 90.1982C135.556 90.6187 136.329 91.1953 136.779 91.9279C137.239 92.6643 137.306 93.4557 136.981 94.3022C136.771 94.8499 136.436 95.2755 135.977 95.5791C135.532 95.8765 135.014 96.0204 134.423 96.0109ZM130.231 93.4933L132.427 94.3362C133.024 94.5655 133.501 94.6341 133.856 94.542C134.225 94.4437 134.49 94.1855 134.65 93.7672C134.818 93.3291 134.796 92.955 134.584 92.645C134.385 92.3288 133.987 92.0561 133.39 91.8267L131.194 90.9838L130.231 93.4933ZM130.981 98.9056C131.599 99.1426 132.087 99.2101 132.446 99.108C132.805 99.0059 133.074 98.7208 133.254 98.2528C133.434 97.7848 133.426 97.3877 133.231 97.0616C133.037 96.7355 132.631 96.4539 132.013 96.2169L129.549 95.2708L128.516 97.9595L130.981 98.9056ZM142.959 95.637L139.658 94.3698L140.386 92.4728L149.319 95.9017L148.59 97.7987L145.289 96.5315L141.975 105.165L139.645 104.271L142.959 95.637ZM152.29 109.279C151.225 108.87 150.38 108.289 149.755 107.535C149.14 106.785 148.776 105.919 148.661 104.938C148.556 103.961 148.71 102.935 149.123 101.859C149.536 100.784 150.108 99.9181 150.84 99.262C151.582 98.6098 152.43 98.2157 153.385 98.0795C154.353 97.9372 155.37 98.0705 156.436 98.4795C157.133 98.7471 157.758 99.1128 158.311 99.5765C158.869 100.03 159.279 100.525 159.542 101.06L158.158 102.431C157.834 101.907 157.473 101.477 157.076 101.142C156.69 100.811 156.252 100.551 155.764 100.364C154.828 100.005 153.991 100.026 153.254 100.429C152.527 100.835 151.942 101.616 151.498 102.771C151.055 103.926 150.965 104.903 151.23 105.702C151.509 106.494 152.116 107.07 153.052 107.429C153.54 107.617 154.039 107.717 154.548 107.729C155.067 107.746 155.623 107.668 156.214 107.495L156.325 109.44C155.771 109.661 155.134 109.759 154.412 109.734C153.695 109.698 152.987 109.547 152.29 109.279ZM172.791 114.852L172.075 116.719L165.204 114.082L165.92 112.215L168.191 113.086L170.524 107.007L168.331 107.364L168.091 105.353L172.189 104.681L173.847 105.317L170.521 113.981L172.791 114.852ZM182.799 114.615C183.338 115.027 183.685 115.521 183.842 116.095C184.002 116.659 183.96 117.26 183.715 117.897C183.356 118.833 182.717 119.428 181.797 119.68C180.877 119.933 179.785 119.816 178.521 119.331C177.256 118.845 176.366 118.201 175.852 117.398C175.338 116.595 175.26 115.726 175.619 114.79C175.872 114.132 176.246 113.648 176.743 113.336C177.24 113.024 177.83 112.902 178.512 112.969C178.071 112.571 177.786 112.108 177.657 111.579C177.529 111.05 177.572 110.506 177.786 109.949C178.123 109.072 178.727 108.51 179.599 108.262C180.475 108.004 181.495 108.099 182.661 108.546C183.836 108.997 184.659 109.605 185.132 110.369C185.614 111.137 185.685 111.964 185.344 112.85C185.127 113.417 184.791 113.86 184.338 114.177C183.885 114.495 183.372 114.641 182.799 114.615ZM181.978 110.324C180.913 109.915 180.21 110.153 179.87 111.04C179.526 111.936 179.886 112.588 180.952 112.997C182.017 113.407 182.722 113.163 183.066 112.267C183.406 111.38 183.044 110.733 181.978 110.324ZM179.203 117.553C180.458 118.035 181.263 117.813 181.618 116.887C181.974 115.961 181.524 115.257 180.27 114.775C179.015 114.293 178.21 114.516 177.854 115.442C177.499 116.368 177.948 117.072 179.203 117.553ZM192.274 116.658C192.921 116.907 193.443 117.273 193.84 117.756C194.241 118.23 194.483 118.774 194.567 119.389C194.651 120.004 194.565 120.645 194.309 121.313C194.038 122.02 193.629 122.577 193.084 122.985C192.549 123.396 191.916 123.633 191.184 123.695C190.465 123.75 189.698 123.621 188.881 123.308C188.214 123.052 187.592 122.693 187.015 122.232C186.442 121.76 186.02 121.267 185.749 120.752L187.118 119.375C187.824 120.423 188.655 121.13 189.611 121.497C190.218 121.73 190.73 121.767 191.145 121.606C191.571 121.45 191.889 121.098 192.099 120.55C192.298 120.032 192.291 119.561 192.077 119.136C191.873 118.715 191.492 118.397 190.934 118.183C190.586 118.049 190.212 117.98 189.814 117.976C189.426 117.976 189.048 118.036 188.682 118.158L187.352 117.648L189.743 111.419L196.525 114.022L195.842 115.8L191.331 114.068L190.431 116.413C191.012 116.328 191.626 116.41 192.274 116.658ZM199.055 124.334L198.138 126.724L195.718 125.795L196.635 123.405L199.055 124.334ZM209.307 128.869L208.59 130.736L201.346 127.955L202.005 126.238L206.943 123.866C207.978 123.372 208.622 122.796 208.874 122.139C209.195 121.303 208.878 120.701 207.922 120.334C207.484 120.166 206.991 120.08 206.444 120.075C205.901 120.061 205.338 120.13 204.754 120.283L204.658 118.344C205.214 118.146 205.861 118.069 206.598 118.112C207.339 118.145 208.054 118.294 208.741 118.557C209.836 118.978 210.606 119.576 211.051 120.353C211.506 121.133 211.563 121.966 211.223 122.852C210.989 123.46 210.644 123.972 210.186 124.391C209.739 124.813 209.094 125.228 208.251 125.636L204.96 127.201L209.307 128.869ZM219.772 132.886L219.055 134.754L211.811 131.973L212.47 130.255L217.408 127.883C218.443 127.389 219.087 126.813 219.339 126.156C219.66 125.32 219.343 124.718 218.387 124.351C217.948 124.183 217.456 124.097 216.909 124.092C216.366 124.078 215.803 124.147 215.218 124.3L215.123 122.361C215.679 122.163 216.325 122.086 217.063 122.129C217.804 122.162 218.519 122.311 219.206 122.575C220.301 122.995 221.071 123.593 221.516 124.37C221.97 125.15 222.028 125.983 221.687 126.869C221.454 127.477 221.109 127.99 220.651 128.408C220.203 128.83 219.558 129.245 218.716 129.653L215.425 131.218L219.772 132.886ZM231.639 139.738C230.842 139.432 230.115 139.033 229.459 138.541C228.806 138.039 228.308 137.506 227.966 136.94L229.349 135.569C230.093 136.666 231.098 137.457 232.362 137.942C233.02 138.194 233.563 138.283 233.991 138.208C234.434 138.126 234.728 137.896 234.873 137.518C235.003 137.179 234.94 136.852 234.684 136.537C234.438 136.225 233.936 135.821 233.179 135.325C232.325 134.78 231.671 134.266 231.217 133.783C230.772 133.304 230.495 132.821 230.385 132.333C230.289 131.839 230.352 131.303 230.574 130.726C230.818 130.089 231.21 129.588 231.75 129.224C232.3 128.863 232.947 128.666 233.691 128.632C234.439 128.588 235.232 128.726 236.068 129.047C236.815 129.334 237.49 129.719 238.093 130.202C238.706 130.688 239.146 131.194 239.413 131.719L238.029 133.091C237.335 132.013 236.455 131.27 235.389 130.861C234.782 130.627 234.258 130.563 233.818 130.669C233.381 130.764 233.085 131.016 232.928 131.424C232.836 131.663 232.824 131.887 232.893 132.096C232.975 132.299 233.147 132.519 233.41 132.757C233.683 132.999 234.083 133.296 234.611 133.647C235.851 134.465 236.674 135.221 237.082 135.915C237.5 136.612 237.55 137.374 237.233 138.201C236.851 139.197 236.166 139.836 235.177 140.12C234.192 140.393 233.013 140.266 231.639 139.738ZM243.267 131.965L250.526 134.752L249.832 136.559L244.843 134.644L243.897 137.109L248.587 138.909L247.894 140.716L243.203 138.916L242.188 141.56L247.177 143.475L246.484 145.282L239.224 142.496L243.267 131.965ZM262.756 139.446L258.714 149.977L256.981 149.312L254.313 140.593L251.738 147.299L249.572 146.468L253.615 135.937L255.333 136.597L258.012 145.286L260.575 138.609L262.756 139.446ZM268.047 143.654L264.746 142.387L265.474 140.49L274.407 143.918L273.679 145.816L270.377 144.548L267.063 153.182L264.733 152.288L268.047 143.654Z" fill="#151828"/>
<g clip-path="url(#clip0)">
<path d="M114.329 84.2696C113.826 84.1838 113.331 84.6364 113.245 85.1391C113.145 85.9576 112.952 86.7403 112.665 87.4872C110.873 92.1551 105.705 94.4559 101.038 92.6641C96.3697 90.8722 94.0688 85.7044 95.8607 81.0365C97.6525 76.3686 102.82 74.0678 107.488 75.8596C109.075 76.4688 110.39 77.509 111.41 78.7576C111.769 79.2169 112.401 79.2452 112.825 78.9792C113.284 78.62 113.312 77.9881 113.046 77.5647C111.724 75.9861 110.072 74.7092 108.205 73.9925C102.51 71.8064 96.1795 74.625 93.9935 80.3198C91.8075 86.0146 94.626 92.3452 100.321 94.5312C106.016 96.7173 112.346 93.8987 114.532 88.2039C114.891 87.2703 115.156 86.3009 115.198 85.3532C115.284 84.8505 114.831 84.3554 114.329 84.2696Z" fill="#50EFF5"/>
<path d="M118.661 79.399C118.431 78.8823 117.871 78.6672 117.354 78.8973L104.047 84.822L102.149 80.5586C101.919 80.0418 101.359 79.8268 100.842 80.0569C100.325 80.2869 100.11 80.8471 100.34 81.3639L102.641 86.5317C102.756 86.7901 103 86.9909 103.187 87.0626C103.374 87.1343 103.689 87.1484 103.948 87.0334L118.159 80.706C118.676 80.476 118.891 79.9158 118.661 79.399Z" fill="#50EFF5"/>
</g>
<defs>
<filter id="filter0_d" x="0" y="0" width="430.716" height="293.815" filterUnits="userSpaceOnUse" color-interpolation-filters="sRGB">
<feFlood flood-opacity="0" result="BackgroundImageFix"/>
<feColorMatrix in="SourceAlpha" type="matrix" values="0 0 0 0 0 0 0 0 0 0 0 0 0 0 0 0 0 0 127 0"/>
<feOffset dy="20"/>
<feGaussianBlur stdDeviation="25"/>
<feColorMatrix type="matrix" values="0 0 0 0 0 0 0 0 0 0 0 0 0 0 0 0 0 0 0.15 0"/>
<feBlend mode="normal" in2="BackgroundImageFix" result="effect1_dropShadow"/>
<feBlend mode="normal" in="SourceGraphic" in2="effect1_dropShadow" result="shape"/>
</filter>
<clipPath id="clip0">
<rect width="24" height="24" fill="white" transform="translate(98.293 69.1168) rotate(21)"/>
</clipPath>
</defs>
</svg>
