<svg width="86" height="86" viewBox="0 0 86 86" fill="none" xmlns="http://www.w3.org/2000/svg">
<mask id="mask0" mask-type="alpha" maskUnits="userSpaceOnUse" x="0" y="0" width="86" height="86">
<rect width="86" height="86" fill="#C4C4C4"/>
</mask>
<g mask="url(#mask0)">
<path d="M46.4644 65.3535C51.6912 68.3333 58.3479 66.5051 61.3325 61.27C64.3171 56.0349 62.4994 49.3754 57.2726 46.3955C52.0458 43.4157 45.3891 45.2439 42.4045 50.479C39.4199 55.7141 41.2376 62.3736 46.4644 65.3535Z" fill="white" stroke="black" stroke-width="1.5" stroke-miterlimit="10" stroke-linecap="round" stroke-linejoin="round"/>
<path d="M44.8892 49.6465C54.8667 55.3348 67.5737 51.8449 73.271 41.8516C78.9683 31.8583 75.4985 19.1458 65.521 13.4575C55.5434 7.76923 42.8365 11.2591 37.1392 21.2525C31.4419 31.2458 34.9117 43.9582 44.8892 49.6465Z" fill="white" stroke="black" stroke-width="1.5" stroke-miterlimit="10" stroke-linecap="round" stroke-linejoin="round"/>
<rect x="9" y="39.014" width="39" height="39" rx="3" fill="white" stroke="black" stroke-width="1.5"/>
<path d="M28.009 43.6084C32.4321 46.13 38.0651 44.5829 40.5907 40.1529C43.1163 35.7229 41.5781 30.0874 37.1551 27.5658C32.7321 25.0442 27.0991 26.5913 24.5735 31.0213C22.0478 35.4513 23.586 41.0868 28.009 43.6084Z" fill="#1436E5"/>
<path d="M14 48.014L27.2889 69.014L34 56.6049" stroke="black" stroke-width="1.5" stroke-linecap="round" stroke-linejoin="round"/>
<path d="M54.1321 78.7455L55.2955 78.4664C63.7608 76.435 70.5301 70.0946 73.1105 61.7802V61.7802" stroke="black" stroke-width="1.5" stroke-linecap="round" stroke-linejoin="round"/>
<path d="M70.23 63.6352L73.0721 61.8539L73.906 65.2897" stroke="black" stroke-width="1.5" stroke-linecap="round" stroke-linejoin="round"/>
<path d="M29.8581 11.2826L28.6947 11.5617C20.2294 13.5931 13.4601 19.9335 10.8797 28.2479V28.2479" stroke="black" stroke-width="1.5" stroke-linecap="round" stroke-linejoin="round"/>
<path d="M13.7602 26.3929L10.9182 28.1742L10.0843 24.7384" stroke="black" stroke-width="1.5" stroke-linecap="round" stroke-linejoin="round"/>
<path d="M52 30.6702V40.4743C52 40.4743 62.0645 42.0903 62.0645 36.2078C62.0645 30.3253 52 30.6702 52 30.6702ZM52 30.6702V21.7064C52 21.7064 59.7419 19.5555 59.7419 25.4379C59.7419 31.3204 52 30.6702 52 30.6702Z" stroke="black" stroke-width="1.5" stroke-linecap="round" stroke-linejoin="round"/>
<path d="M53.5488 40.6774V42.9999" stroke="black" stroke-width="1.5" stroke-linecap="round" stroke-linejoin="round"/>
<path d="M55.8711 40.6774V42.9999" stroke="black" stroke-width="1.5" stroke-linecap="round" stroke-linejoin="round"/>
<path d="M53.5488 19V21.3226" stroke="black" stroke-width="1.5" stroke-linecap="round" stroke-linejoin="round"/>
<path d="M55.8711 19V21.3226" stroke="black" stroke-width="1.5" stroke-linecap="round" stroke-linejoin="round"/>
</g>
</svg>
